Pretendard.glyphspackage
{
glyphname = percent;
layers = (
{
layerId = "5C20EF92-B63D-42A8-8878-93C2863E0093";
shapes = (
{
closed = 1;
nodes = (
(1088,969,o),
(1273,1206,o),
(1274,1556,cs),
(1273,1906,o),
(1092,2148,o),
(752,2148,cs),
(426,2148,o),
(236,1906,o),
(236,1556,cs),
(236,1211,o),
(417,969,o),
(752,968,cs)
);
},
{
closed = 1;
nodes = (
(650,1280,o),
(588,1389,o),
(588,1556,cs),
(588,1717,o),
(645,1837,o),
(752,1836,cs),
(869,1837,o),
(921,1722,o),
(922,1556,cs),
(921,1389,o),
(864,1280,o),
(752,1280,cs)
);
},
{
closed = 1;
nodes = (
(2574,-97,o),
(2759,140,o),
(2760,490,cs),
(2759,840,o),
(2578,1082,o),
(2238,1082,cs),
(1912,1082,o),
(1722,840,o),
(1722,490,cs),
(1722,145,o),
(1903,-97,o),
(2238,-98,cs)
);
},
{
closed = 1;
nodes = (
(2136,214,o),
(2074,323,o),
(2074,490,cs),
(2074,651,o),
(2131,771,o),
(2238,770,cs),
(2355,771,o),
(2407,656,o),
(2408,490,cs),
(2407,323,o),
(2350,214,o),
(2238,214,cs)
);
},
{
pos = (1110,0);
ref = fraction;
}
);
width = 2996;
},
{
layerId = "B1F27B51-9973-4381-9301-4FE46FE1CA59";
shapes = (
{
closed = 1;
nodes = (
(718,1212,o),
(864,1373,o),
(864,1644,cs),
(864,1915,o),
(718,2076,o),
(528,2076,cs),
(338,2076,o),
(192,1915,o),
(192,1644,cs),
(192,1373,o),
(338,1212,o),
(528,1212,cs)
);
},
{
closed = 1;
nodes = (
(375,1276,o),
(256,1408,o),
(256,1644,cs),
(256,1880,o),
(375,2012,o),
(528,2012,cs),
(681,2012,o),
(800,1880,o),
(800,1644,cs),
(800,1408,o),
(681,1276,o),
(528,1276,cs)
);
},
{
closed = 1;
nodes = (
(1774,-28,o),
(1920,133,o),
(1920,404,cs),
(1920,675,o),
(1774,836,o),
(1584,836,cs),
(1394,836,o),
(1248,675,o),
(1248,404,cs),
(1248,133,o),
(1394,-28,o),
(1584,-28,cs)
);
},
{
closed = 1;
nodes = (
(1431,36,o),
(1312,168,o),
(1312,404,cs),
(1312,640,o),
(1431,772,o),
(1584,772,cs),
(1737,772,o),
(1856,640,o),
(1856,404,cs),
(1856,168,o),
(1737,36,o),
(1584,36,cs)
);
},
{
alignment = -1;
pos = (704,0);
ref = fraction;
}
);
width = 2112;
},
{
layerId = "CD0E3B44-F66A-4791-B84C-A1128DC61275";
shapes = (
{
closed = 1;
nodes = (
(888,1096,o),
(1034,1296,o),
(1034,1590,cs),
(1034,1878,o),
(894,2078,o),
(626,2078,cs),
(366,2078,o),
(214,1878,o),
(216,1590,cs),
(214,1296,o),
(360,1096,o),
(626,1098,cs)
);
},
{
closed = 1;
nodes = (
(488,1272,o),
(422,1398,o),
(422,1590,cs),
(422,1778,o),
(490,1902,o),
(626,1904,cs),
(768,1906,o),
(828,1778,o),
(828,1590,cs),
(828,1398,o),
(764,1272,o),
(626,1272,cs)
);
},
{
closed = 1;
nodes = (
(2136,-30,o),
(2282,170,o),
(2282,462,cs),
(2282,752,o),
(2140,952,o),
(1874,952,cs),
(1614,952,o),
(1462,752,o),
(1464,462,cs),
(1462,170,o),
(1608,-30,o),
(1874,-28,cs)
);
},
{
closed = 1;
nodes = (
(1736,146,o),
(1670,272,o),
(1670,462,cs),
(1670,652,o),
(1738,776,o),
(1874,778,cs),
(2016,780,o),
(2076,652,o),
(2076,462,cs),
(2076,272,o),
(2012,146,o),
(1874,146,cs)
);
},
{
alignment = -1;
pos = (872,0);
ref = fraction;
}
);
width = 2498;
},
{
associatedMasterId = "B1F27B51-9973-4381-9301-4FE46FE1CA59";
layerId = "BC994D54-0D1F-40B6-BEBD-F228E6C0BEB0";
name = "Feb 27, 22 22:00";
shapes = (
{
closed = 1;
nodes = (
(1248,133,o),
(1394,-28,o),
(1584,-28,cs),
(1774,-28,o),
(1920,133,o),
(1920,372,cs),
(1920,436,ls),
(1920,675,o),
(1774,836,o),
(1584,836,cs),
(1394,836,o),
(1248,675,o),
(1248,436,cs),
(1248,372,ls)
);
},
{
closed = 1;
nodes = (
(1312,640,o),
(1431,772,o),
(1584,772,cs),
(1737,772,o),
(1856,640,o),
(1856,436,cs),
(1856,372,ls),
(1856,168,o),
(1737,36,o),
(1584,36,cs),
(1431,36,o),
(1312,168,o),
(1312,372,cs),
(1312,436,ls)
);
},
{
closed = 1;
nodes = (
(192,1373,o),
(338,1212,o),
(528,1212,cs),
(718,1212,o),
(864,1373,o),
(864,1612,cs),
(864,1676,ls),
(864,1915,o),
(718,2076,o),
(528,2076,cs),
(338,2076,o),
(192,1915,o),
(192,1676,cs),
(192,1612,ls)
);
},
{
closed = 1;
nodes = (
(256,1880,o),
(375,2012,o),
(528,2012,cs),
(681,2012,o),
(800,1880,o),
(800,1676,cs),
(800,1612,ls),
(800,1408,o),
(681,1276,o),
(528,1276,cs),
(375,1276,o),
(256,1408,o),
(256,1612,cs),
(256,1676,ls)
);
},
{
alignment = -1;
pos = (704,0);
ref = fraction;
}
);
width = 2112;
},
{
associatedMasterId = "5C20EF92-B63D-42A8-8878-93C2863E0093";
layerId = "BEF9D8DC-6F5F-43DF-9680-53D379A4D0E7";
name = "Feb 27, 22 22:00";
shapes = (
{
closed = 1;
nodes = (
(1308,124,o),
(1478,-100,o),
(1792,-100,cs),
(2106,-100,o),
(2280,124,o),
(2280,384,cs),
(2280,492,ls),
(2280,756,o),
(2110,976,o),
(1792,976,cs),
(1482,976,o),
(1308,752,o),
(1308,492,cs),
(1308,384,ls)
);
},
{
closed = 1;
nodes = (
(1656,572,o),
(1686,664,o),
(1792,664,cs),
(1906,664,o),
(1928,572,o),
(1928,492,cs),
(1928,384,ls),
(1928,304,o),
(1902,216,o),
(1792,216,cs),
(1686,216,o),
(1656,308,o),
(1656,384,cs),
(1656,492,ls)
);
},
{
closed = 1;
nodes = (
(236,1296,o),
(406,1076,o),
(720,1076,cs),
(1034,1076,o),
(1208,1292,o),
(1208,1556,cs),
(1208,1664,ls),
(1208,1928,o),
(1038,2148,o),
(720,2148,cs),
(414,2148,o),
(236,1928,o),
(236,1664,cs),
(236,1556,ls)
);
},
{
closed = 1;
nodes = (
(588,1740,o),
(614,1836,o),
(720,1836,cs),
(834,1836,o),
(856,1744,o),
(856,1664,cs),
(856,1556,ls),
(856,1476,o),
(830,1388,o),
(720,1388,cs),
(618,1388,o),
(588,1476,o),
(588,1556,cs),
(588,1664,ls)
);
},
{
pos = (870,0);
ref = fraction;
}
);
width = 2508;
},
{
associatedMasterId = "5C20EF92-B63D-42A8-8878-93C2863E0093";
layerId = "568E709A-EAB8-47AC-A3E9-A5708443A056";
name = "Feb 27, 22 22:08";
shapes = (
{
closed = 1;
nodes = (
(1034,1076,o),
(1208,1292,o),
(1208,1610,cs),
(1208,1928,o),
(1038,2148,o),
(720,2148,cs),
(414,2148,o),
(236,1928,o),
(236,1610,cs),
(236,1296,o),
(406,1076,o),
(720,1076,cs)
);
},
{
closed = 1;
nodes = (
(638,1388,o),
(588,1476,o),
(588,1610,cs),
(588,1740,o),
(634,1836,o),
(720,1836,cs),
(814,1836,o),
(856,1744,o),
(856,1610,cs),
(856,1476,o),
(810,1388,o),
(720,1388,cs)
);
},
{
closed = 1;
nodes = (
(2426,-98,o),
(2600,118,o),
(2600,436,cs),
(2600,754,o),
(2430,974,o),
(2112,974,cs),
(1806,974,o),
(1628,754,o),
(1628,436,cs),
(1628,122,o),
(1798,-98,o),
(2112,-98,cs)
);
},
{
closed = 1;
nodes = (
(2010,214,o),
(1980,302,o),
(1980,436,cs),
(1980,566,o),
(2006,662,o),
(2112,662,cs),
(2226,662,o),
(2248,570,o),
(2248,436,cs),
(2248,302,o),
(2222,214,o),
(2112,214,cs)
);
},
{
pos = (1030,0);
ref = fraction;
}
);
width = 2836;
}
);
unicode = 37;
userData = {
"interface.width-adjustments" = (
-16
);
};
}
{
glyphname = hyphen;
kernLeft = hyphen;
kernRight = hyphen;
layers = (
{
anchors = (
{
name = _symbol;
pos = (668,816);
}
);
background = {
shapes = (
{
ref = x;
}
);
};
guides = (
{
orientation = center;
pos = (956,816);
}
);
layerId = "5C20EF92-B63D-42A8-8878-93C2863E0093";
shapes = (
{
closed = 1;
nodes = (
(188,1024,l),
(188,608,l),
(1148,608,l),
(1148,1024,l)
);
}
);
width = 1336;
},
{
anchors = (
{
name = _symbol;
pos = (586,878);
}
);
guides = (
{
orientation = center;
pos = (966,1462);
}
);
layerId = "B1F27B51-9973-4381-9301-4FE46FE1CA59";
shapes = (
{
closed = 1;
nodes = (
(204,910,l),
(204,846,l),
(968,846,l),
(968,910,l)
);
}
);
width = 1172;
},
{
anchors = (
{
name = _symbol;
pos = (618,816);
}
);
associatedMasterId = "B1F27B51-9973-4381-9301-4FE46FE1CA59";
background = {
shapes = (
{
ref = x;
}
);
};
guides = (
{
orientation = center;
pos = (1104,816);
}
);
layerId = "2A4AC893-944D-4CBF-BBBB-D9B421CC4A22";
name = low;
shapes = (
{
closed = 1;
nodes = (
(236,848,l),
(236,784,l),
(1000,784,l),
(1000,848,l)
);
}
);
width = 1236;
},
{
anchors = (
{
name = _symbol;
pos = (627,876);
}
);
layerId = "CD0E3B44-F66A-4791-B84C-A1128DC61275";
shapes = (
{
closed = 1;
nodes = (
(178,988,l),
(178,764,l),
(1076,764,l),
(1076,988,l)
);
}
);
width = 1254;
}
);
unicode = 45;
userData = {
"interface.width-adjustments" = (
-16
);
};
}
{
glyphname = slash;
kernLeft = slash;
kernRight = slash;
layers = (
{
guides = (
{
pos = (-136,1240);
},
{
pos = (-136,764);
}
);
layerId = "5C20EF92-B63D-42A8-8878-93C2863E0093";
shapes = (
{
closed = 1;
nodes = (
(676,2144,l),
(16,-308,l),
(484,-308,l),
(1144,2144,l)
);
}
);
width = 1160;
},
{
layerId = "B1F27B51-9973-4381-9301-4FE46FE1CA59";
shapes = (
{
closed = 1;
nodes = (
(720,2144,l),
(60,-308,l),
(128,-308,l),
(788,2144,l)
);
}
);
width = 846;
},
{
layerId = "CD0E3B44-F66A-4791-B84C-A1128DC61275";
shapes = (
{
closed = 1;
nodes = (
(702,2144,l),
(42,-308,l),
(264,-308,l),
(924,2144,l)
);
}
);
width = 966;
}
);
unicode = 47;
userData = {
"interface.width-adjustments" = (
-16
);
};
}
{
color = (227,245,235,1);
glyphname = three;
kernLeft = three;
kernRight = eight;
layers = (
{
guides = (
{
pos = (184,1436);
},
{
pos = (572,1056);
},
{
pos = (184,624);
}
);
layerId = "5C20EF92-B63D-42A8-8878-93C2863E0093";
shapes = (
{
closed = 1;
nodes = (
(1437,-28,o),
(1790,227,o),
(1788,588,cs),
(1790,839,o),
(1622,1016,o),
(1292,1052,c),
(1292,1068,l),
(1536,1094,o),
(1714,1251,o),
(1712,1480,cs),
(1714,1825,o),
(1394,2076,o),
(940,2076,cs),
(476,2076,o),
(146,1811,o),
(144,1436,c),
(676,1436,l),
(678,1560,o),
(787,1648,o),
(940,1648,cs),
(1080,1648,o),
(1178,1563,o),
(1176,1444,cs),
(1178,1320,o),
(1062,1232,o),
(896,1232,cs),
(688,1232,l),
(688,848,l),
(896,848,ls),
(1076,848,o),
(1202,760,o),
(1200,636,cs),
(1202,509,o),
(1094,420,o),
(940,420,cs),
(780,420,o),
(666,505,o),
(664,624,c),
(104,624,l),
(106,242,o),
(451,-28,o),
(936,-28,cs)
);
}
);
width = 1900;
},
{
layerId = "B1F27B51-9973-4381-9301-4FE46FE1CA59";
shapes = (
{
closed = 1;
nodes = (
(1227,-28,o),
(1484,217,o),
(1486,532,cs),
(1484,792,o),
(1307,988,o),
(1032,1056,c),
(1032,1064,l),
(1270,1130,o),
(1423,1312,o),
(1424,1552,cs),
(1423,1852,o),
(1186,2076,o),
(856,2076,cs),
(524,2076,o),
(283,1852,o),
(284,1536,c),
(348,1536,l),
(347,1816,o),
(560,2012,o),
(856,2012,cs),
(1154,2012,o),
(1359,1815,o),
(1360,1552,cs),
(1359,1268,o),
(1115,1088,o),
(798,1088,cs),
(766,1088,l),
(766,1024,l),
(798,1024,ls),
(1159,1024,o),
(1421,826,o),
(1422,532,cs),
(1421,259,o),
(1195,36,o),
(860,36,cs),
(542,36,o),
(296,236,o),
(296,512,c),
(232,512,l),
(234,200,o),
(504,-28,o),
(860,-28,cs)
);
}
);
width = 1702;
},
{
associatedMasterId = "B1F27B51-9973-4381-9301-4FE46FE1CA59";
background = {
shapes = (
{
closed = 1;
nodes = (
(1301,-28,o),
(1596,221,o),
(1596,556,cs),
(1596,816,o),
(1442,1005,o),
(1184,1048,c),
(1184,1064,l),
(1391,1127,o),
(1520,1297,o),
(1520,1528,cs),
(1520,1818,o),
(1291,2076,o),
(912,2076,cs),
(558,2076,o),
(264,1858,o),
(252,1536,c),
(492,1536,l),
(501,1740,o),
(695,1860,o),
(908,1860,cs),
(1134,1860,o),
(1280,1723,o),
(1280,1516,cs),
(1280,1300,o),
(1111,1160,o),
(868,1160,cs),
(704,1160,l),
(704,940,l),
(868,940,ls),
(1179,940,o),
(1352,782,o),
(1352,556,cs),
(1352,339,o),
(1163,192,o),
(900,192,cs),
(663,192,o),
(475,314,o),
(460,512,c),
(208,512,l),
(223,190,o),
(507,-28,o),
(904,-28,cs)
);
}
);
};
layerId = "28ACB353-9A8E-4DD7-BCA4-EE6AE891814C";
name = "Dec 25 18, 17:44";
shapes = (
{
closed = 0;
nodes = (
(284,512,l),
(284,214,o),
(527,4,o),
(860,4,cs),
(1201,4,o),
(1436,236,o),
(1436,532,cs),
(1436,852,o),
(1157,1056,o),
(768,1056,c),
(1124,1056,o),
(1376,1251,o),
(1376,1552,cs),
(1376,1830,o),
(1163,2044,o),
(856,2044,cs),
(551,2044,o),
(332,1834,o),
(332,1536,cs)
);
}
);
width = 1727;
},
{
associatedMasterId = "B1F27B51-9973-4381-9301-4FE46FE1CA59";
layerId = "0A62B8A5-A7C3-451F-850C-81F80BB2B336";
name = "May 22, 21 14:06";
shapes = (
{
closed = 1;
nodes = (
(1198,-28,o),
(1448,217,o),
(1448,532,cs),
(1448,792,o),
(1276,988,o),
(1008,1056,c),
(1008,1064,l),
(1240,1130,o),
(1388,1312,o),
(1388,1552,cs),
(1388,1852,o),
(1158,2076,o),
(836,2076,cs),
(514,2076,o),
(280,1852,o),
(280,1536,c),
(344,1536,l),
(344,1816,o),
(550,2012,o),
(836,2012,cs),
(1125,2012,o),
(1324,1815,o),
(1324,1552,cs),
(1324,1268,o),
(1087,1088,o),
(780,1088,cs),
(748,1088,l),
(748,1024,l),
(780,1024,ls),
(1130,1024,o),
(1384,826,o),
(1384,532,cs),
(1384,259,o),
(1165,36,o),
(840,36,cs),
(533,36,o),
(296,236,o),
(296,512,c),
(232,512,l),
(232,200,o),
(494,-28,o),
(840,-28,cs)
);
}
);
width = 1664;
},
{
layerId = "CD0E3B44-F66A-4791-B84C-A1128DC61275";
shapes = (
{
closed = 1;
nodes = (
(1308,-28,o),
(1614,220,o),
(1612,556,cs),
(1614,818,o),
(1452,1008,o),
(1186,1048,c),
(1186,1064,l),
(1400,1124,o),
(1536,1294,o),
(1534,1526,cs),
(1536,1820,o),
(1298,2076,o),
(908,2076,cs),
(544,2076,o),
(242,1858,o),
(230,1534,c),
(476,1534,l),
(486,1734,o),
(686,1854,o),
(904,1854,cs),
(1138,1854,o),
(1288,1718,o),
(1288,1514,cs),
(1288,1302,o),
(1114,1162,o),
(864,1162,cs),
(698,1162,l),
(698,938,l),
(864,938,ls),
(1184,938,o),
(1362,780,o),
(1362,558,cs),
(1362,344,o),
(1166,198,o),
(896,198,cs),
(652,198,o),
(458,320,o),
(444,514,c),
(186,514,l),
(200,190,o),
(492,-28,o),
(900,-28,cs)
);
}
);
width = 1786;
}
);
unicode = 51;
}
{
color = (227,245,235,1);
glyphname = five;
layers = (
{
background = {
shapes = (
{
pos = (28,0);
ref = three;
}
);
};
guides = (
{
pos = (-200,2280);
},
{
pos = (-200,2396);
},
{
angle = 90;
pos = (116,0);
}
);
layerId = "5C20EF92-B63D-42A8-8878-93C2863E0093";
shapes = (
{
closed = 1;
nodes = (
(1455,-28,o),
(1781,275,o),
(1780,704,cs),
(1781,1093,o),
(1509,1368,o),
(1144,1368,cs),
(936,1368,o),
(768,1276,o),
(704,1152,c),
(692,1152,l),
(732,1604,l),
(1652,1604,l),
(1652,2048,l),
(276,2048,l),
(190,824,l),
(684,824,l),
(731,924,o),
(818,984,o),
(956,984,cs),
(1126,984,o),
(1245,867,o),
(1244,688,cs),
(1245,509,o),
(1126,392,o),
(956,392,cs),
(809,392,o),
(688,482,o),
(684,624,c),
(144,624,l),
(147,242,o),
(484,-28,o),
(956,-28,cs)
);
}
);
width = 1884;
},
{
guides = (
{
angle = 90;
pos = (1196,2240);
}
);
layerId = "B1F27B51-9973-4381-9301-4FE46FE1CA59";
shapes = (
{
closed = 1;
nodes = (
(1140,-28,o),
(1404,255,o),
(1406,636,cs),
(1408,1033,o),
(1111,1292,o),
(766,1292,cs),
(594,1292,o),
(418,1231,o),
(334,1110,c),
(326,1110,l),
(440,1984,l),
(1334,1984,l),
(1334,2048,l),
(384,2048,l),
(252,1028,l),
(334,1030,l),
(427,1159,o),
(586,1228,o),
(766,1228,cs),
(1075,1228,o),
(1340,999,o),
(1342,636,cs),
(1345,297,o),
(1108,36,o),
(770,36,cs),
(468,36,o),
(265,233,o),
(268,512,c),
(204,512,l),
(202,195,o),
(436,-28,o),
(770,-28,cs)
);
}
);
width = 1598;
},
{
associatedMasterId = "B1F27B51-9973-4381-9301-4FE46FE1CA59";
background = {
shapes = (
{
ref = three;
}
);
};
layerId = "09E68E1A-3F35-4777-BBE6-FD6C89765C56";
name = "Dec 27 18, 11:55";
shapes = (
{
closed = 0;
nodes = (
(284,436,l),
(302,187,o),
(520,6,o),
(800,4,c),
(1122,6,o),
(1357,246,o),
(1356,572,c),
(1357,906,o),
(1124,1151,o),
(804,1152,c),
(673,1152,o),
(534,1106,o),
(448,1040,c),
(328,1056,l),
(424,2016,l),
(1384,2016,l)
);
}
);
width = 1609;
},
{
associatedMasterId = "B1F27B51-9973-4381-9301-4FE46FE1CA59";
background = {
shapes = (
{
ref = three;
}
);
};
layerId = "838CDDB9-573F-41EC-B215-16E0F2F00A69";
name = "Dec 27 18, 11:59";
shapes = (
{
closed = 1;
nodes = (
(408,2048,l),
(289,1028,l),
(444,1008,l),
(452,1072,l),
(359,1084,l),
(464,1984,l),
(1384,1984,l),
(1384,2048,l)
);
},
{
closed = 0;
nodes = (
(296,512,l),
(296,256,o),
(504,4,o),
(804,4,cs),
(1116,4,o),
(1380,275,o),
(1380,612,cs),
(1380,947,o),
(1122,1220,o),
(800,1220,cs),
(640,1220,o),
(495,1153,o),
(388,1044,c)
);
}
);
width = 1608;
},
{
associatedMasterId = "B1F27B51-9973-4381-9301-4FE46FE1CA59";
background = {
shapes = (
{
ref = three;
}
);
};
guides = (
{
angle = 90;
pos = (1344,1656);
}
);
layerId = "5BB78558-3F9F-4EEB-9ED3-3B587D72683E";
name = "Dec 27 18, 12:06";
shapes = (
{
closed = 1;
nodes = (
(432,2048,l),
(312,1080,l),
(412,1064,l),
(400,1128,l),
(384,1136,l),
(488,1984,l),
(1344,1984,l),
(1344,2048,l)
);
},
{
closed = 1;
nodes = (
(507,1160,o),
(641,1228,o),
(800,1228,cs),
(1094,1228,o),
(1348,1000,o),
(1348,636,cs),
(1348,294,o),
(1127,36,o),
(804,36,cs),
(521,36,o),
(328,233,o),
(328,512,c),
(264,512,l),
(264,196,o),
(486,-28,o),
(804,-28,cs),
(1158,-28,o),
(1412,257,o),
(1412,636,cs),
(1412,1030,o),
(1130,1292,o),
(800,1292,cs),
(622,1292,o),
(469,1216,o),
(364,1108,c),
(412,1064,l)
);
}
);
width = 1608;
},
{
associatedMasterId = "5C20EF92-B63D-42A8-8878-93C2863E0093";
background = {
shapes = (
{
pos = (28,0);
ref = three;
}
);
};
guides = (
{
pos = (-248,2280);
},
{
pos = (-248,2396);
},
{
angle = 90;
pos = (68,0);
}
);
layerId = "D73682F1-1816-4256-A7A3-642591A86AEA";
name = "May 22, 21 12:37";
shapes = (
{
closed = 1;
nodes = (
(1431,-28,o),
(1757,275,o),
(1756,704,cs),
(1757,1093,o),
(1485,1368,o),
(1120,1368,cs),
(912,1368,o),
(744,1276,o),
(680,1152,c),
(668,1152,l),
(708,1604,l),
(1628,1604,l),
(1628,2048,l),
(252,2048,l),
(172,920,l),
(660,824,l),
(707,924,o),
(814,984,o),
(932,984,cs),
(1102,984,o),
(1221,867,o),
(1220,688,cs),
(1221,509,o),
(1102,392,o),
(932,392,cs),
(785,392,o),
(664,482,o),
(660,624,c),
(120,624,l),
(123,242,o),
(460,-28,o),
(932,-28,cs)
);
}
);
width = 1836;
},
{
associatedMasterId = "B1F27B51-9973-4381-9301-4FE46FE1CA59";
guides = (
{
angle = 90;
pos = (1208,2240);
}
);
layerId = "D56DA8B1-3E65-4B19-BD1D-01C58275A3F0";
name = "May 22, 21 12:37";
shapes = (
{
closed = 1;
nodes = (
(1098,-28,o),
(1350,256,o),
(1352,636,cs),
(1354,1032,o),
(1070,1292,o),
(740,1292,cs),
(576,1292,o),
(438,1231,o),
(336,1136,c),
(328,1136,l),
(432,1984,l),
(1284,1984,l),
(1284,2048,l),
(376,2048,l),
(256,1080,l),
(352,1064,l),
(446,1160,o),
(578,1228,o),
(740,1228,cs),
(1034,1228,o),
(1286,1000,o),
(1288,636,cs),
(1290,296,o),
(1066,36,o),
(744,36,cs),
(458,36,o),
(266,232,o),
(268,512,c),
(204,512,l),
(202,196,o),
(426,-28,o),
(744,-28,cs)
);
}
);
width = 1544;
},
{
associatedMasterId = "B1F27B51-9973-4381-9301-4FE46FE1CA59";
guides = (
{
angle = 90;
pos = (1208,2240);
}
);
layerId = "C0168262-6656-45CC-95C7-565BCD1D87D6";
name = "May 22, 21 14:06";
shapes = (
{
closed = 1;
nodes = (
(1098,-28,o),
(1350,256,o),
(1352,636,cs),
(1354,1032,o),
(1070,1292,o),
(740,1292,cs),
(576,1292,o),
(408,1231,o),
(328,1110,c),
(324,1110,l),
(432,1984,l),
(1284,1984,l),
(1284,2048,l),
(376,2048,l),
(250,1028,l),
(332,1030,l),
(420,1160,o),
(570,1228,o),
(740,1228,cs),
(1034,1228,o),
(1286,1000,o),
(1288,636,cs),
(1290,296,o),
(1066,36,o),
(744,36,cs),
(458,36,o),
(266,232,o),
(268,512,c),
(204,512,l),
(202,196,o),
(426,-28,o),
(744,-28,cs)
);
}
);
width = 1544;
},
{
layerId = "CD0E3B44-F66A-4791-B84C-A1128DC61275";
shapes = (
{
closed = 1;
nodes = (
(1268,-28,o),
(1566,258,o),
(1566,654,cs),
(1566,1052,o),
(1278,1340,o),
(888,1340,cs),
(744,1340,o),
(606,1292,o),
(516,1222,c),
(494,1222,l),
(570,1822,l),
(1468,1822,l),
(1468,2048,l),
(358,2048,l),
(214,928,l),
(460,928,l),
(536,1060,o),
(670,1114,o),
(842,1112,cs),
(1118,1110,o),
(1318,914,o),
(1318,648,cs),
(1318,390,o),
(1126,196,o),
(860,196,cs),
(638,196,o),
(460,332,o),
(442,514,c),
(194,514,l),
(210,200,o),
(490,-28,o),
(860,-28,cs)
);
}
);
width = 1728;
}
);
unicode = 53;
}
{
color = (227,245,235,1);
glyphname = eight;
kernLeft = eight;
kernRight = eight;
layers = (
{
anchors = (
{
name = _symbol;
pos = (972,1024);
}
);
guides = (
{
pos = (-172,1480);
},
{
pos = (-172,1060);
},
{
pos = (60,588);
},
{
pos = (-172,2076);
},
{
orientation = center;
angle = 90;
pos = (860,508);
},
{
angle = 90;
pos = (1208,508);
},
{
angle = 90;
pos = (440,508);
}
);
layerId = "5C20EF92-B63D-42A8-8878-93C2863E0093";
shapes = (
{
closed = 1;
nodes = (
(1468,-28,o),
(1832,224,o),
(1832,556,cs),
(1832,809,o),
(1619,1012,o),
(1356,1052,c),
(1356,1068,l),
(1585,1108,o),
(1756,1291,o),
(1756,1520,cs),
(1756,1840,o),
(1424,2076,o),
(972,2076,cs),
(520,2076,o),
(188,1841,o),
(188,1520,cs),
(188,1292,o),
(355,1108,o),
(588,1068,c),
(588,1052,l),
(321,1012,o),
(112,809,o),
(112,556,cs),
(112,224,o),
(476,-28,o),
(972,-28,cs)
);
},
{
closed = 1;
nodes = (
(815,372,o),
(700,478,o),
(700,620,cs),
(700,762,o),
(815,864,o),
(972,864,cs),
(1129,864,o),
(1244,761,o),
(1244,620,cs),
(1244,477,o),
(1129,372,o),
(972,372,cs)
);
},
{
closed = 1;
nodes = (
(833,1232,o),
(732,1328,o),
(732,1456,cs),
(732,1584,o),
(833,1676,o),
(972,1676,cs),
(1111,1676,o),
(1212,1583,o),
(1212,1456,cs),
(1212,1327,o),
(1111,1232,o),
(972,1232,cs)
);
}
);
width = 1944;
},
{
anchors = (
{
name = _symbol;
pos = (960,1024);
}
);
associatedMasterId = "5C20EF92-B63D-42A8-8878-93C2863E0093";
background = {
shapes = (
{
closed = 1;
nodes = (
(100,228,o),
(452,-28,o),
(952,-28,cs),
(960,-28,l),
(968,-28,ls),
(1468,-28,o),
(1820,228,o),
(1820,588,cs),
(1820,840,o),
(1652,1016,o),
(1324,1052,c),
(1324,1068,l),
(1552,1092,o),
(1720,1232,o),
(1740,1436,c),
(1744,1436,l),
(1744,1460,l),
(1744,1480,ls),
(1744,1824,o),
(1424,2076,o),
(972,2076,cs),
(960,2076,l),
(948,2076,ls),
(496,2076,o),
(176,1824,o),
(176,1480,cs),
(176,1460,l),
(176,1436,l),
(180,1436,l),
(200,1232,o),
(368,1092,o),
(596,1068,c),
(596,1052,l),
(268,1016,o),
(100,840,o),
(100,588,cs)
);
},
{
closed = 1;
nodes = (
(688,752,o),
(800,836,o),
(960,848,c),
(1120,836,o),
(1232,752,o),
(1232,636,cs),
(1232,624,l),
(1224,624,l),
(1224,508,o),
(1116,424,o),
(960,420,c),
(804,424,o),
(696,508,o),
(696,624,c),
(688,624,l),
(688,636,ls)
);
},
{
closed = 1;
nodes = (
(712,1472,o),
(716,1496,o),
(728,1520,cs),
(764,1596,o),
(848,1644,o),
(960,1648,c),
(1072,1644,o),
(1156,1596,o),
(1192,1520,cs),
(1204,1496,o),
(1208,1472,o),
(1208,1444,cs),
(1208,1328,o),
(1108,1244,o),
(960,1232,c),
(812,1244,o),
(712,1328,o),
(712,1444,cs)
);
}
);
};
guides = (
{
pos = (-36,1480);
},
{
pos = (-36,1060);
},
{
pos = (196,588);
},
{
pos = (-36,2076);
},
{
orientation = center;
angle = 90;
pos = (996,508);
}
);
layerId = "0529D95E-C2D1-421A-B897-35690538E92C";
name = "Sep 20 18, 18:25";
shapes = (
{
closed = 1;
nodes = (
(1456,-28,o),
(1820,216,o),
(1820,548,cs),
(1820,888,o),
(1535,1100,o),
(960,1100,cs),
(385,1100,o),
(100,888,o),
(100,548,cs),
(100,216,o),
(464,-28,o),
(960,-28,cs)
);
},
{
closed = 1;
nodes = (
(803,356,o),
(688,461,o),
(688,604,cs),
(688,745,o),
(803,848,o),
(960,848,cs),
(1117,848,o),
(1232,745,o),
(1232,604,cs),
(1232,461,o),
(1117,356,o),
(960,356,cs)
);
},
{
closed = 1;
nodes = (
(821,1232,o),
(720,1327,o),
(720,1456,cs),
(720,1583,o),
(821,1676,o),
(960,1676,cs),
(1099,1676,o),
(1200,1583,o),
(1200,1456,cs),
(1200,1327,o),
(1099,1232,o),
(960,1232,cs)
);
},
{
closed = 1;
nodes = (
(1512,1012,o),
(1744,1210,o),
(1744,1480,cs),
(1744,1821,o),
(1432,2076,o),
(960,2076,cs),
(488,2076,o),
(176,1821,o),
(176,1480,cs),
(176,1210,o),
(408,1012,o),
(960,1012,cs)
);
}
);
width = 1920;
},
{
anchors = (
{
name = _symbol;
pos = (847,1024);
}
);
layerId = "B1F27B51-9973-4381-9301-4FE46FE1CA59";
shapes = (
{
closed = 1;
nodes = (
(1215,-28,o),
(1514,220,o),
(1514,528,cs),
(1514,772,o),
(1325,1001,o),
(1062,1056,c),
(1062,1064,l),
(1287,1136,o),
(1440,1333,o),
(1442,1556,cs),
(1440,1849,o),
(1171,2076,o),
(846,2076,cs),
(518,2076,o),
(251,1847,o),
(252,1556,cs),
(251,1331,o),
(411,1137,o),
(632,1064,c),
(632,1056,l),
(369,998,o),
(180,772,o),
(180,528,cs),
(180,220,o),
(478,-28,o),
(846,-28,cs)
);
},
{
closed = 1;
nodes = (
(511,36,o),
(245,260,o),
(246,532,cs),
(245,804,o),
(510,1028,o),
(846,1028,cs),
(1184,1028,o),
(1448,804,o),
(1448,532,cs),
(1448,260,o),
(1184,36,o),
(846,36,cs)
);
},
{
closed = 1;
nodes = (
(555,1084,o),
(315,1301,o),
(316,1556,cs),
(315,1812,o),
(555,2012,o),
(846,2012,cs),
(1139,2012,o),
(1377,1812,o),
(1378,1556,cs),
(1377,1301,o),
(1139,1084,o),
(846,1084,cs)
);
}
);
width = 1694;
},
{
anchors = (
{
name = _symbol;
pos = (816,1024);
}
);
associatedMasterId = "B1F27B51-9973-4381-9301-4FE46FE1CA59";
background = {
shapes = (
{
closed = 1;
nodes = (
(1225,-27,o),
(1509,210,o),
(1512,544,cs),
(1514,802,o),
(1337,1022,o),
(1116,1064,c),
(1116,1076,l),
(1308,1125,o),
(1434,1313,o),
(1436,1532,cs),
(1439,1843,o),
(1172,2075,o),
(816,2076,cs),
(456,2077,o),
(195,1843,o),
(196,1532,cs),
(197,1313,o),
(320,1125,o),
(516,1076,c),
(516,1064,l),
(291,1022,o),
(118,802,o),
(120,544,cs),
(123,210,o),
(403,-29,o),
(816,-28,cs)
);
},
{
closed = 1;
nodes = (
(535,193,o),
(362,335,o),
(364,556,cs),
(366,786,o),
(553,951,o),
(816,952,cs),
(1075,953,o),
(1266,786,o),
(1268,556,cs),
(1270,335,o),
(1093,191,o),
(816,192,cs)
);
},
{
closed = 1;
nodes = (
(592,1165,o),
(434,1303,o),
(436,1516,cs),
(438,1723,o),
(586,1859,o),
(816,1860,cs),
(1042,1861,o),
(1194,1723,o),
(1196,1516,cs),
(1198,1303,o),
(1036,1163,o),
(816,1164,cs)
);
},
{
closed = 1;
nodes = (
(1112,1057,o),
(1352,1276,o),
(1352,1552,cs),
(1352,1822,o),
(1112,2043,o),
(816,2044,cs),
(520,2045,o),
(280,1822,o),
(280,1552,cs),
(280,1276,o),
(520,1055,o),
(816,1056,cs)
);
},
{
closed = 1;
nodes = (
(1150,6,o),
(1420,239,o),
(1420,532,cs),
(1420,819,o),
(1150,1054,o),
(816,1056,cs),
(482,1056,o),
(212,819,o),
(212,532,cs),
(212,239,o),
(482,4,o),
(816,4,cs)
);
}
);
};
layerId = "0731E66A-26BA-4BAF-9F98-AF7EB4311F62";
name = "Dec 27 18, 13:07";
shapes = (
{
closed = 1;
nodes = (
(1112,1062,o),
(1352,1280,o),
(1352,1556,cs),
(1352,1823,o),
(1112,2043,o),
(816,2044,cs),
(520,2045,o),
(280,1823,o),
(280,1556,cs),
(280,1280,o),
(520,1060,o),
(816,1060,cs)
);
},
{
closed = 1;
nodes = (
(1150,6,o),
(1420,238,o),
(1420,528,cs),
(1420,816,o),
(1150,1050,o),
(816,1052,cs),
(482,1052,o),
(212,816,o),
(212,528,cs),
(212,238,o),
(482,4,o),
(816,4,cs)
);
}
);
width = 1632;
},
{
anchors = (
{
name = _symbol;
pos = (816,1024);
}
);
associatedMasterId = "B1F27B51-9973-4381-9301-4FE46FE1CA59";
background = {
shapes = (
{
closed = 1;
nodes = (
(1225,-27,o),
(1509,210,o),
(1512,544,cs),
(1514,802,o),
(1337,1022,o),
(1116,1064,c),
(1116,1076,l),
(1308,1125,o),
(1434,1313,o),
(1436,1532,cs),
(1439,1843,o),
(1172,2075,o),
(816,2076,cs),
(456,2077,o),
(195,1843,o),
(196,1532,cs),
(197,1313,o),
(320,1125,o),
(516,1076,c),
(516,1064,l),
(291,1022,o),
(118,802,o),
(120,544,cs),
(123,210,o),
(403,-29,o),
(816,-28,cs)
);
},
{
closed = 1;
nodes = (
(535,193,o),
(362,335,o),
(364,556,cs),
(366,786,o),
(553,951,o),
(816,952,cs),
(1075,953,o),
(1266,786,o),
(1268,556,cs),
(1270,335,o),
(1093,191,o),
(816,192,cs)
);
},
{
closed = 1;
nodes = (
(592,1165,o),
(434,1303,o),
(436,1516,cs),
(438,1723,o),
(586,1859,o),
(816,1860,cs),
(1042,1861,o),
(1194,1723,o),
(1196,1516,cs),
(1198,1303,o),
(1036,1163,o),
(816,1164,cs)
);
},
{
closed = 1;
nodes = (
(1112,1057,o),
(1352,1276,o),
(1352,1552,cs),
(1352,1822,o),
(1112,2043,o),
(816,2044,cs),
(520,2045,o),
(280,1822,o),
(280,1552,cs),
(280,1276,o),
(520,1055,o),
(816,1056,cs)
);
},
{
closed = 1;
nodes = (
(1150,6,o),
(1420,239,o),
(1420,532,cs),
(1420,819,o),
(1150,1054,o),
(816,1056,cs),
(482,1056,o),
(212,819,o),
(212,532,cs),
(212,239,o),
(482,4,o),
(816,4,cs)
);
}
);
};
layerId = "099996E5-6893-4918-AB65-52D8E36273B3";
name = "Dec 27 18, 13:09";
shapes = (
{
closed = 1;
nodes = (
(1132,1030,o),
(1384,1264,o),
(1384,1556,cs),
(1384,1842,o),
(1129,2075,o),
(816,2076,cs),
(505,2077,o),
(248,1843,o),
(248,1556,cs),
(248,1263,o),
(501,1028,o),
(816,1028,cs)
);
},
{
closed = 1;
nodes = (
(548,1084,o),
(312,1293,o),
(312,1552,cs),
(312,1805,o),
(539,2013,o),
(816,2012,cs),
(1094,2011,o),
(1320,1804,o),
(1320,1552,cs),
(1320,1294,o),
(1085,1084,o),
(816,1084,cs)
);
},
{
closed = 1;
nodes = (
(1169,-26,o),
(1452,221,o),
(1452,528,cs),
(1452,834,o),
(1168,1082,o),
(816,1084,cs),
(466,1086,o),
(180,835,o),
(180,528,cs),
(180,220,o),
(464,-28,o),
(816,-28,cs)
);
},
{
closed = 1;
nodes = (
(499,36,o),
(244,258,o),
(244,532,cs),
(244,805,o),
(497,1030,o),
(816,1028,cs),
(1136,1026,o),
(1388,804,o),
(1388,532,cs),
(1388,259,o),
(1134,38,o),
(816,36,cs)
);
},
{
closed = 1;
nodes = (
(612,1048,l),
(1016,1048,l),
(1016,1068,l),
(612,1068,l)
);
}
);
width = 1632;
},
{
anchors = (
{
name = _symbol;
pos = (816,1024);
}
);
associatedMasterId = "B1F27B51-9973-4381-9301-4FE46FE1CA59";
layerId = "2CC0120E-63F9-48FE-96CE-4ED4ED35FD89";
name = "May 22, 21 14:07";
shapes = (
{
closed = 1;
nodes = (
(1168,-28,o),
(1452,220,o),
(1452,528,cs),
(1452,772,o),
(1272,1001,o),
(1020,1056,c),
(1020,1064,l),
(1236,1136,o),
(1384,1333,o),
(1384,1556,cs),
(1384,1849,o),
(1126,2076,o),
(816,2076,cs),
(502,2076,o),
(248,1847,o),
(248,1556,cs),
(248,1331,o),
(400,1137,o),
(612,1064,c),
(612,1056,l),
(360,998,o),
(180,772,o),
(180,528,cs),
(180,220,o),
(464,-28,o),
(816,-28,cs)
);
},
{
closed = 1;
nodes = (
(497,36,o),
(244,260,o),
(244,532,cs),
(244,804,o),
(496,1028,o),
(816,1028,cs),
(1136,1028,o),
(1388,804,o),
(1388,532,cs),
(1388,260,o),
(1136,36,o),
(816,36,cs)
);
},
{
closed = 1;
nodes = (
(539,1084,o),
(312,1301,o),
(312,1556,cs),
(312,1812,o),
(539,2012,o),
(816,2012,cs),
(1093,2012,o),
(1320,1812,o),
(1320,1556,cs),
(1320,1301,o),
(1093,1084,o),
(816,1084,cs)
);
}
);
width = 1632;
},
{
anchors = (
{
name = _symbol;
pos = (878,1024);
}
);
layerId = "CD0E3B44-F66A-4791-B84C-A1128DC61275";
shapes = (
{
closed = 1;
nodes = (
(1304,-28,o),
(1604,210,o),
(1606,544,cs),
(1604,808,o),
(1420,1026,o),
(1188,1064,c),
(1188,1074,l),
(1388,1122,o),
(1524,1310,o),
(1526,1532,cs),
(1524,1846,o),
(1250,2076,o),
(878,2076,cs),
(502,2076,o),
(228,1846,o),
(228,1532,cs),
(228,1310,o),
(362,1122,o),
(566,1074,c),
(566,1064,l),
(332,1026,o),
(148,808,o),
(150,544,cs),
(148,210,o),
(446,-28,o),
(878,-28,cs)
);
},
{
closed = 1;
nodes = (
(582,196,o),
(400,342,o),
(404,558,cs),
(400,784,o),
(602,950,o),
(878,950,cs),
(1152,950,o),
(1352,784,o),
(1352,558,cs),
(1352,342,o),
(1170,196,o),
(878,196,cs)
);
},
{
closed = 1;
nodes = (
(642,1166,o),
(476,1306,o),
(476,1514,cs),
(476,1718,o),
(634,1856,o),
(878,1856,cs),
(1116,1856,o),
(1278,1718,o),
(1278,1514,cs),
(1278,1306,o),
(1110,1166,o),
(878,1166,cs)
);
}
);
width = 1756;
},
{
anchors = (
{
name = _symbol;
pos = (972,1024);
}
);
associatedMasterId = "5C20EF92-B63D-42A8-8878-93C2863E0093";
guides = (
{
pos = (-172,1480);
},
{
pos = (-172,1060);
},
{
pos = (60,588);
},
{
pos = (-172,2076);
},
{
orientation = center;
angle = 90;
pos = (860,508);
},
{
angle = 90;
pos = (1208,508);
},
{
angle = 90;
pos = (440,508);
}
);
layerId = "E2DC7E82-A827-417B-8080-1734C30AF4B8";
name = "Oct 4, 21 23:20";
shapes = (
{
closed = 1;
nodes = (
(1468,-28,o),
(1832,224,o),
(1832,556,cs),
(1832,809,o),
(1619,1012,o),
(1356,1052,c),
(1356,1068,l),
(1585,1108,o),
(1756,1291,o),
(1756,1520,cs),
(1756,1840,o),
(1424,2076,o),
(972,2076,cs),
(520,2076,o),
(188,1841,o),
(188,1520,cs),
(188,1292,o),
(355,1108,o),
(588,1068,c),
(588,1052,l),
(321,1012,o),
(112,809,o),
(112,556,cs),
(112,224,o),
(476,-28,o),
(972,-28,cs)
);
},
{
closed = 1;
nodes = (
(815,356,o),
(700,462,o),
(700,604,cs),
(700,746,o),
(815,848,o),
(972,848,cs),
(1129,848,o),
(1244,745,o),
(1244,604,cs),
(1244,461,o),
(1129,356,o),
(972,356,cs)
);
},
{
closed = 1;
nodes = (
(833,1232,o),
(732,1328,o),
(732,1456,cs),
(732,1584,o),
(833,1676,o),
(972,1676,cs),
(1111,1676,o),
(1212,1583,o),
(1212,1456,cs),
(1212,1327,o),
(1111,1232,o),
(972,1232,cs)
);
}
);
width = 1944;
}
);
note = "essentially two conjoined \"three\" glyphs";
unicode = 56;
}
{
glyphname = question;
layers = (
{
anchors = (
{
name = _symbol;
pos = (844,1024);
}
);
guides = (
{
pos = (-176,2352);
},
{
pos = (-176,836);
},
{
angle = 90;
pos = (284,0);
},
{
angle = 90;
pos = (632,632);
}
);
layerId = "5C20EF92-B63D-42A8-8878-93C2863E0093";
shapes = (
{
closed = 1;
nodes = (
(1016,640,l),
(1016,688,ls),
(1016,847,o),
(1091,927,o),
(1236,1012,cs),
(1431,1126,o),
(1564,1269,o),
(1564,1512,cs),
(1564,1888,o),
(1247,2076,o),
(820,2076,cs),
(431,2076,o),
(108,1892,o),
(104,1452,c),
(616,1452,l),
(616,1567,o),
(708,1648,o),
(816,1648,cs),
(916,1648,o),
(996,1580,o),
(996,1480,cs),
(996,1368,o),
(899,1299,o),
(772,1216,cs),
(623,1119,o),
(544,1017,o),
(544,688,cs),
(544,640,l)
);
},
{
pos = (348,0);
ref = period;
}
);
width = 1688;
},
{
anchors = (
{
name = _symbol;
pos = (642,1024);
}
);
guides = (
{
angle = 90;
pos = (480,1100);
},
{
pos = (340,1192);
}
);
layerId = "B1F27B51-9973-4381-9301-4FE46FE1CA59";
shapes = (
{
closed = 1;
nodes = (
(616,608,l),
(616,748,ls),
(616,910,o),
(669,994,o),
(860,1132,cs),
(1078,1289,o),
(1156,1407,o),
(1156,1576,cs),
(1156,1865,o),
(929,2076,o),
(636,2076,cs),
(329,2076,o),
(100,1844,o),
(100,1536,c),
(164,1536,l),
(164,1808,o),
(364,2012,o),
(636,2012,cs),
(894,2012,o),
(1092,1830,o),
(1092,1576,cs),
(1092,1431,o),
(1027,1327,o),
(824,1184,cs),
(618,1039,o),
(552,932,o),
(552,748,cs),
(552,608,l)
);
},
{
pos = (260,0);
ref = period;
}
);
width = 1284;
},
{
anchors = (
{
name = _symbol;
pos = (636,1016);
}
);
associatedMasterId = "B1F27B51-9973-4381-9301-4FE46FE1CA59";
layerId = "75D4D36F-F0AC-4556-9658-7C6E75F1070E";
name = "Nov 30 18, 00:07";
shapes = (
{
closed = 0;
nodes = (
(576,544,l),
(576,904,o),
(644,1004,o),
(820,1124,cs),
(976,1230,o),
(1096,1349,o),
(1096,1568,cs),
(1096,1847,o),
(905,2044,o),
(636,2044,cs),
(357,2044,o),
(160,1834,o),
(160,1536,c)
);
},
{
pos = (212,0);
ref = period;
}
);
width = 1272;
},
{
anchors = (
{
name = _symbol;
pos = (636,1032);
}
);
associatedMasterId = "B1F27B51-9973-4381-9301-4FE46FE1CA59";
guides = (
{
angle = 90;
pos = (576,516);
}
);
layerId = "ED769F43-BCBA-464F-BC0C-E3675F1B7BB8";
name = "Nov 30 18, 00:10";
shapes = (
{
closed = 1;
nodes = (
(192,1536,l),
(192,1816,o),
(376,2012,o),
(636,2012,cs),
(888,2012,o),
(1064,1828,o),
(1064,1568,cs),
(1064,1396,o),
(992,1280,o),
(804,1152,cs),
(600,1012,o),
(544,884,o),
(544,544,c),
(608,544,l),
(608,864,o),
(652,972,o),
(840,1100,cs),
(1044,1236,o),
(1128,1372,o),
(1128,1568,cs),
(1128,1864,o),
(924,2076,o),
(636,2076,cs),
(340,2076,o),
(128,1852,o),
(128,1536,c)
);
},
{
pos = (220,0);
ref = period;
}
);
width = 1272;
},
{
anchors = (
{
name = _symbol;
pos = (662,1016);
}
);
associatedMasterId = "B1F27B51-9973-4381-9301-4FE46FE1CA59";
background = {
shapes = (
{
closed = 1;
nodes = (
(624,320,l),
(624,804,o),
(668,916,o),
(856,1060,cs),
(1048,1212,o),
(1144,1368,o),
(1144,1568,cs),
(1144,1864,o),
(940,2076,o),
(652,2076,cs),
(356,2076,o),
(144,1852,o),
(144,1536,c),
(208,1536,l),
(208,1816,o),
(392,2012,o),
(652,2012,cs),
(904,2012,o),
(1080,1828,o),
(1080,1568,cs),
(1080,1392,o),
(1004,1256,o),
(820,1112,cs),
(616,956,o),
(560,816,o),
(560,320,c)
);
},
{
closed = 0;
nodes = (
(616,640,l),
(612,894,o),
(671,993,o),
(896,1152,cs),
(1055,1264,o),
(1144,1385,o),
(1144,1588,cs),
(1144,1856,o),
(937,2042,o),
(652,2044,cs),
(366,2046,o),
(109,1877,o),
(108,1516,c)
);
}
);
};
guides = (
{
angle = 90;
pos = (592,516);
}
);
layerId = "A64C3A59-7B69-4518-AB3E-BEEAC2E00FFE";
name = "Jan 22 19, 06:51";
shapes = (
{
closed = 0;
nodes = (
(592,320,l),
(588,906,o),
(684,1010,o),
(896,1152,cs),
(1078,1274,o),
(1144,1422,o),
(1144,1576,cs),
(1144,1842,o),
(944,2044,o),
(652,2044,cs),
(353,2044,o),
(109,1832,o),
(108,1536,c)
);
},
{
pos = (236,0);
ref = period;
}
);
width = 1324;
},
{
anchors = (
{
name = _symbol;
pos = (694,1032);
}
);
associatedMasterId = "B1F27B51-9973-4381-9301-4FE46FE1CA59";
guides = (
{
angle = 90;
pos = (656,516);
}
);
layerId = "97860723-3877-46AB-80B9-B6DA2B6A584E";
name = "Jan 22 19, 06:56";
shapes = (
{
closed = 1;
nodes = (
(205,1807,o),
(426,2012,o),
(716,2012,cs),
(988,2012,o),
(1176,1830,o),
(1176,1576,cs),
(1176,1412,o),
(1099,1284,o),
(944,1180,cs),
(727,1034,o),
(620,918,o),
(624,320,c),
(688,320,l),
(684,881,o),
(771,991,o),
(976,1124,cs),
(1150,1238,o),
(1240,1391,o),
(1240,1576,cs),
(1240,1865,o),
(1023,2076,o),
(716,2076,cs),
(391,2076,o),
(141,1842,o),
(140,1536,c),
(204,1536,l)
);
},
{
pos = (300,0);
ref = period;
}
);
width = 1388;
},
{
anchors = (
{
name = _symbol;
pos = (694,1016);
}
);
associatedMasterId = "B1F27B51-9973-4381-9301-4FE46FE1CA59";
background = {
shapes = (
{
closed = 0;
nodes = (
(208,1584,l),
(231,1853,o),
(436,2042,o),
(708,2044,cs),
(984,2046,o),
(1196,1850,o),
(1196,1592,cs),
(1196,1425,o),
(1116,1303,o),
(912,1156,cs),
(713,1013,o),
(656,919,o),
(656,748,cs),
(656,612,l)
);
}
);
};
guides = (
{
angle = 90;
pos = (656,516);
}
);
layerId = "257671DD-319E-494D-ABB6-8D5D07521099";
name = "Jan 22 19, 09:25";
shapes = (
{
closed = 0;
nodes = (
(204,1520,l),
(204,1840,o),
(426,2044,o),
(708,2044,cs),
(984,2044,o),
(1196,1849,o),
(1196,1576,cs),
(1196,1409,o),
(1116,1303,o),
(912,1156,cs),
(713,1013,o),
(656,919,o),
(656,748,cs),
(656,608,l)
);
},
{
pos = (300,0);
ref = period;
}
);
width = 1388;
},
{
anchors = (
{
name = _symbol;
pos = (674,1016);
}
);
associatedMasterId = "B1F27B51-9973-4381-9301-4FE46FE1CA59";
background = {
shapes = (
{
closed = 0;
nodes = (
(168,1584,l),
(191,1853,o),
(396,2042,o),
(668,2044,cs),
(944,2046,o),
(1156,1850,o),
(1156,1592,cs),
(1156,1425,o),
(1076,1303,o),
(872,1156,cs),
(673,1013,o),
(616,919,o),
(616,748,cs),
(616,612,l)
);
}
);
};
guides = (
{
angle = 90;
pos = (616,516);
}
);
layerId = "D2256727-13BA-427B-A422-447CE61ECAB7";
name = "Jan 22 19, 09:29";
shapes = (
{
closed = 0;
nodes = (
(164,1536,l),
(164,1840,o),
(396,2044,o),
(668,2044,cs),
(932,2044,o),
(1156,1852,o),
(1156,1576,cs),
(1156,1409,o),
(1076,1303,o),
(872,1156,cs),
(673,1013,o),
(616,919,o),
(616,748,cs),
(616,608,l)
);
},
{
pos = (260,0);
ref = period;
}
);
width = 1348;
},
{
anchors = (
{
name = _symbol;
pos = (696,1024);
}
);
layerId = "CD0E3B44-F66A-4791-B84C-A1128DC61275";
shapes = (
{
closed = 1;
nodes = (
(748,578,l),
(748,590,ls),
(752,836,o),
(816,944,o),
(992,1052,cs),
(1168,1160,o),
(1272,1314,o),
(1272,1536,cs),
(1272,1848,o),
(1042,2076,o),
(688,2076,cs),
(364,2076,o),
(104,1876,o),
(90,1534,c),
(348,1534,l),
(364,1766,o),
(526,1862,o),
(688,1862,cs),
(874,1862,o),
(1024,1740,o),
(1024,1546,cs),
(1024,1388,o),
(934,1276,o),
(816,1204,cs),
(622,1086,o),
(506,970,o),
(502,590,cs),
(502,578,l)
);
},
{
alignment = -1;
pos = (266,0);
ref = period;
}
);
width = 1390;
}
);
unicode = 63;
userData = {
"interface.width-adjustments" = (
-16
);
};
}
{
color = (219,235,247,1);
glyphname = H;
kernLeft = B;
kernRight = H;
layers = (
{
anchors = (
{
name = _symbol;
pos = (1056,1024);
},
{
name = bottom;
pos = (1056,0);
},
{
name = cedilla;
pos = (396,0);
},
{
name = cyrtic;
pos = (2244,224);
},
{
name = right;
pos = (1980,0);
},
{
name = tonos;
pos = (84,2048);
},
{
name = top;
pos = (1056,2304);
}
);
guides = (
{
pos = (-136,1652);
},
{
angle = 90;
orientation = center;
pos = (836,1344);
}
);
layerId = "5C20EF92-B63D-42A8-8878-93C2863E0093";
shapes = (
{
closed = 1;
nodes = (
(688,0,l),
(688,800,l),
(1424,800,l),
(1424,0,l),
(1980,0,l),
(1980,2048,l),
(1424,2048,l),
(1424,1248,l),
(688,1248,l),
(688,2048,l),
(132,2048,l),
(132,0,l)
);
}
);
width = 2112;
},
{
anchors = (
{
name = _symbol;
pos = (1004,1024);
},
{
name = bottom;
pos = (1004,0);
},
{
name = cedilla;
pos = (320,-8);
},
{
name = cyrtic;
pos = (1748,8);
},
{
name = right;
pos = (1720,0);
},
{
name = tonos;
pos = (240,2048);
},
{
name = top;
pos = (1004,2304);
}
);
layerId = "B1F27B51-9973-4381-9301-4FE46FE1CA59";
shapes = (
{
closed = 1;
nodes = (
(352,0,l),
(352,992,l),
(1656,992,l),
(1656,0,l),
(1720,0,l),
(1720,2048,l),
(1656,2048,l),
(1656,1056,l),
(352,1056,l),
(352,2048,l),
(288,2048,l),
(288,0,l)
);
}
);
width = 2008;
},
{
anchors = (
{
name = _symbol;
pos = (1023,1024);
},
{
name = bottom;
pos = (1020,0);
},
{
name = cedilla;
pos = (384,-4);
},
{
name = cyrtic;
pos = (1916,92);
},
{
name = right;
pos = (1820,0);
},
{
name = tonos;
pos = (178,2048);
},
{
name = top;
pos = (1032,2308);
}
);
layerId = "CD0E3B44-F66A-4791-B84C-A1128DC61275";
shapes = (
{
closed = 1;
nodes = (
(480,0,l),
(480,914,l),
(1564,914,l),
(1564,0,l),
(1820,0,l),
(1820,2048,l),
(1564,2048,l),
(1564,1138,l),
(480,1138,l),
(480,2048,l),
(226,2048,l),
(226,0,l)
);
}
);
width = 2046;
}
);
unicode = 72;
userData = {
"interface.width-adjustments" = (
-16
);
};
}
{
color = (219,235,247,1);
glyphname = L;
kernLeft = B;
kernRight = L;
layers = (
{
anchors = (
{
name = bottom;
pos = (824,0);
},
{
name = cross;
pos = (408,1084);
},
{
name = dot;
pos = (832,1200);
},
{
name = raccent;
pos = (968,2048);
},
{
name = top;
pos = (404,2304);
}
);
guides = (
{
pos = (-136,1304);
},
{
angle = 90;
pos = (676,584);
},
{
pos = (840,-416);
}
);
layerId = "5C20EF92-B63D-42A8-8878-93C2863E0093";
shapes = (
{
closed = 1;
nodes = (
(1516,0,l),
(1516,448,l),
(688,448,l),
(688,2048,l),
(132,2048,l),
(132,0,l)
);
}
);
width = 1608;
},
{
anchors = (
{
name = bottom;
pos = (832,0);
},
{
name = cross;
pos = (320,1056);
},
{
name = dot;
pos = (800,1028);
},
{
name = raccent;
pos = (828,2048);
},
{
name = top;
pos = (320,2304);
}
);
guides = (
{
angle = 90;
pos = (728,2672);
},
{
angle = 90;
pos = (216,2516);
}
);
layerId = "B1F27B51-9973-4381-9301-4FE46FE1CA59";
shapes = (
{
closed = 1;
nodes = (
(1376,0,l),
(1376,64,l),
(352,64,l),
(352,2048,l),
(288,2048,l),
(288,0,l)
);
}
);
width = 1520;
},
{
anchors = (
{
name = bottom;
pos = (816,0);
},
{
name = cross;
pos = (342,1056);
},
{
name = dot;
pos = (800,1094);
},
{
name = raccent;
pos = (816,2048);
},
{
name = top;
pos = (340,2304);
}
);
associatedMasterId = "CD0E3B44-F66A-4791-B84C-A1128DC61275";
layerId = "0D4A981F-DC47-42B2-BD64-3CAF7D6122E5";
shapes = (
{
closed = 1;
nodes = (
(1418,0,l),
(1418,226,l),
(468,226,l),
(468,2048,l),
(214,2048,l),
(214,0,l)
);
}
);
width = 1520.98113;
},
{
anchors = (
{
name = bottom;
pos = (828,0);
},
{
name = cross;
pos = (354,1056);
},
{
name = dot;
pos = (812,1094);
},
{
name = raccent;
pos = (828,2048);
},
{
name = top;
pos = (352,2304);
}
);
layerId = "CD0E3B44-F66A-4791-B84C-A1128DC61275";
shapes = (
{
closed = 1;
nodes = (
(1430,0,l),
(1430,226,l),
(480,226,l),
(480,2048,l),
(226,2048,l),
(226,0,l)
);
}
);
width = 1544;
}
);
metricLeft = H;
unicode = 76;
userData = {
"interface.width-adjustments" = (
-16
);
};
}
{
color = (219,235,247,1);
glyphname = R;
kernLeft = B;
kernRight = R;
layers = (
{
anchors = (
{
name = bottom;
pos = (960,0);
},
{
name = top;
pos = (928,2304);
}
);
background = {
shapes = (
{
closed = 1;
nodes = (
(688,0,l),
(688,1604,l),
(956,1604,ls),
(1120,1604,o),
(1216,1512,o),
(1216,1364,cs),
(1216,1212,o),
(1120,1116,o),
(956,1116,cs),
(424,1116,l),
(424,724,l),
(904,724,l),
(1268,0,l),
(1872,0,l),
(1456,808,l),
(1660,916,o),
(1800,1108,o),
(1800,1376,cs),
(1800,1800,o),
(1508,2048,o),
(1004,2048,cs),
(132,2048,l,{
name = hr00;
}),
(132,0,l)
);
}
);
};
guides = (
{
pos = (-136,1552);
},
{
angle = 90;
pos = (1296,0);
},
{
orientation = center;
angle = 90;
pos = (692,220);
}
);
layerId = "5C20EF92-B63D-42A8-8878-93C2863E0093";
shapes = (
{
closed = 1;
nodes = (
(688,0,l),
(688,1604,l),
(884,1604,ls),
(1079,1604,o),
(1196,1528,o),
(1196,1352,cs),
(1196,1177,o),
(1079,1108,o),
(884,1108,cs),
(468,1108,l),
(468,676,l),
(996,676,ls),
(1463,676,o),
(1776,911,o),
(1776,1352,cs),
(1776,1788,o),
(1471,2048,o),
(1016,2048,cs),
(132,2048,l),
(132,0,l)
);
},
{
closed = 1;
nodes = (
(740,940,l),
(1240,0,l),
(1844,0,l),
(1332,940,l)
);
}
);
width = 1880;
},
{
anchors = (
{
name = bottom;
pos = (856,0);
},
{
name = top;
pos = (828,2304);
}
);
layerId = "B1F27B51-9973-4381-9301-4FE46FE1CA59";
shapes = (
{
closed = 1;
nodes = (
(352,0,l),
(352,1984,l),
(888,1984,ls),
(1195,1984,o),
(1412,1778,o),
(1412,1464,cs),
(1412,1152,o),
(1195,948,o),
(888,948,cs),
(320,948,l),
(320,884,l),
(888,884,ls),
(1232,884,o),
(1476,1115,o),
(1476,1464,cs),
(1476,1815,o),
(1232,2048,o),
(888,2048,cs),
(288,2048,l),
(288,0,l)
);
},
{
closed = 1;
nodes = (
(996,932,l),
(1500,0,l),
(1572,0,l),
(1068,932,l)
);
}
);
width = 1668;
},
{
anchors = (
{
name = bottom;
pos = (906,0);
},
{
name = top;
pos = (870,2304);
}
);
layerId = "CD0E3B44-F66A-4791-B84C-A1128DC61275";
shapes = (
{
closed = 1;
nodes = (
(480,0,l),
(480,1822,l),
(912,1822,ls),
(1240,1822,o),
(1368,1662,o),
(1368,1418,cs),
(1368,1174,o),
(1240,1026,o),
(914,1026,cs),
(366,1026,l),
(366,796,l),
(926,796,ls),
(1402,796,o),
(1620,1054,o),
(1620,1418,cs),
(1620,1782,o),
(1402,2048,o),
(922,2048,cs),
(226,2048,l),
(226,0,l)
);
},
{
closed = 1;
nodes = (
(908,920,l),
(1404,0,l),
(1700,0,l),
(1196,920,l)
);
}
);
width = 1762;
}
);
metricLeft = H;
unicode = 82;
userData = {
com.typemytype.robofont.guideline.magnetic.vulxOItvKZ = 5;
"interface.width-adjustments" = (
-16
);
};
}
{
color = (219,235,247,1);
glyphname = X;
kernLeft = X;
kernRight = X;
layers = (
{
anchors = (
{
name = _symbol;
pos = (1074,1024);
},
{
name = bottom;
pos = (1072,-8);
},
{
name = cross;
pos = (1072,1024);
},
{
name = cyrtic;
pos = (1960,224);
},
{
name = right;
pos = (1776,0);
},
{
name = top;
pos = (1072,2304);
}
);
guides = (
{
orientation = center;
angle = 90;
pos = (848,2152);
},
{
angle = 90;
pos = (-52,2084);
},
{
angle = 90;
pos = (1748,2080);
},
{
orientation = center;
pos = (1008,1024);
}
);
layerId = "5C20EF92-B63D-42A8-8878-93C2863E0093";
shapes = (
{
closed = 1;
nodes = (
(104,2048,l),
(712,1024,l),
(84,0,l),
(716,0,l),
(1064,608,l),
(1080,608,l),
(1428,0,l),
(2064,0,l),
(1428,1024,l),
(2040,2048,l),
(1420,2048,l),
(1080,1452,l),
(1064,1452,l),
(728,2048,l)
);
}
);
width = 2148;
},
{
anchors = (
{
name = _symbol;
pos = (792,1024);
},
{
name = bottom;
pos = (792,16);
},
{
name = cross;
pos = (792,1024);
},
{
name = cyrtic;
pos = (1516,8);
},
{
name = right;
pos = (1452,0);
},
{
name = top;
pos = (792,2304);
}
);
layerId = "B1F27B51-9973-4381-9301-4FE46FE1CA59";
shapes = (
{
closed = 1;
nodes = (
(64,2048,l),
(752,1024,l),
(64,0,l),
(144,0,l),
(788,964,l),
(796,964,l),
(1440,0,l),
(1520,0,l),
(832,1024,l),
(1520,2048,l),
(1440,2048,l),
(796,1084,l),
(788,1084,l),
(144,2048,l)
);
}
);
width = 1584;
},
{
anchors = (
{
name = _symbol;
pos = (800,1024);
},
{
name = bottom;
pos = (804,32);
},
{
name = cross;
pos = (800,1024);
},
{
name = cyrtic;
pos = (1524,8);
},
{
name = right;
pos = (1420,0);
},
{
name = top;
pos = (804,2380);
}
);
associatedMasterId = "B1F27B51-9973-4381-9301-4FE46FE1CA59";
background = {
shapes = (
{
closed = 1;
nodes = (
(60,2048,l),
(752,1024,l),
(72,0,l),
(160,0,l),
(796,972,l),
(812,972,l),
(1448,0,l),
(1532,0,l),
(884,1024,l),
(1548,2048,l),
(1452,2048,l),
(812,1044,l),
(796,1044,l),
(152,2048,l)
);
}
);
};
layerId = "E8D82951-B715-498B-B293-BF1B194F0E0C";
name = "Nov 25 18, 14:33";
shapes = (
{
closed = 0;
nodes = (
(88,2084,l),
(1512,-36,l)
);
},
{
closed = 0;
nodes = (
(1512,2084,l),
(88,-36,l)
);
}
);
width = 1600;
},
{
anchors = (
{
name = _symbol;
pos = (800,1024);
},
{
name = bottom;
pos = (804,32);
},
{
name = cross;
pos = (800,1024);
},
{
name = cyrtic;
pos = (1524,8);
},
{
name = right;
pos = (1420,0);
},
{
name = top;
pos = (804,2380);
}
);
associatedMasterId = "B1F27B51-9973-4381-9301-4FE46FE1CA59";
background = {
shapes = (
{
closed = 1;
nodes = (
(60,2048,l),
(752,1024,l),
(72,0,l),
(160,0,l),
(796,972,l),
(812,972,l),
(1448,0,l),
(1532,0,l),
(884,1024,l),
(1548,2048,l),
(1452,2048,l),
(812,1044,l),
(796,1044,l),
(152,2048,l)
);
}
);
};
layerId = "46A46977-E9DE-4073-9A61-A08C35965B24";
name = "Nov 25 18, 14:35";
shapes = (
{
closed = 1;
nodes = (
(1528,0,l),
(152,2048,l),
(72,2048,l),
(1448,0,l)
);
},
{
closed = 1;
nodes = (
(152,0,l),
(1528,2048,l),
(1448,2048,l),
(72,0,l)
);
},
{
closed = 1;
nodes = (
(792,960,l),
(808,960,l),
(808,1088,l),
(792,1088,l)
);
}
);
width = 1600;
},
{
anchors = (
{
name = _symbol;
pos = (886,1024);
},
{
name = bottom;
pos = (886,16);
},
{
name = cross;
pos = (886,1024);
},
{
name = cyrtic;
pos = (1672,92);
},
{
name = right;
pos = (1536,0);
},
{
name = top;
pos = (886,2304);
}
);
layerId = "CD0E3B44-F66A-4791-B84C-A1128DC61275";
shapes = (
{
closed = 1;
nodes = (
(54,2048,l),
(714,1024,l),
(54,0,l),
(354,0,l),
(878,830,l),
(894,830,l),
(1418,0,l),
(1718,0,l),
(1074,1024,l),
(1718,2048,l),
(1418,2048,l),
(894,1202,l),
(878,1202,l),
(356,2048,l)
);
}
);
width = 1772;
}
);
note = "recipe: offset curve 32, no auto";
unicode = 88;
userData = {
com.typemytype.robofont.guideline.magnetic.1jwe8yH4eD = 5;
com.typemytype.robofont.guideline.magnetic.AJAcp0DKEy = 5;
com.typemytype.robofont.guideline.magnetic.QFtArEHSdm = 5;
com.typemytype.robofont.guideline.magnetic.TR4vAYYyfi = 5;
com.typemytype.robofont.guideline.magnetic.nnmV4p3je2 = 5;
"interface.width-adjustments" = (
-16
);
};
}
{
glyphname = backslash;
kernLeft = V;
kernRight = A;
layers = (
{
layerId = "5C20EF92-B63D-42A8-8878-93C2863E0093";
metricLeft = "=|slash";
metricRight = "=|slash";
shapes = (
{
closed = 1;
nodes = (
(1144,-308,l),
(484,2144,l),
(16,2144,l),
(676,-308,l)
);
}
);
width = 1160;
},
{
layerId = "B1F27B51-9973-4381-9301-4FE46FE1CA59";
metricLeft = "=|slash";
metricRight = "=|slash";
shapes = (
{
closed = 1;
nodes = (
(786,-308,l),
(126,2144,l),
(58,2144,l),
(718,-308,l)
);
}
);
width = 846;
},
{
associatedMasterId = "CD0E3B44-F66A-4791-B84C-A1128DC61275";
layerId = "50DC3EDC-1DD0-4C4E-ABC5-3163784AD93F";
shapes = (
{
closed = 1;
nodes = (
(914,-308,l),
(254,2144,l),
(32,2144,l),
(692,-308,l)
);
}
);
width = 944.21887;
},
{
layerId = "CD0E3B44-F66A-4791-B84C-A1128DC61275";
shapes = (
{
closed = 1;
nodes = (
(924,-308,l),
(264,2144,l),
(42,2144,l),
(702,-308,l)
);
}
);
width = 966;
}
);
unicode = 92;
userData = {
"interface.width-adjustments" = (
-16
);
};
}
{
glyphname = underscore;
layers = (
{
anchors = (
{
name = _bottom;
pos = (696,172);
}
);
guides = (
{
orientation = center;
angle = 90;
pos = (732,132);
}
);
layerId = "5C20EF92-B63D-42A8-8878-93C2863E0093";
shapes = (
{
closed = 1;
nodes = (
(0,0,l),
(0,-392,l),
(1388,-392,l),
(1388,0,l)
);
}
);
width = 1388;
},
{
anchors = (
{
name = _bottom;
pos = (564,244);
}
);
layerId = "B1F27B51-9973-4381-9301-4FE46FE1CA59";
shapes = (
{
closed = 1;
nodes = (
(-40,0,l),
(-40,-64,l),
(1176,-64,l),
(1176,0,l)
);
}
);
width = 1138;
},
{
anchors = (
{
name = _bottom;
pos = (602,214);
}
);
associatedMasterId = "CD0E3B44-F66A-4791-B84C-A1128DC61275";
layerId = "8EFCD3D7-6F8A-4EA7-A367-FB5BC7D755D5";
shapes = (
{
closed = 1;
nodes = (
(-36,0,l),
(-36,-224,l),
(1246,-224,l),
(1246,0,l)
);
}
);
width = 1211.23774;
},
{
anchors = (
{
name = _bottom;
pos = (612,214);
}
);
layerId = "CD0E3B44-F66A-4791-B84C-A1128DC61275";
shapes = (
{
closed = 1;
nodes = (
(-26,0,l),
(-26,-224,l),
(1256,-224,l),
(1256,0,l)
);
}
);
width = 1230;
}
);
unicode = 95;
}
{
color = (219,235,247,1);
glyphname = a;
kernLeft = a;
kernRight = a;
layers = (
{
anchors = (
{
name = bottom;
pos = (828,0);
},
{
name = ogonek;
pos = (1540,0);
},
{
name = rhalfring;
pos = (860,1792);
},
{
name = top;
pos = (848,1792);
}
);
background = {
shapes = (
{
closed = 1;
nodes = (
(768,-24,o),
(919,44,o),
(1012,216,c),
(1024,216,l),
(1024,0,l),
(1540,0,l),
(1540,1052,ls),
(1540,1336,o),
(1266,1556,o),
(844,1556,cs),
(368,1556,o),
(147,1316,o),
(128,1036,c),
(636,1036,l),
(649,1131,o),
(719,1176,o),
(824,1176,cs),
(922,1176,o),
(986,1134,o),
(988,1052,cs),
(990,960,o),
(890,931,o),
(632,912,cs),
(315,889,o),
(68,761,o),
(68,424,cs),
(68,118,o),
(274,-24,o),
(568,-24,cs)
);
},
{
closed = 1;
nodes = (
(654,324,o),
(588,370,o),
(588,456,cs),
(588,535,o),
(644,596,o),
(772,616,cs),
(860,630,o),
(934,648,o),
(992,672,c),
(992,544,ls),
(992,404,o),
(873,324,o),
(748,324,cs)
);
}
);
};
guides = (
{
pos = (-172,2280);
},
{
angle = 90;
pos = (676,1164);
}
);
layerId = "5C20EF92-B63D-42A8-8878-93C2863E0093";
shapes = (
{
closed = 1;
nodes = (
(998,929,o),
(772,922,o),
(634,914,cs),
(317,896,o),
(68,761,o),
(68,424,cs),
(68,118,o),
(274,-24,o),
(568,-24,cs),
(768,-24,o),
(919,44,o),
(1012,216,c),
(1024,216,l),
(1024,0,l),
(1540,0,l),
(1540,1052,ls),
(1540,1336,o),
(1271,1556,o),
(832,1556,cs),
(373,1556,o),
(147,1316,o),
(128,1036,c),
(636,1036,l),
(649,1131,o),
(719,1176,o),
(824,1176,cs),
(920,1176,o),
(987,1132,o),
(988,1052,cs),
(992,544,ls),
(993,404,o),
(873,324,o),
(748,324,cs),
(654,324,o),
(588,370,o),
(588,456,cs),
(588,535,o),
(644,597,o),
(732,608,cs),
(817,618,o),
(998,624,o),
(1012,624,c),
(1010,930,l)
);
}
);
width = 1664;
},
{
anchors = (
{
name = bottom;
pos = (784,0);
},
{
name = ogonek;
pos = (1468,0);
},
{
name = rhalfring;
pos = (788,1768);
},
{
name = rhotichook;
pos = (1240,896);
},
{
name = top;
pos = (784,1768);
}
);
associatedMasterId = "5C20EF92-B63D-42A8-8878-93C2863E0093";
background = {
shapes = (
{
closed = 1;
nodes = (
(908,392,o),
(792,356,o),
(716,356,cs),
(640,356,o),
(596,396,o),
(596,468,cs),
(596,604,o),
(753,619,o),
(800,628,cs),
(832,634,o),
(886,646,o),
(908,656,c),
(908,468,ls)
);
},
{
closed = 1;
nodes = (
(1468,0,l),
(1468,1052,ls),
(1468,1336,o),
(1224,1556,o),
(800,1556,cs),
(368,1556,o),
(112,1324,o),
(84,1040,c),
(600,1016,l),
(608,1112,o),
(684,1152,o),
(764,1152,cs),
(857,1152,o),
(908,1096,o),
(908,1028,cs),
(908,1024,l),
(908,956,o),
(796,948,o),
(732,944,cs),
(244,900,o),
(64,696,o),
(64,432,cs),
(64,136,o),
(288,-24,o),
(552,-24,cs),
(748,-24,o),
(874,68,o),
(932,216,c),
(944,216,l),
(944,0,l)
);
}
);
};
guides = (
{
pos = (-20,2280);
},
{
orientation = center;
angle = 90;
pos = (772,1164);
}
);
layerId = "75C5A6BE-241A-4FA2-B6E6-D098F83BCB36";
name = "Sep 26 18, 17:42";
shapes = (
{
closed = 1;
nodes = (
(748,-24,o),
(874,68,o),
(932,216,c),
(944,216,l),
(944,0,l),
(1468,0,l),
(1468,1052,ls),
(1468,1336,o),
(1224,1556,o),
(800,1556,cs),
(368,1556,o),
(115,1326,o),
(84,1036,c),
(600,1036,l),
(608,1123,o),
(684,1168,o),
(764,1168,cs),
(849,1168,o),
(908,1122,o),
(908,1044,c),
(732,920,l),
(245,885,o),
(64,696,o),
(64,432,cs),
(64,136,o),
(288,-24,o),
(552,-24,cs)
);
},
{
closed = 1;
nodes = (
(640,356,o),
(596,396,o),
(596,468,cs),
(596,604,o),
(753,619,o),
(800,628,cs),
(832,634,o),
(886,646,o),
(908,656,c),
(908,468,ls),
(908,392,o),
(792,356,o),
(716,356,cs)
);
}
);
width = 1580;
},
{
anchors = (
{
name = bottom;
pos = (844,0);
},
{
name = ogonek;
pos = (1564,0);
},
{
name = rhalfring;
pos = (876,1768);
},
{
name = rhotichook;
pos = (1336,896);
},
{
name = top;
pos = (840,1768);
}
);
associatedMasterId = "5C20EF92-B63D-42A8-8878-93C2863E0093";
background = {
shapes = (
{
closed = 1;
nodes = (
(1592,0,l),
(1592,24,l),
(1548,55,o),
(1540,123,o),
(1540,252,cs),
(1540,1004,ls),
(1540,1204,o),
(1466,1359,o),
(1316,1456,cs),
(1207,1527,o),
(1066,1556,o),
(848,1556,cs),
(396,1556,o),
(176,1310,o),
(164,1012,c),
(668,1012,l),
(683,1122,o),
(742,1193,o),
(860,1192,cs),
(973,1191,o),
(1010,1131,o),
(1012,1048,cs),
(1014,954,o),
(928,915,o),
(624,880,cs),
(348,848,o),
(103,749,o),
(104,416,cs),
(105,120,o),
(306,-38,o),
(584,-36,cs),
(768,-35,o),
(920,28,o),
(1016,168,c),
(1020,168,l),
(1032,85,o),
(1049,38,o),
(1068,0,c)
);
},
{
closed = 1;
nodes = (
(694,297,o),
(615,339,o),
(616,440,cs),
(617,528,o),
(663,575,o),
(820,612,cs),
(908,633,o),
(973,655,o),
(1024,680,c),
(1024,548,ls),
(1024,368,o),
(906,295,o),
(784,296,cs)
);
}
);
};
guides = (
{
pos = (-8,2280);
},
{
orientation = center;
angle = 90;
pos = (788,1164);
}
);
layerId = "00CCD84C-41A0-43E6-8172-881975B0E843";
name = "Sep 30 18, 11:59";
shapes = (
{
closed = 1;
nodes = (
(775,-24,o),
(944,53,o),
(1028,216,c),
(1040,216,l),
(1040,0,l),
(1556,0,l),
(1556,1052,ls),
(1554,1336,o),
(1282,1556,o),
(860,1556,cs),
(410,1556,o),
(162,1316,o),
(120,1036,c),
(636,1036,l),
(650,1132,o),
(734,1168,o),
(824,1168,cs),
(934,1168,o),
(1010,1120,o),
(1012,1044,c),
(748,920,l),
(266,890,o),
(70,720,o),
(68,448,cs),
(66,157,o),
(290,-24,o),
(584,-24,cs)
);
},
{
closed = 1;
nodes = (
(670,356,o),
(610,396,o),
(612,468,cs),
(610,561,o),
(710,616,o),
(852,632,cs),
(886,636,o),
(986,648,o),
(1008,656,c),
(1008,528,ls),
(1006,435,o),
(901,356,o),
(764,356,cs)
);
}
);
width = 1680;
},
{
anchors = (
{
name = bottom;
pos = (844,0);
},
{
name = ogonek;
pos = (1564,0);
},
{
name = rhalfring;
pos = (876,1768);
},
{
name = rhotichook;
pos = (1336,896);
},
{
name = top;
pos = (840,1768);
}
);
associatedMasterId = "5C20EF92-B63D-42A8-8878-93C2863E0093";
background = {
shapes = (
{
closed = 1;
nodes = (
(1576,0,l),
(1576,24,l),
(1532,55,o),
(1524,123,o),
(1524,252,cs),
(1524,1004,ls),
(1524,1204,o),
(1450,1359,o),
(1300,1456,cs),
(1191,1527,o),
(1050,1556,o),
(832,1556,cs),
(380,1556,o),
(160,1310,o),
(148,1012,c),
(652,1012,l),
(667,1122,o),
(726,1193,o),
(844,1192,cs),
(957,1191,o),
(994,1131,o),
(996,1048,cs),
(998,954,o),
(912,915,o),
(608,880,cs),
(332,848,o),
(87,749,o),
(88,416,cs),
(89,120,o),
(290,-38,o),
(568,-36,cs),
(752,-35,o),
(904,28,o),
(1000,168,c),
(1004,168,l),
(1016,85,o),
(1033,38,o),
(1052,0,c)
);
},
{
closed = 1;
nodes = (
(678,297,o),
(599,339,o),
(600,440,cs),
(601,528,o),
(647,575,o),
(804,612,cs),
(892,633,o),
(957,655,o),
(1008,680,c),
(1008,548,ls),
(1008,368,o),
(890,295,o),
(768,296,cs)
);
}
);
};
guides = (
{
pos = (-8,2280);
},
{
orientation = center;
angle = 90;
pos = (788,1164);
}
);
layerId = "2CDF9812-AD29-48AE-8B76-BD52A242888B";
name = "Sep 30 18, 12:14";
shapes = (
{
closed = 1;
nodes = (
(784,-24,o),
(935,44,o),
(1028,216,c),
(1040,216,l),
(1040,0,l),
(1556,0,l),
(1556,1052,ls),
(1556,1336,o),
(1282,1556,o),
(860,1556,cs),
(410,1556,o),
(186,1316,o),
(144,1036,c),
(652,1036,l),
(665,1131,o),
(729,1188,o),
(840,1188,cs),
(947,1188,o),
(994,1134,o),
(996,1052,c),
(648,892,l),
(332,854,o),
(84,761,o),
(84,424,cs),
(84,118,o),
(290,-24,o),
(584,-24,cs)
);
},
{
closed = 1;
nodes = (
(670,316,o),
(604,358,o),
(604,444,cs),
(604,532,o),
(660,580,o),
(808,616,cs),
(890,636,o),
(954,655,o),
(1008,680,c),
(1008,552,ls),
(1008,399,o),
(898,316,o),
(764,316,cs)
);
}
);
width = 1680;
},
{
anchors = (
{
name = bottom;
pos = (732,0);
},
{
name = ogonek;
pos = (1212,0);
},
{
name = rhalfring;
pos = (732,1792);
},
{
name = top;
pos = (728,1792);
}
);
guides = (
{
angle = 90;
pos = (612,2200);
}
);
layerId = "B1F27B51-9973-4381-9301-4FE46FE1CA59";
shapes = (
{
closed = 1;
nodes = (
(1157,911,o),
(830,885,o),
(696,874,cs),
(264,839,o),
(156,624,o),
(156,416,cs),
(156,128,o),
(372,-32,o),
(624,-32,cs),
(856,-32,o),
(1044,104,o),
(1140,312,c),
(1148,312,l),
(1148,0,l),
(1212,0,l),
(1212,1104,ls),
(1212,1364,o),
(1020,1560,o),
(712,1560,cs),
(451,1560,o),
(232,1428,o),
(194,1204,c),
(260,1204,l),
(302,1394,o),
(490,1496,o),
(712,1496,cs),
(974,1496,o),
(1148,1340,o),
(1148,1104,cs),
(1148,656,ls),
(1148,284,o),
(916,32,o),
(624,32,cs),
(396,32,o),
(220,184,o),
(220,416,cs),
(220,612,o),
(327,784,o),
(720,814,cs),
(824,822,o),
(1158,849,o),
(1172,850,c),
(1170,912,l)
);
}
);
width = 1460;
},
{
anchors = (
{
name = bottom;
pos = (796,0);
},
{
name = ogonek;
pos = (1272,0);
},
{
name = rhalfring;
pos = (772,1808);
},
{
name = rhotichook;
pos = (1256,916);
},
{
name = top;
pos = (808,1808);
}
);
associatedMasterId = "B1F27B51-9973-4381-9301-4FE46FE1CA59";
background = {
shapes = (
{
closed = 1;
nodes = (
(1037,-43,o),
(1170,146,o),
(1192,204,c),
(1204,204,l),
(1204,0,l),
(1272,0,l),
(1272,988,ls),
(1271,1598,o),
(840,1556,o),
(780,1556,cs),
(694,1556,o),
(405,1572,o),
(224,1292,c),
(280,1164,l),
(353,1286,o),
(508,1451,o),
(804,1452,cs),
(1096,1451,o),
(1226,1289,o),
(1224,1020,cs),
(1224,893,o),
(1098,920,o),
(804,876,cs),
(539,828,o),
(190,804,o),
(192,444,cs),
(190,147,o),
(437,-43,o),
(728,-44,cs)
);
},
{
closed = 1;
nodes = (
(433,87,o),
(255,194,o),
(256,404,cs),
(255,645,o),
(484,698,o),
(704,724,cs),
(809,736,o),
(1193,770,o),
(1224,832,c),
(1224,564,ls),
(1222,340,o),
(1051,87,o),
(680,88,cs)
);
}
);
};
layerId = "C048B457-D40C-4F93-8CFB-4D7997732505";
name = "Nov 25 18, 18:14";
shapes = (
{
closed = 0;
nodes = (
(1240,0,l),
(1240,1060,l),
(1240,1330,o),
(1030,1445,o),
(784,1444,c),
(540,1445,o),
(355,1330,o),
(288,1152,c)
);
},
{
closed = 0;
nodes = (
(1240,1000,l),
(1240,860,o),
(1055,821,o),
(740,784,c),
(425,749,o),
(250,640,o),
(248,432,c),
(250,220,o),
(440,70,o),
(676,72,c),
(910,70,o),
(1240,180,o),
(1240,656,c)
);
}
);
width = 1542;
},
{
anchors = (
{
name = bottom;
pos = (764,0);
},
{
name = ogonek;
pos = (1244,0);
},
{
name = rhalfring;
pos = (764,1792);
},
{
name = rhotichook;
pos = (1228,916);
},
{
name = top;
pos = (760,1792);
}
);
associatedMasterId = "B1F27B51-9973-4381-9301-4FE46FE1CA59";
layerId = "937F9D9A-E5DA-440F-B0FC-EFB5D457015F";
name = "Nov 26 18, 08:24";
shapes = (
{
closed = 1;
nodes = (
(354,1394,o),
(529,1497,o),
(744,1496,cs),
(1009,1495,o),
(1180,1339,o),
(1180,1104,cs),
(1180,0,l),
(1244,0,l),
(1244,1104,ls),
(1244,1362,o),
(1056,1561,o),
(744,1560,cs),
(504,1559,o),
(302,1440,o),
(232,1248,c),
(292,1224,l)
);
},
{
closed = 1;
nodes = (
(1001,-32,o),
(1244,265,o),
(1244,656,c),
(1180,656,l),
(1180,283,o),
(948,32,o),
(656,32,cs),
(429,32,o),
(252,185,o),
(252,416,cs),
(252,613,o),
(378,736,o),
(792,784,cs),
(1069,816,o),
(1244,865,o),
(1244,1012,c),
(1180,1012,l),
(1180,893,o),
(980,869,o),
(768,844,cs),
(295,788,o),
(188,623,o),
(188,416,cs),
(188,129,o),
(403,-32,o),
(656,-32,cs)
);
},
{
closed = 1;
nodes = (
(1164,312,l),
(1192,312,l),
(1192,352,l),
(1164,352,l)
);
}
);
width = 1524;
},
{
anchors = (
{
name = bottom;
pos = (732,0);
},
{
name = ogonek;
pos = (1212,0);
},
{
name = rhalfring;
pos = (732,1792);
},
{
name = top;
pos = (728,1792);
}
);
associatedMasterId = "B1F27B51-9973-4381-9301-4FE46FE1CA59";
guides = (
{
angle = 90;
pos = (612,2200);
}
);
layerId = "3B598407-7949-4D84-80E3-06414ED534C5";
name = "May 15, 21 16:46";
shapes = (
{
closed = 1;
nodes = (
(856,-32,o),
(1044,104,o),
(1140,312,c),
(1148,312,l),
(1148,0,l),
(1212,0,l),
(1212,1104,ls),
(1212,1364,o),
(1024,1560,o),
(712,1560,cs),
(472,1560,o),
(272,1440,o),
(200,1248,c),
(260,1224,l),
(324,1396,o),
(496,1496,o),
(712,1496,cs),
(976,1496,o),
(1148,1340,o),
(1148,1104,cs),
(1148,1012,ls),
(1148,892,o),
(948,868,o),
(736,844,cs),
(264,788,o),
(156,624,o),
(156,416,cs),
(156,128,o),
(372,-32,o),
(624,-32,cs)
);
},
{
closed = 1;
nodes = (
(396,32,o),
(220,184,o),
(220,416,cs),
(220,612,o),
(348,736,o),
(760,784,cs),
(936,804,o),
(1072,832,o),
(1148,888,c),
(1148,656,ls),
(1148,284,o),
(916,32,o),
(624,32,cs)
);
}
);
width = 1460;
},
{
anchors = (
{
name = bottom;
pos = (852,0);
},
{
name = ogonek;
pos = (1564,0);
},
{
name = rhalfring;
pos = (884,1792);
},
{
name = top;
pos = (872,1792);
}
);
associatedMasterId = "5C20EF92-B63D-42A8-8878-93C2863E0093";
background = {
shapes = (
{
closed = 1;
nodes = (
(768,-24,o),
(919,44,o),
(1012,216,c),
(1024,216,l),
(1024,0,l),
(1540,0,l),
(1540,1052,ls),
(1540,1336,o),
(1266,1556,o),
(844,1556,cs),
(368,1556,o),
(147,1316,o),
(128,1036,c),
(636,1036,l),
(649,1131,o),
(719,1176,o),
(824,1176,cs),
(922,1176,o),
(986,1134,o),
(988,1052,cs),
(990,960,o),
(890,931,o),
(632,912,cs),
(315,889,o),
(68,761,o),
(68,424,cs),
(68,118,o),
(274,-24,o),
(568,-24,cs)
);
},
{
closed = 1;
nodes = (
(654,324,o),
(588,370,o),
(588,456,cs),
(588,535,o),
(644,596,o),
(772,616,cs),
(860,630,o),
(934,648,o),
(992,672,c),
(992,544,ls),
(992,404,o),
(873,324,o),
(748,324,cs)
);
}
);
};
guides = (
{
pos = (16,2280);
},
{
angle = 90;
pos = (864,1164);
}
);
layerId = "9352FEB7-A7A5-44DC-AC5D-E50E83326E4B";
name = "May 15, 21 16:46";
shapes = (
{
closed = 1;
nodes = (
(792,-24,o),
(943,44,o),
(1036,216,c),
(1048,216,l),
(1048,0,l),
(1564,0,l),
(1564,1052,ls),
(1564,1336,o),
(1295,1556,o),
(856,1556,cs),
(397,1556,o),
(171,1316,o),
(152,1036,c),
(660,1036,l),
(673,1131,o),
(743,1176,o),
(848,1176,cs),
(944,1176,o),
(1012,1132,o),
(1012,1052,cs),
(1012,1048,ls),
(1012,959,o),
(914,931,o),
(656,912,cs),
(339,889,o),
(92,761,o),
(92,424,cs),
(92,118,o),
(298,-24,o),
(592,-24,cs)
);
},
{
closed = 1;
nodes = (
(678,324,o),
(612,370,o),
(612,456,cs),
(612,535,o),
(668,596,o),
(796,616,cs),
(884,630,o),
(958,648,o),
(1016,672,c),
(1016,544,ls),
(1016,404,o),
(897,324,o),
(772,324,cs)
);
}
);
width = 1712;
},
{
anchors = (
{
name = bottom;
pos = (790,0);
},
{
name = ogonek;
pos = (1358,0);
},
{
name = rhalfring;
pos = (788,1792);
},
{
name = top;
pos = (802,1792);
}
);
layerId = "CD0E3B44-F66A-4791-B84C-A1128DC61275";
shapes = (
{
closed = 1;
nodes = (
(1108,912,o),
(810,896,o),
(698,888,cs),
(432,868,o),
(122,788,o),
(122,436,cs),
(122,136,o),
(354,-36,o),
(646,-36,cs),
(912,-36,o),
(1052,106,o),
(1102,208,c),
(1114,208,l),
(1114,0,l),
(1356,0,l),
(1356,1012,ls),
(1356,1496,o),
(978,1556,o),
(778,1556,cs),
(438,1556,o),
(198,1384,o),
(168,1136,c),
(420,1136,l),
(456,1254,o),
(572,1344,o),
(766,1344,cs),
(998,1344,o),
(1114,1230,o),
(1114,1036,cs),
(1114,556,ls),
(1114,364,o),
(962,180,o),
(686,180,cs),
(500,180,o),
(366,262,o),
(366,424,cs),
(366,592,o),
(506,670,o),
(728,684,cs),
(812,690,o),
(1118,712,o),
(1134,712,c),
(1130,912,l)
);
}
);
width = 1550;
},
{
anchors = (
{
name = bottom;
pos = (828,0);
},
{
name = ogonek;
pos = (1540,0);
},
{
name = rhalfring;
pos = (860,1792);
},
{
name = top;
pos = (848,1792);
}
);
associatedMasterId = "5C20EF92-B63D-42A8-8878-93C2863E0093";
background = {
shapes = (
{
closed = 1;
nodes = (
(768,-24,o),
(919,44,o),
(1012,216,c),
(1024,216,l),
(1024,0,l),
(1540,0,l),
(1540,1052,ls),
(1540,1336,o),
(1266,1556,o),
(844,1556,cs),
(368,1556,o),
(147,1316,o),
(128,1036,c),
(636,1036,l),
(649,1131,o),
(719,1176,o),
(824,1176,cs),
(922,1176,o),
(986,1134,o),
(988,1052,cs),
(990,960,o),
(890,931,o),
(632,912,cs),
(315,889,o),
(68,761,o),
(68,424,cs),
(68,118,o),
(274,-24,o),
(568,-24,cs)
);
},
{
closed = 1;
nodes = (
(654,324,o),
(588,370,o),
(588,456,cs),
(588,535,o),
(644,596,o),
(772,616,cs),
(860,630,o),
(934,648,o),
(992,672,c),
(992,544,ls),
(992,404,o),
(873,324,o),
(748,324,cs)
);
}
);
};
guides = (
{
pos = (-172,2280);
},
{
angle = 90;
pos = (676,1164);
}
);
layerId = "8C1E13FF-4CA6-478B-AF79-D58420138A29";
name = "Jun 15, 21 1:46";
shapes = (
{
closed = 1;
nodes = (
(998,929,o),
(772,922,o),
(634,914,cs),
(317,896,o),
(68,761,o),
(68,424,cs),
(68,118,o),
(274,-24,o),
(568,-24,cs),
(768,-24,o),
(919,44,o),
(1012,216,c),
(1024,216,l),
(1024,0,l),
(1540,0,l),
(1540,1052,ls),
(1540,1336,o),
(1271,1556,o),
(832,1556,cs),
(373,1556,o),
(147,1316,o),
(128,1036,c),
(636,1036,l),
(649,1131,o),
(719,1176,o),
(824,1176,cs),
(920,1176,o),
(987,1132,o),
(988,1052,cs),
(992,544,ls),
(993,404,o),
(873,324,o),
(748,324,cs),
(654,324,o),
(588,370,o),
(588,456,cs),
(588,535,o),
(644,597,o),
(732,608,cs),
(817,618,o),
(998,634,o),
(1012,634,c),
(1010,930,l)
);
}
);
width = 1664;
}
);
unicode = 97;
userData = {
com.typemytype.robofont.guideline.magnetic.bPqRSFRUb5 = 5;
"interface.width-adjustments" = (
-16
);
};
}
{
color = (219,235,247,1);
glyphname = e;
kernLeft = c;
kernRight = e;
layers = (
{
anchors = (
{
name = bottom;
pos = (856,0);
},
{
name = cedilla;
pos = (864,0);
},
{
name = ogonek;
pos = (1316,68);
},
{
name = top;
pos = (856,1792);
}
);
background = {
shapes = (
{
pos = (-8,0);
ref = o;
}
);
};
guides = (
{
orientation = center;
angle = 90;
pos = (700,1004);
},
{
pos = (584,768);
}
);
layerId = "5C20EF92-B63D-42A8-8878-93C2863E0093";
shapes = (
{
closed = 1;
nodes = (
(1302,-28,o),
(1576,176,o),
(1628,496,c),
(1124,496,l),
(1092,409,o),
(1001,360,o),
(888,360,cs),
(724,360,o),
(628,468,o),
(628,616,c),
(628,944,l),
(631,1077,o),
(741,1168,o),
(876,1168,cs),
(1013,1168,o),
(1117,1076,o),
(1120,944,c),
(256,944,l),
(256,640,l),
(1628,640,l),
(1628,768,ls),
(1628,1257,o),
(1328,1556,o),
(864,1556,cs),
(388,1556,o),
(84,1240,o),
(84,764,c),
(84,267,o),
(384,-28,o),
(876,-28,c)
);
}
);
width = 1712;
},
{
anchors = (
{
name = bottom;
pos = (780,0);
},
{
name = cedilla;
pos = (784,0);
},
{
name = ogonek;
pos = (848,0);
},
{
name = top;
pos = (780,1792);
}
);
layerId = "B1F27B51-9973-4381-9301-4FE46FE1CA59";
shapes = (
{
closed = 1;
nodes = (
(1115,-32,o),
(1306,160,o),
(1366,316,c),
(1296,316,l),
(1246,216,o),
(1099,32,o),
(816,32,cs),
(429,32,o),
(212,369,o),
(212,772,cs),
(212,780,ls),
(212,1188,o),
(468,1496,o),
(784,1496,cs),
(1095,1496,o),
(1348,1201,o),
(1348,832,c),
(180,832,l),
(180,768,l),
(1412,768,l),
(1412,832,ls),
(1412,1229,o),
(1141,1560,o),
(784,1560,cs),
(421,1560,o),
(148,1216,o),
(148,764,cs),
(148,312,o),
(413,-32,o),
(816,-32,cs)
);
}
);
width = 1560;
},
{
anchors = (
{
name = bottom;
pos = (880,0);
},
{
name = cedilla;
pos = (888,0);
},
{
name = ogonek;
pos = (1340,68);
},
{
name = top;
pos = (880,1792);
}
);
associatedMasterId = "5C20EF92-B63D-42A8-8878-93C2863E0093";
background = {
shapes = (
{
pos = (-8,0);
ref = o;
}
);
};
guides = (
{
orientation = center;
angle = 90;
pos = (888,1004);
},
{
pos = (772,768);
}
);
layerId = "ECC9CCE6-A24E-47DA-950A-5FB568B48F01";
name = "May 15, 21 16:48";
shapes = (
{
closed = 1;
nodes = (
(1326,-28,o),
(1600,176,o),
(1652,496,c),
(1148,496,l),
(1116,409,o),
(1025,360,o),
(912,360,cs),
(748,360,o),
(652,468,o),
(652,616,c),
(652,944,l),
(655,1077,o),
(765,1168,o),
(900,1168,cs),
(1037,1168,o),
(1141,1076,o),
(1144,944,c),
(280,944,l),
(280,640,l),
(1652,640,l),
(1652,768,ls),
(1652,1257,o),
(1352,1556,o),
(888,1556,cs),
(412,1556,o),
(108,1240,o),
(108,764,c),
(108,267,o),
(408,-28,o),
(900,-28,c)
);
}
);
width = 1760;
},
{
anchors = (
{
name = bottom;
pos = (780,0);
},
{
name = cedilla;
pos = (784,0);
},
{
name = ogonek;
pos = (848,0);
},
{
name = top;
pos = (780,1792);
}
);
associatedMasterId = "B1F27B51-9973-4381-9301-4FE46FE1CA59";
layerId = "9B5AFE77-5CBD-4A9E-9912-BD891F16B491";
name = "May 15, 21 16:48";
shapes = (
{
closed = 1;
nodes = (
(1115,-32,o),
(1280,156,o),
(1348,272,c),
(1296,308,l),
(1240,216,o),
(1099,32,o),
(816,32,cs),
(429,32,o),
(212,369,o),
(212,772,cs),
(212,780,ls),
(220,1188,o),
(468,1496,o),
(784,1496,cs),
(1095,1496,o),
(1348,1201,o),
(1348,832,c),
(180,832,l),
(180,768,l),
(1412,768,l),
(1412,832,ls),
(1412,1229,o),
(1141,1560,o),
(784,1560,cs),
(421,1560,o),
(148,1216,o),
(148,764,cs),
(148,312,o),
(413,-32,o),
(816,-32,cs)
);
}
);
width = 1560;
},
{
anchors = (
{
name = bottom;
pos = (804,0);
},
{
name = cedilla;
pos = (810,0);
},
{
name = ogonek;
pos = (1042,2);
},
{
name = top;
pos = (804,1792);
}
);
layerId = "CD0E3B44-F66A-4791-B84C-A1128DC61275";
shapes = (
{
closed = 1;
nodes = (
(1156,-32,o),
(1384,126,o),
(1456,360,c),
(1196,360,l),
(1140,264,o),
(1024,184,o),
(840,184,cs),
(558,184,o),
(366,374,o),
(366,718,cs),
(366,858,ls),
(366,1108,o),
(538,1340,o),
(818,1340,c),
(1070,1340,o),
(1232,1150,o),
(1232,894,c),
(290,894,l),
(290,686,l),
(1480,686,l),
(1480,788,ls),
(1480,1358,o),
(1140,1556,o),
(816,1556,cs),
(400,1556,o),
(122,1228,o),
(122,756,cs),
(122,284,o),
(396,-32,o),
(840,-32,c)
);
}
);
width = 1602;
}
);
metricLeft = o;
unicode = 101;
userData = {
com.typemytype.robofont.guideline.magnetic.5XWlAkuiPv = 5;
"interface.width-adjustments" = (
-16
);
};
}
{
color = (219,235,247,1);
glyphname = f;
kernLeft = f;
kernRight = f;
layers = (
{
anchors = (
{
name = _symbol;
pos = (566,1072);
},
{
name = bottom;
pos = (500,0);
}
);
guides = (
{
pos = (-180,1228);
},
{
pos = (-180,256);
}
);
layerId = "5C20EF92-B63D-42A8-8878-93C2863E0093";
shapes = (
{
closed = 1;
nodes = (
(32,1536,l),
(32,1136,l),
(1060,1136,l),
(1060,1536,l)
);
},
{
pos = (-24,0);
ref = _part.f_base;
}
);
width = 1132;
},
{
anchors = (
{
name = _symbol;
pos = (434,1070);
},
{
name = bottom;
pos = (404,0);
}
);
guides = (
{
angle = 90;
pos = (300,1608);
}
);
layerId = "B1F27B51-9973-4381-9301-4FE46FE1CA59";
shapes = (
{
closed = 1;
nodes = (
(160,1536,l),
(160,1472,l),
(768,1472,l),
(768,1536,l)
);
},
{
ref = _part.f_base;
}
);
width = 868;
},
{
anchors = (
{
name = _symbol;
pos = (466,1040);
},
{
name = bottom;
pos = (392,0);
},
{
name = top;
pos = (452,2308);
}
);
associatedMasterId = "B1F27B51-9973-4381-9301-4FE46FE1CA59";
background = {
shapes = (
{
closed = 1;
nodes = (
(408,0,l,{
name = hr00;
}),
(408,1744,ls),
(407,1945,o),
(493,2044,o),
(680,2044,cs),
(765,2044,o),
(793,2023,o),
(808,2020,c),
(868,2108,l),
(849,2122,o),
(822,2144,o),
(720,2144,cs),
(570,2144,o),
(361,2043,o),
(360,1848,cs),
(360,0,l)
);
},
{
closed = 1;
nodes = (
(933,1440,o),
(1076,1583,o),
(1076,1760,cs),
(1076,1937,o),
(933,2080,o),
(756,2080,cs),
(579,2080,o),
(436,1937,o),
(436,1760,cs),
(436,1583,o),
(579,1440,o),
(756,1440,cs)
);
}
);
};
layerId = "EEC3B7B5-366D-4A2B-B0D1-EFDAE34EDF22";
name = "Nov 26 18, 09:09";
shapes = (
{
closed = 1;
nodes = (
(84,1536,l),
(84,1472,l),
(788,1472,l),
(788,1536,l)
);
},
{
closed = 0;
nodes = (
(868,2060,l),
(832,2072,o),
(796,2080,o),
(756,2080,cs),
(579,2080,o),
(436,1937,o),
(436,1760,cs),
(436,0,l)
);
}
);
width = 932;
},
{
anchors = (
{
name = _symbol;
pos = (488,1072);
},
{
name = bottom;
pos = (420,0);
}
);
layerId = "CD0E3B44-F66A-4791-B84C-A1128DC61275";
shapes = (
{
closed = 1;
nodes = (
(50,1536,l),
(50,1332,l),
(882,1332,l),
(882,1536,l)
);
},
{
alignment = -1;
ref = _part.f_base;
}
);
width = 976;
}
);
unicode = 102;
userData = {
"interface.width-adjustments" = (
-16
);
};
}
{
color = (219,235,247,1);
glyphname = h;
kernLeft = B;
kernRight = a;
layers = (
{
anchors = (
{
name = bottom;
pos = (912,0);
},
{
name = cedilla;
pos = (404,0);
},
{
name = cross;
pos = (404,1748);
},
{
name = top;
pos = (408,2304);
}
);
guides = (
{
pos = (-136,1240);
},
{
pos = (-136,764);
},
{
angle = 90;
pos = (260,1696);
}
);
layerId = "5C20EF92-B63D-42A8-8878-93C2863E0093";
shapes = (
{
closed = 1;
nodes = (
(693,1016,o),
(781,1108,o),
(916,1108,cs),
(1057,1108,o),
(1137,1016,o),
(1136,864,cs),
(1136,0,l),
(1688,0,l),
(1688,980,ls),
(1689,1316,o),
(1477,1556,o),
(1152,1556,cs),
(925,1556,o),
(757,1440,o),
(688,1244,c),
(672,1244,l),
(672,2048,l),
(140,2048,l),
(140,0,l),
(692,0,l),
(692,864,ls)
);
}
);
width = 1820;
},
{
anchors = (
{
name = bottom;
pos = (768,0);
},
{
name = cedilla;
pos = (272,-8);
},
{
name = cross;
pos = (272,1820);
},
{
name = top;
pos = (272,2304);
}
);
guides = (
{
angle = 90;
pos = (168,2460);
}
);
layerId = "B1F27B51-9973-4381-9301-4FE46FE1CA59";
shapes = (
{
closed = 1;
nodes = (
(304,1300,o),
(500,1492,o),
(772,1492,cs),
(1044,1492,o),
(1232,1304,o),
(1232,1032,cs),
(1232,0,l),
(1296,0,l),
(1296,1032,ls),
(1296,1340,o),
(1080,1556,o),
(772,1556,cs),
(560,1556,o),
(384,1452,o),
(312,1292,c),
(304,1292,l),
(304,2048,l),
(240,2048,l),
(240,0,l),
(304,0,l),
(304,1032,ls)
);
}
);
width = 1536;
},
{
anchors = (
{
name = bottom;
pos = (798,0);
},
{
name = cedilla;
pos = (330,0);
},
{
name = cross;
pos = (306,1790);
},
{
name = top;
pos = (306,2304);
}
);
associatedMasterId = "CD0E3B44-F66A-4791-B84C-A1128DC61275";
layerId = "7A39C55A-E523-4C40-A4B0-DF8DF804F2C0";
shapes = (
{
closed = 1;
nodes = (
(426,1188,o),
(596,1338,o),
(826,1338,cs),
(1046,1338,o),
(1178,1200,o),
(1178,958,cs),
(1178,0,l),
(1422,0,l),
(1422,976,ls),
(1422,1370,o),
(1212,1556,o),
(898,1556,cs),
(656,1556,o),
(518,1454,o),
(446,1294,c),
(426,1294,l),
(426,2048,l),
(182,2048,l),
(182,0,l),
(426,0,l),
(426,922,ls)
);
}
);
width = 1604.21887;
},
{
anchors = (
{
name = bottom;
pos = (810,0);
},
{
name = cedilla;
pos = (342,0);
},
{
name = cross;
pos = (318,1790);
},
{
name = top;
pos = (318,2304);
}
);
layerId = "CD0E3B44-F66A-4791-B84C-A1128DC61275";
shapes = (
{
closed = 1;
nodes = (
(438,1188,o),
(608,1338,o),
(838,1338,cs),
(1058,1338,o),
(1190,1200,o),
(1190,958,cs),
(1190,0,l),
(1434,0,l),
(1434,976,ls),
(1434,1370,o),
(1224,1556,o),
(910,1556,cs),
(668,1556,o),
(530,1454,o),
(458,1294,c),
(438,1294,l),
(438,2048,l),
(194,2048,l),
(194,0,l),
(438,0,l),
(438,922,ls)
);
}
);
width = 1628;
}
);
metricLeft = l;
metricRight = m;
note = "based on \"n\" and made slightly wider, brining the top vertical stem with it out.";
unicode = 104;
userData = {
"interface.width-adjustments" = (
-16
);
};
}
{
color = (219,235,247,1);
glyphname = l;
kernLeft = B;
kernRight = H;
layers = (
{
anchors = (
{
name = bottom;
pos = (416,0);
},
{
name = cross;
pos = (416,1056);
},
{
name = raccent;
pos = (852,2048);
},
{
name = top;
pos = (416,2304);
}
);
layerId = "5C20EF92-B63D-42A8-8878-93C2863E0093";
shapes = (
{
closed = 1;
nodes = (
(140,2048,l),
(140,0,l),
(692,0,l),
(692,2048,l)
);
}
);
width = 832;
},
{
anchors = (
{
name = bottom;
pos = (272,0);
},
{
name = cross;
pos = (272,1056);
},
{
name = raccent;
pos = (492,2048);
},
{
name = top;
pos = (272,2304);
}
);
layerId = "B1F27B51-9973-4381-9301-4FE46FE1CA59";
shapes = (
{
closed = 1;
nodes = (
(240,2048,l),
(240,0,l),
(304,0,l),
(304,2048,l)
);
}
);
width = 544;
},
{
anchors = (
{
name = bottom;
pos = (304,0);
},
{
name = cross;
pos = (304,1056);
},
{
name = raccent;
pos = (622,2048);
},
{
name = top;
pos = (302,2304);
}
);
associatedMasterId = "CD0E3B44-F66A-4791-B84C-A1128DC61275";
layerId = "DB18D20D-10F8-43AB-BAAE-F07C4EED2C6C";
shapes = (
{
closed = 1;
nodes = (
(182,2048,l),
(182,0,l),
(426,0,l),
(426,2048,l)
);
}
);
width = 608.41509;
},
{
anchors = (
{
name = bottom;
pos = (316,0);
},
{
name = cross;
pos = (316,1056);
},
{
name = raccent;
pos = (634,2048);
},
{
name = top;
pos = (314,2304);
}
);
layerId = "CD0E3B44-F66A-4791-B84C-A1128DC61275";
shapes = (
{
closed = 1;
nodes = (
(194,2048,l),
(194,0,l),
(438,0,l),
(438,2048,l)
);
}
);
width = 632;
}
);
metricLeft = h;
metricRight = l;
unicode = 108;
userData = {
"interface.width-adjustments" = (
-16
);
};
}
{
color = (219,235,247,1);
glyphname = m;
kernLeft = m;
kernRight = a;
layers = (
{
anchors = (
{
name = _symbol;
pos = (1324,778);
},
{
name = bottom;
pos = (1328,0);
},
{
name = top;
pos = (1328,1792);
}
);
background = {
shapes = (
{
pos = (12,0);
ref = n;
}
);
};
guides = (
{
orientation = center;
angle = 90;
pos = (1232,32);
}
);
layerId = "5C20EF92-B63D-42A8-8878-93C2863E0093";
shapes = (
{
closed = 1;
nodes = (
(692,0,l),
(692,896,ls),
(692,1030,o),
(762,1112,o),
(876,1112,cs),
(990,1112,o),
(1064,1030,o),
(1064,896,cs),
(1064,0,l),
(1592,0,l),
(1592,896,ls),
(1592,1030,o),
(1662,1112,o),
(1776,1112,cs),
(1890,1112,o),
(1964,1030,o),
(1964,896,cs),
(1964,0,l),
(2516,0,l),
(2516,1036,ls),
(2516,1351,o),
(2314,1556,o),
(2020,1556,cs),
(1792,1556,o),
(1608,1432,o),
(1556,1244,c),
(1540,1244,l),
(1508,1432,o),
(1336,1556,o),
(1120,1556,cs),
(907,1556,o),
(744,1436,o),
(680,1244,c),
(664,1244,l),
(664,1536,l),
(140,1536,l),
(140,0,l)
);
}
);
width = 2648;
},
{
anchors = (
{
name = _symbol;
pos = (1144,778);
},
{
name = bottom;
pos = (1144,0);
},
{
name = top;
pos = (1144,1792);
}
);
layerId = "B1F27B51-9973-4381-9301-4FE46FE1CA59";
shapes = (
{
closed = 1;
nodes = (
(304,0,l),
(304,1032,ls),
(304,1300,o),
(452,1492,o),
(724,1492,cs),
(996,1492,o),
(1112,1304,o),
(1112,1032,cs),
(1112,0,l),
(1176,0,l),
(1176,1032,ls),
(1176,1300,o),
(1324,1492,o),
(1596,1492,cs),
(1868,1492,o),
(1984,1304,o),
(1984,1032,cs),
(1984,0,l),
(2048,0,l),
(2048,1032,ls),
(2048,1340,o),
(1904,1556,o),
(1596,1556,cs),
(1364,1556,o),
(1202,1432,o),
(1152,1240,c),
(1144,1240,l),
(1092,1432,o),
(956,1556,o),
(724,1556,cs),
(520,1556,o),
(368,1457,o),
(312,1308,c),
(304,1308,l),
(304,1536,l),
(240,1536,l),
(240,0,l)
);
}
);
width = 2288;
},
{
anchors = (
{
name = _symbol;
pos = (1176,778);
},
{
name = bottom;
pos = (1172,0);
},
{
name = top;
pos = (1172,1808);
}
);
associatedMasterId = "B1F27B51-9973-4381-9301-4FE46FE1CA59";
background = {
shapes = (
{
closed = 1;
nodes = (
(316,0,l),
(316,1000,ls),
(316,1278,o),
(536,1483,o),
(764,1484,cs),
(980,1483,o),
(1136,1345,o),
(1136,1148,cs),
(1136,0,l),
(1204,0,l),
(1204,1064,ls),
(1203,1299,o),
(1360,1483,o),
(1636,1484,cs),
(1837,1483,o),
(2023,1390,o),
(2024,1108,cs),
(2024,0,l),
(2072,0,l),
(2072,1024,ls),
(2070,1412,o),
(1880,1556,o),
(1620,1556,cs),
(1403,1556,o),
(1256,1469,o),
(1160,1328,c),
(1144,1328,l),
(1042,1477,o),
(931,1556,o),
(740,1556,cs),
(545,1556,o),
(406,1474,o),
(344,1328,c),
(320,1328,l),
(320,1536,l),
(272,1536,l),
(272,0,l)
);
}
);
};
layerId = "0601DE4C-480C-46BD-9D48-C5F7A57C71CC";
name = "Nov 29 18, 20:33";
shapes = (
{
closed = 1;
nodes = (
(272,0,l),
(336,0,l),
(336,1536,l),
(272,1536,l)
);
},
{
closed = 1;
nodes = (
(336,1032,l),
(336,1300,o),
(484,1492,o),
(756,1492,cs),
(1028,1492,o),
(1144,1304,o),
(1144,1032,c),
(1200,1032,l),
(1200,1340,o),
(1064,1556,o),
(756,1556,cs),
(448,1556,o),
(288,1336,o),
(288,1032,c)
);
},
{
closed = 1;
nodes = (
(328,1280,l),
(352,1280,l),
(352,1308,l),
(328,1308,l)
);
},
{
closed = 1;
nodes = (
(1208,1032,l),
(1208,1300,o),
(1356,1492,o),
(1628,1492,cs),
(1900,1492,o),
(2016,1304,o),
(2016,1032,cs),
(2016,0,l),
(2080,0,l),
(2080,1032,ls),
(2080,1340,o),
(1936,1556,o),
(1628,1556,cs),
(1320,1556,o),
(1152,1336,o),
(1152,1032,c)
);
},
{
closed = 1;
nodes = (
(1168,1212,l),
(1192,1212,l),
(1192,1240,l),
(1168,1240,l)
);
},
{
closed = 1;
nodes = (
(1144,0,l),
(1208,0,l),
(1208,1032,l),
(1144,1032,l)
);
}
);
width = 2352;
},
{
anchors = (
{
name = _symbol;
pos = (1207,778);
},
{
name = bottom;
pos = (1206,0);
},
{
name = top;
pos = (1206,1792);
}
);
layerId = "CD0E3B44-F66A-4791-B84C-A1128DC61275";
shapes = (
{
closed = 1;
nodes = (
(438,0,l),
(438,958,ls),
(438,1182,o),
(600,1338,o),
(782,1338,cs),
(960,1338,o),
(1084,1222,o),
(1084,1048,cs),
(1084,0,l),
(1330,0,l),
(1330,998,ls),
(1330,1194,o),
(1452,1338,o),
(1666,1338,cs),
(1834,1338,o),
(1976,1250,o),
(1976,1024,cs),
(1976,0,l),
(2220,0,l),
(2220,1028,ls),
(2220,1388,o),
(2024,1556,o),
(1750,1556,cs),
(1530,1556,o),
(1368,1454,o),
(1290,1294,c),
(1274,1294,l),
(1200,1460,o),
(1064,1556,o),
(862,1556,cs),
(662,1556,o),
(514,1460,o),
(450,1294,c),
(430,1294,l),
(430,1536,l),
(194,1536,l),
(194,0,l)
);
}
);
width = 2414;
}
);
unicode = 109;
userData = {
"interface.width-adjustments" = (
-16
);
};
}
{
color = (219,235,247,1);
glyphname = q;
kernLeft = c;
kernRight = g;
layers = (
{
anchors = (
{
name = _symbol;
pos = (912,570);
},
{
name = bottom;
pos = (1404,-552);
},
{
name = cross;
pos = (1412,-224);
},
{
name = top;
pos = (824,1792);
}
);
layerId = "5C20EF92-B63D-42A8-8878-93C2863E0093";
shapes = (
{
closed = 1;
nodes = (
(1684,-576,l),
(1684,1536,l),
(1136,1536,l),
(1136,1268,l),
(1124,1268,l),
(1064,1424,o),
(920,1556,o),
(692,1556,cs),
(388,1556,o),
(92,1324,o),
(92,768,c),
(92,236,o),
(368,-20,o),
(696,-20,cs),
(912,-20,o),
(1060,96,o),
(1124,252,c),
(1132,252,l),
(1132,-576,l)
);
},
{
closed = 1;
nodes = (
(748,404,o),
(660,540,o),
(660,768,cs),
(660,996,o),
(748,1132,o),
(900,1132,cs),
(1052,1132,o),
(1144,996,o),
(1144,768,c),
(1144,544,o),
(1052,404,o),
(900,404,cs)
);
}
);
width = 1824;
},
{
anchors = (
{
name = _symbol;
pos = (786,572);
},
{
name = bottom;
pos = (1300,-576);
},
{
name = cross;
pos = (1300,-224);
},
{
name = top;
pos = (740,1792);
}
);
layerId = "B1F27B51-9973-4381-9301-4FE46FE1CA59";
shapes = (
{
closed = 1;
nodes = (
(1332,-576,l),
(1332,1536,l),
(1268,1536,l),
(1268,1144,l),
(1260,1144,l),
(1177,1399,o),
(987,1560,o),
(740,1560,cs),
(377,1560,o),
(148,1218,o),
(148,764,cs),
(148,312,o),
(380,-32,o),
(740,-32,cs),
(984,-32,o),
(1180,128,o),
(1260,384,c),
(1268,384,l),
(1268,-576,l)
);
},
{
closed = 1;
nodes = (
(416,32,o),
(212,348,o),
(212,764,cs),
(212,1180,o),
(414,1496,o),
(740,1496,cs),
(1066,1496,o),
(1268,1180,o),
(1268,764,cs),
(1268,348,o),
(1064,32,o),
(740,32,cs)
);
}
);
width = 1572;
},
{
anchors = (
{
name = _symbol;
pos = (840,570);
},
{
name = bottom;
pos = (1364,-576);
},
{
name = cross;
pos = (1360,-224);
},
{
name = top;
pos = (792,1792);
}
);
layerId = "CD0E3B44-F66A-4791-B84C-A1128DC61275";
shapes = (
{
closed = 1;
nodes = (
(1484,-576,l),
(1484,1536,l),
(1248,1536,l),
(1248,1292,l),
(1222,1292,l),
(1170,1374,o),
(1076,1556,o),
(778,1556,cs),
(392,1556,o),
(122,1250,o),
(122,764,cs),
(122,276,o),
(392,-32,o),
(774,-32,cs),
(1068,-32,o),
(1168,150,o),
(1222,236,c),
(1240,236,l),
(1240,-576,l)
);
},
{
closed = 1;
nodes = (
(518,186,o),
(368,442,o),
(368,768,cs),
(368,1090,o),
(514,1338,o),
(810,1338,cs),
(1094,1338,o),
(1246,1110,o),
(1246,768,cs),
(1246,424,o),
(1090,186,o),
(810,186,cs)
);
}
);
width = 1678;
}
);
metricLeft = q;
metricRight = q;
unicode = 113;
userData = {
"interface.width-adjustments" = (
-16
);
};
}
{
color = (219,235,247,1);
glyphname = u;
kernLeft = u;
kernRight = u;
layers = (
{
anchors = (
{
name = bottom;
pos = (1020,0);
},
{
name = ogonek;
pos = (1688,0);
},
{
name = top;
pos = (916,1792);
}
);
layerId = "5C20EF92-B63D-42A8-8878-93C2863E0093";
shapes = (
{
closed = 1;
nodes = (
(1137,520,o),
(1049,428,o),
(912,428,cs),
(773,428,o),
(693,520,o),
(692,672,cs),
(692,1536,l),
(140,1536,l),
(140,556,ls),
(141,220,o),
(353,-20,o),
(676,-20,cs),
(905,-20,o),
(1081,96,o),
(1148,292,c),
(1164,292,l),
(1164,0,l),
(1688,0,l),
(1688,1536,l),
(1136,1536,l),
(1136,672,ls)
);
}
);
width = 1828;
},
{
anchors = (
{
name = bottom;
pos = (968,0);
},
{
name = ogonek;
pos = (1616,0);
},
{
name = top;
pos = (872,1768);
}
);
associatedMasterId = "5C20EF92-B63D-42A8-8878-93C2863E0093";
guides = (
{
pos = (0,277.75);
},
{
pos = (0,752.125);
},
{
orientation = center;
angle = 90;
pos = (944,524);
}
);
layerId = "4F88E214-8A38-4ABA-85E9-D788B827E20A";
name = "Sep 16 18, 18:59";
shapes = (
{
closed = 1;
nodes = (
(1064,596,o),
(1060,400,o),
(876,400,cs),
(768,400,o),
(680,468,o),
(680,604,cs),
(680,1536,l),
(128,1536,l),
(128,584,ls),
(128,124,o),
(392,-20,o),
(676,-20,cs),
(836,-20,o),
(1000,32,o),
(1096,144,c),
(1112,144,l),
(1112,0,l),
(1616,0,l),
(1616,1536,l),
(1064,1536,l),
(1064,764,ls)
);
}
);
width = 1744;
},
{
anchors = (
{
name = bottom;
pos = (768,0);
},
{
name = ogonek;
pos = (1296,0);
},
{
name = top;
pos = (768,1792);
}
);
layerId = "B1F27B51-9973-4381-9301-4FE46FE1CA59";
shapes = (
{
closed = 1;
nodes = (
(1232,236,o),
(1036,44,o),
(764,44,cs),
(492,44,o),
(304,232,o),
(304,504,cs),
(304,1536,l),
(240,1536,l),
(240,504,ls),
(240,196,o),
(456,-20,o),
(764,-20,cs),
(976,-20,o),
(1152,84,o),
(1224,244,c),
(1232,244,l),
(1232,0,l),
(1296,0,l),
(1296,1536,l),
(1232,1536,l),
(1232,504,ls)
);
}
);
width = 1536;
},
{
anchors = (
{
name = bottom;
pos = (794,0);
},
{
name = ogonek;
pos = (1394,0);
},
{
name = top;
pos = (790,1792);
}
);
associatedMasterId = "CD0E3B44-F66A-4791-B84C-A1128DC61275";
layerId = "ECC5225F-464B-4EC5-9FBA-2A9D3682DE62";
shapes = (
{
closed = 1;
nodes = (
(1152,344,o),
(934,214,o),
(760,214,cs),
(564,214,o),
(426,356,o),
(426,578,cs),
(426,1536,l),
(182,1536,l),
(182,560,ls),
(182,170,o),
(390,-20,o),
(680,-20,cs),
(912,-20,o),
(1064,104,o),
(1136,260,c),
(1152,260,l),
(1152,0,l),
(1394,0,l),
(1394,1536,l),
(1152,1536,l),
(1152,630,ls)
);
}
);
width = 1577.10189;
},
{
anchors = (
{
name = bottom;
pos = (806,0);
},
{
name = ogonek;
pos = (1406,0);
},
{
name = top;
pos = (802,1792);
}
);
layerId = "CD0E3B44-F66A-4791-B84C-A1128DC61275";
shapes = (
{
closed = 1;
nodes = (
(1164,344,o),
(946,214,o),
(772,214,cs),
(576,214,o),
(438,356,o),
(438,578,cs),
(438,1536,l),
(194,1536,l),
(194,560,ls),
(194,170,o),
(402,-20,o),
(692,-20,cs),
(924,-20,o),
(1076,104,o),
(1148,260,c),
(1164,260,l),
(1164,0,l),
(1406,0,l),
(1406,1536,l),
(1164,1536,l),
(1164,630,ls)
);
}
);
width = 1600;
}
);
metricLeft = m;
unicode = 117;
userData = {
com.typemytype.robofont.guideline.magnetic.nBhGDD3LHZ = 5;
"interface.width-adjustments" = (
-16
);
};
}
{
color = (219,235,247,1);
glyphname = v;
kernLeft = v;
kernRight = v;
layers = (
{
anchors = (
{
name = bottom;
pos = (852,0);
},
{
name = top;
pos = (852,1792);
}
);
layerId = "5C20EF92-B63D-42A8-8878-93C2863E0093";
shapes = (
{
closed = 1;
nodes = (
(1108,1536,l),
(860,520,l),
(844,520,l),
(596,1536,l),
(16,1536,l),
(532,0,l),
(1172,0,l),
(1688,1536,l)
);
}
);
width = 1704;
},
{
anchors = (
{
name = bottom;
pos = (704,0);
},
{
name = top;
pos = (704,1792);
}
);
layerId = "B1F27B51-9973-4381-9301-4FE46FE1CA59";
shapes = (
{
closed = 1;
nodes = (
(1228,1536,l),
(708,80,l),
(700,80,l),
(180,1536,l),
(112,1536,l),
(660,0,l),
(748,0,l),
(1296,1536,l)
);
}
);
width = 1408;
},
{
anchors = (
{
name = bottom;
pos = (754,0);
},
{
name = top;
pos = (754,1792);
}
);
associatedMasterId = "CD0E3B44-F66A-4791-B84C-A1128DC61275";
layerId = "BCF38543-8542-4C43-A93A-15E6DB84AC2B";
shapes = (
{
closed = 1;
nodes = (
(1182,1536,l),
(762,318,l),
(746,318,l),
(326,1536,l),
(62,1536,l),
(628,0,l),
(878,0,l),
(1446,1536,l)
);
}
);
width = 1507.7283;
},
{
anchors = (
{
name = bottom;
pos = (766,0);
},
{
name = top;
pos = (766,1792);
}
);
layerId = "CD0E3B44-F66A-4791-B84C-A1128DC61275";
shapes = (
{
closed = 1;
nodes = (
(1194,1536,l),
(774,318,l),
(758,318,l),
(338,1536,l),
(74,1536,l),
(640,0,l),
(890,0,l),
(1458,1536,l)
);
}
);
width = 1532;
}
);
unicode = 118;
userData = {
com.typemytype.robofont.guideline.magnetic.HsEeMarF5L = 5;
"interface.width-adjustments" = (
-16
);
};
}
{
color = (204,240,242,1);
glyphname = asciitilde;
kernLeft = hyphen;
kernRight = hyphen;
layers = (
{
guides = (
{
orientation = center;
pos = (260,832);
}
);
layerId = "5C20EF92-B63D-42A8-8878-93C2863E0093";
shapes = (
{
closed = 1;
nodes = (
(364,621,o),
(487,668,o),
(624,668,cs),
(874,668,o),
(1073,510,o),
(1318,510,cs),
(1458,510,o),
(1587,562,o),
(1686,662,c),
(1686,1090,l),
(1588,999,o),
(1463,952,o),
(1326,952,cs),
(1076,952,o),
(877,1110,o),
(632,1110,cs),
(492,1110,o),
(365,1058,o),
(266,958,c),
(266,530,l)
);
}
);
width = 1952;
},
{
guides = (
{
pos = (132,1384);
}
);
layerId = "B1F27B51-9973-4381-9301-4FE46FE1CA59";
shapes = (
{
closed = 1;
nodes = (
(342,810,o),
(448,860,o),
(566,860,cs),
(764,860,o),
(936,698,o),
(1162,698,cs),
(1284,698,o),
(1392,748,o),
(1480,838,c),
(1480,936,l),
(1386,812,o),
(1280,762,o),
(1162,762,cs),
(964,762,o),
(792,924,o),
(566,924,cs),
(444,924,o),
(336,874,o),
(248,784,c),
(248,686,l)
);
}
);
width = 1728;
},
{
associatedMasterId = "B1F27B51-9973-4381-9301-4FE46FE1CA59";
guides = (
{
pos = (268,800);
}
);
layerId = "33973947-0638-429D-AFAA-0DABE9CBDBE5";
name = "Dec 27 18, 15:21";
shapes = (
{
closed = 0;
nodes = (
(1464,936,l),
(1427,795,o),
(1296,695,o),
(1148,696,cs),
(924,698,o),
(838,915,o),
(588,916,cs),
(417,917,o),
(281,813,o),
(260,668,c)
);
}
);
width = 1724;
},
{
associatedMasterId = "CD0E3B44-F66A-4791-B84C-A1128DC61275";
layerId = "E69D44C7-5936-4E80-8983-747F6252F9AD";
shapes = (
{
closed = 1;
nodes = (
(420,606,l),
(416,780,o),
(496,850,o),
(604,850,cs),
(674,850,o),
(720,818,o),
(818,734,cs),
(964,606,o),
(1062,550,o),
(1198,550,cs),
(1404,550,o),
(1602,682,o),
(1596,1016,c),
(1374,1016,l),
(1378,856,o),
(1304,772,o),
(1192,772,cs),
(1120,772,o),
(1074,804,o),
(976,888,cs),
(830,1014,o),
(732,1070,o),
(596,1070,cs),
(390,1070,o),
(194,940,o),
(200,606,c)
);
}
);
width = 1794.74717;
},
{
layerId = "CD0E3B44-F66A-4791-B84C-A1128DC61275";
shapes = (
{
closed = 1;
nodes = (
(360,722,o),
(470,782,o),
(594,782,cs),
(802,782,o),
(998,620,o),
(1212,620,cs),
(1338,620,o),
(1448,674,o),
(1542,780,c),
(1542,1014,l),
(1456,898,o),
(1346,838,o),
(1220,838,cs),
(1012,838,o),
(818,1000,o),
(602,1000,cs),
(478,1000,o),
(366,946,o),
(274,840,c),
(274,606,l)
);
}
);
width = 1816;
},
{
associatedMasterId = "B1F27B51-9973-4381-9301-4FE46FE1CA59";
guides = (
{
pos = (132,1384);
}
);
layerId = "927434B3-B5C8-4C57-BCF8-91A026E65036";
name = "Apr 10, 22 12:59";
shapes = (
{
closed = 1;
nodes = (
(296,664,l),
(314,793,o),
(433,885,o),
(592,884,cs),
(709,883,o),
(786,831,o),
(868,776,cs),
(948,722,o),
(1030,665,o),
(1148,664,cs),
(1317,663,o),
(1454,772,o),
(1496,928,c),
(1432,944,l),
(1400,817,o),
(1288,727,o),
(1148,728,cs),
(1050,729,o),
(983,775,o),
(904,828,cs),
(822,883,o),
(729,947,o),
(592,948,cs),
(402,949,o),
(256,834,o),
(232,672,c)
);
}
);
width = 1728;
},
{
associatedMasterId = "CD0E3B44-F66A-4791-B84C-A1128DC61275";
layerId = "79D38098-A126-4DD3-A6F7-79C4EEC42966";
name = "Apr 10, 22 12:59";
shapes = (
{
closed = 1;
nodes = (
(430,606,l),
(426,780,o),
(506,850,o),
(614,850,cs),
(684,850,o),
(730,818,o),
(828,734,cs),
(974,606,o),
(1072,550,o),
(1208,550,cs),
(1414,550,o),
(1612,682,o),
(1606,1016,c),
(1384,1016,l),
(1388,856,o),
(1314,772,o),
(1202,772,cs),
(1130,772,o),
(1084,804,o),
(986,888,cs),
(840,1014,o),
(742,1070,o),
(606,1070,cs),
(400,1070,o),
(204,940,o),
(210,606,c)
);
}
);
width = 1816;
},
{
associatedMasterId = "5C20EF92-B63D-42A8-8878-93C2863E0093";
guides = (
{
orientation = center;
pos = (260,832);
}
);
layerId = "28028497-83D9-4061-9EA5-77400BE188AA";
name = "Apr 10, 22 12:59";
shapes = (
{
closed = 1;
nodes = (
(604,516,l),
(600,677,o),
(664,740,o),
(748,740,cs),
(815,740,o),
(843,709,o),
(916,644,cs),
(1052,524,o),
(1162,476,o),
(1292,476,cs),
(1597,476,o),
(1766,738,o),
(1748,1148,c),
(1348,1148,l),
(1353,987,o),
(1285,924,o),
(1204,924,cs),
(1134,924,o),
(1094,965,o),
(1032,1020,cs),
(885,1151,o),
(779,1188,o),
(660,1188,cs),
(344,1188,o),
(187,926,o),
(204,516,c)
);
}
);
width = 1952;
},
{
associatedMasterId = "B1F27B51-9973-4381-9301-4FE46FE1CA59";
guides = (
{
pos = (132,1384);
}
);
layerId = "E4A516CB-CC7C-46F5-B7BC-C4315C75D95B";
name = "Apr 10, 22 16:53";
shapes = (
{
attr = {
lineCapEnd = 3;
lineCapStart = 3;
strokeHeight = 64;
strokeWidth = 64;
};
closed = 0;
nodes = (
(240,728,l),
(326,835,o),
(438,892,o),
(564,892,cs),
(776,892,o),
(948,730,o),
(1160,730,cs),
(1286,730,o),
(1398,787,o),
(1484,894,c)
);
}
);
width = 1728;
},
{
associatedMasterId = "B1F27B51-9973-4381-9301-4FE46FE1CA59";
guides = (
{
pos = (132,1384);
}
);
layerId = "37ADC707-E1E6-4889-B620-79E6DA9DD739";
name = "Apr 10, 22 16:56";
shapes = (
{
closed = 1;
nodes = (
(324,799,o),
(430,860,o),
(560,860,cs),
(772,860,o),
(943,698,o),
(1160,698,cs),
(1282,698,o),
(1397,749,o),
(1480,846,c),
(1480,934,l),
(1404,823,o),
(1298,762,o),
(1168,762,cs),
(956,762,o),
(785,924,o),
(568,924,cs),
(446,924,o),
(331,873,o),
(248,776,c),
(248,688,l)
);
}
);
width = 1728;
}
);
metricWidth = plus;
unicode = 126;
userData = {
com.typemytype.robofont.guideline.magnetic.3xFHrd4wHk = 5;
com.typemytype.robofont.guideline.magnetic.7O4U9XRpHd = 5;
"interface.width-adjustments" = (
-16
);
};
}
{
color = (204,240,242,1);
glyphname = cedilla;
layers = (
{
anchors = (
{
name = _cedilla;
pos = (628,0);
}
);
guides = (
{
angle = 90;
orientation = center;
pos = (472,132);
}
);
layerId = "5C20EF92-B63D-42A8-8878-93C2863E0093";
shapes = (
{
closed = 1;
nodes = (
(484,-200,l),
(613,-220,o),
(677,-269,o),
(672,-344,cs),
(667,-425,o),
(561,-468,o),
(364,-468,c),
(364,-680,l),
(739,-680,o),
(966,-548,o),
(964,-332,cs),
(963,-202,o),
(870,-108,o),
(712,-84,c),
(728,8,l),
(532,8,l)
);
}
);
width = 1256;
},
{
anchors = (
{
name = _cedilla;
pos = (262,0);
}
);
layerId = "B1F27B51-9973-4381-9301-4FE46FE1CA59";
shapes = (
{
closed = 1;
nodes = (
(202,-132,l),
(348,-129,o),
(423,-189,o),
(424,-304,cs),
(423,-402,o),
(365,-447,o),
(216,-452,c),
(218,-516,l),
(394,-510,o),
(487,-445,o),
(488,-304,cs),
(487,-180,o),
(416,-93,o),
(280,-72,c),
(294,8,l),
(230,8,l)
);
}
);
width = 512;
},
{
anchors = (
{
name = _cedilla;
pos = (240,0);
}
);
associatedMasterId = "B1F27B51-9973-4381-9301-4FE46FE1CA59";
layerId = "85EA0EA0-FE7E-430B-8FF4-E142E393ACA4";
name = wire;
shapes = (
{
closed = 0;
nodes = (
(198,-516,l),
(375,-510,o),
(468,-445,o),
(468,-304,cs),
(468,-180,o),
(397,-93,o),
(260,-72,c),
(276,8,l)
);
}
);
width = 450;
},
{
anchors = (
{
name = _cedilla;
pos = (364,0);
}
);
layerId = "CD0E3B44-F66A-4791-B84C-A1128DC61275";
shapes = (
{
closed = 1;
nodes = (
(220,-188,l),
(372,-200,o),
(436,-226,o),
(436,-316,cs),
(436,-408,o),
(344,-444,o),
(218,-444,c),
(226,-602,l),
(504,-602,o),
(650,-482,o),
(650,-308,cs),
(650,-154,o),
(546,-88,o),
(440,-72,c),
(456,8,l),
(260,8,l)
);
}
);
width = 712;
}
);
unicode = 184;
userData = {
interface.gridadjust.original = "{'width': 701, 'leftMargin': 165, 'rightMargin': 107}";
"interface.width-adjustments" = (
-16
);
};
}
{
glyphname = Oslash;
kernLeft = C;
kernRight = D;
layers = (
{
guides = (
{
angle = 90;
pos = (876,1588);
},
{
pos = (1144,1024);
},
{
angle = 55.9722;
pos = (876,1024);
}
);
layerId = "5C20EF92-B63D-42A8-8878-93C2863E0093";
shapes = (
{
closed = 1;
nodes = (
(1980,2000,l),
(1756,2152,l),
(260,44,l),
(484,-108,l)
);
},
{
ref = O;
}
);
width = 2240;
},
{
layerId = "B1F27B51-9973-4381-9301-4FE46FE1CA59";
shapes = (
{
closed = 1;
nodes = (
(1736,2060,l),
(1684,2096,l),
(304,-12,l),
(356,-48,l)
);
},
{
alignment = -1;
ref = O;
}
);
width = 2040;
},
{
layerId = "CD0E3B44-F66A-4791-B84C-A1128DC61275";
shapes = (
{
closed = 1;
nodes = (
(1838,2024,l),
(1684,2128,l),
(258,20,l),
(412,-84,l)
);
},
{
alignment = -1;
ref = O;
}
);
width = 2104;
}
);
metricLeft = O;
metricRight = O;
unicode = 216;
userData = {
com.typemytype.robofont.guideline.magnetic.7eFhkhwEhv = 5;
com.typemytype.robofont.guideline.magnetic.bDBaZ7HKjd = 5;
com.typemytype.robofont.guideline.magnetic.rquz9RFtyk = 5;
"interface.width-adjustments" = (
-16
);
};
}
{
color = (204,240,242,1);
glyphname = divide;
kernLeft = hyphen;
kernRight = hyphen;
layers = (
{
guides = (
{
orientation = center;
pos = (260,832);
}
);
layerId = "5C20EF92-B63D-42A8-8878-93C2863E0093";
shapes = (
{
closed = 1;
nodes = (
(236,1040,l),
(236,624,l),
(1716,624,l),
(1716,1040,l)
);
},
{
closed = 1;
nodes = (
(1130,-32,o),
(1256,94,o),
(1256,252,cs),
(1256,406,o),
(1130,532,o),
(976,532,cs),
(818,532,o),
(692,406,o),
(692,252,cs),
(692,94,o),
(818,-32,o),
(976,-32,cs)
);
},
{
closed = 1;
nodes = (
(1132,1132,o),
(1256,1260,o),
(1256,1416,cs),
(1256,1572,o),
(1132,1696,o),
(976,1696,cs),
(820,1696,o),
(692,1572,o),
(692,1416,cs),
(692,1260,o),
(820,1132,o),
(976,1132,cs)
);
}
);
width = 1952;
},
{
guides = (
{
pos = (132,1384);
}
);
layerId = "B1F27B51-9973-4381-9301-4FE46FE1CA59";
shapes = (
{
closed = 1;
nodes = (
(284,832,l),
(284,768,l),
(1444,768,l),
(1444,832,l)
);
},
{
closed = 1;
nodes = (
(904,272,o),
(936,304,o),
(936,344,cs),
(936,384,o),
(904,416,o),
(864,416,cs),
(824,416,o),
(792,384,o),
(792,344,cs),
(792,304,o),
(824,272,o),
(864,272,cs)
);
},
{
closed = 1;
nodes = (
(904,1184,o),
(936,1216,o),
(936,1256,cs),
(936,1296,o),
(904,1328,o),
(864,1328,cs),
(824,1328,o),
(792,1296,o),
(792,1256,cs),
(792,1216,o),
(824,1184,o),
(864,1184,cs)
);
}
);
width = 1728;
},
{
layerId = "CD0E3B44-F66A-4791-B84C-A1128DC61275";
shapes = (
{
closed = 1;
nodes = (
(266,916,l),
(266,686,l),
(1552,686,l),
(1552,916,l)
);
},
{
closed = 1;
nodes = (
(1006,100,o),
(1088,182,o),
(1088,284,cs),
(1088,380,o),
(1006,462,o),
(910,462,cs),
(808,462,o),
(726,380,o),
(726,284,cs),
(726,182,o),
(808,100,o),
(910,100,cs)
);
},
{
closed = 1;
nodes = (
(1006,1140,o),
(1088,1220,o),
(1088,1322,cs),
(1088,1420,o),
(1006,1500,o),
(910,1500,cs),
(808,1500,o),
(726,1420,o),
(726,1322,cs),
(726,1220,o),
(808,1140,o),
(910,1140,cs)
);
}
);
width = 1816;
}
);
metricWidth = plus;
unicode = 247;
userData = {
"interface.width-adjustments" = (
-16
);
};
}
{
glyphname = Hbar;
kernLeft = B;
kernRight = H;
layers = (
{
layerId = "5C20EF92-B63D-42A8-8878-93C2863E0093";
shapes = (
{
closed = 1;
nodes = (
(76,1744,l),
(76,1480,l),
(2268,1480,l),
(2268,1744,l)
);
},
{
pos = (116,0);
ref = H;
}
);
width = 2344;
},
{
layerId = "B1F27B51-9973-4381-9301-4FE46FE1CA59";
shapes = (
{
closed = 1;
nodes = (
(140,1484,l),
(140,1420,l),
(1892,1420,l),
(1892,1484,l)
);
},
{
alignment = -1;
pos = (16,0);
ref = H;
}
);
width = 2032;
},
{
associatedMasterId = "CD0E3B44-F66A-4791-B84C-A1128DC61275";
layerId = "A4969128-983B-4A1C-859D-4E2938F9E8AF";
shapes = (
{
closed = 1;
nodes = (
(102,1620,l),
(102,1410,l),
(2026,1410,l),
(2026,1620,l)
);
},
{
alignment = -1;
pos = (54,0);
ref = H;
}
);
width = 2128.21887;
},
{
layerId = "CD0E3B44-F66A-4791-B84C-A1128DC61275";
shapes = (
{
closed = 1;
nodes = (
(114,1620,l),
(114,1410,l),
(2038,1410,l),
(2038,1620,l)
);
},
{
alignment = -1;
pos = (56,0);
ref = H;
}
);
width = 2152;
}
);
metricLeft = T;
metricRight = T;
unicode = 294;
userData = {
interface.gridadjust.original = "{'width': 1980.0, 'leftMargin': 43, 'rightMargin': 22.0}";
"interface.width-adjustments" = (
-16
);
};
}
{
glyphname = OE;
kernLeft = C;
kernRight = E;
layers = (
{
layerId = "5C20EF92-B63D-42A8-8878-93C2863E0093";
shapes = (
{
closed = 1;
nodes = (
(1576,0,l),
(1576,448,l),
(1072,448,l),
(851,448,o),
(687,568,o),
(688,1020,c),
(687,1468,o),
(851,1600,o),
(1072,1600,c),
(1576,1600,l),
(1576,2048,l),
(1072,2048,l),
(543,2048,o),
(123,1720,o),
(124,1020,c),
(123,324,o),
(543,0,o),
(1072,0,c)
);
},
{
pos = (1236,0);
ref = E;
}
);
width = 2988;
},
{
layerId = "B1F27B51-9973-4381-9301-4FE46FE1CA59";
shapes = (
{
closed = 1;
nodes = (
(1272,0,l),
(1272,64,l),
(1020,64,ls),
(549,64,o),
(236,456,o),
(236,1024,cs),
(236,1600,o),
(556,1986,o),
(1020,1984,cs),
(1272,1984,l),
(1272,2048,l),
(1020,2048,ls),
(515,2048,o),
(172,1633,o),
(172,1024,cs),
(172,416,o),
(514,0,o),
(1020,0,cs)
);
},
{
alignment = -1;
pos = (952,0);
ref = E;
}
);
width = 2532;
},
{
associatedMasterId = "CD0E3B44-F66A-4791-B84C-A1128DC61275";
layerId = "9695B74F-C784-4817-A60D-0708FBA38383";
shapes = (
{
closed = 1;
nodes = (
(1322,0,l),
(1322,226,l),
(1040,226,ls),
(648,226,o),
(384,544,o),
(384,1024,cs),
(384,1508,o),
(648,1822,o),
(1040,1822,cs),
(1322,1822,l),
(1322,2048,l),
(1040,2048,ls),
(500,2048,o),
(136,1642,o),
(136,1024,cs),
(136,410,o),
(500,0,o),
(1040,0,cs)
);
},
{
alignment = -1;
pos = (1006,0);
ref = E;
}
);
width = 2627.84906;
},
{
layerId = "CD0E3B44-F66A-4791-B84C-A1128DC61275";
shapes = (
{
closed = 1;
nodes = (
(1332,0,l),
(1332,226,l),
(1050,226,ls),
(658,226,o),
(394,544,o),
(394,1024,cs),
(394,1508,o),
(658,1822,o),
(1050,1822,cs),
(1332,1822,l),
(1332,2048,l),
(1050,2048,ls),
(510,2048,o),
(146,1642,o),
(146,1024,cs),
(146,410,o),
(510,0,o),
(1050,0,cs)
);
},
{
alignment = -1;
pos = (1006,0);
ref = E;
}
);
width = 2650;
}
);
metricLeft = O;
metricRight = E;
note = "!post:RemoveOverlap";
unicode = 338;
userData = {
interface.gridadjust.original = "{'width': 2698, 'leftMargin': 143, 'rightMargin': 191}";
"interface.width-adjustments" = (
-16
);
};
}
{
glyphname = tbar;
kernLeft = t;
kernRight = t;
layers = (
{
layerId = "5C20EF92-B63D-42A8-8878-93C2863E0093";
shapes = (
{
closed = 1;
nodes = (
(1056,724,l),
(1056,940,l),
(44,940,l),
(44,724,l)
);
},
{
ref = t;
}
);
width = 1140;
},
{
layerId = "B1F27B51-9973-4381-9301-4FE46FE1CA59";
shapes = (
{
closed = 1;
nodes = (
(776,962,l),
(776,1026,l),
(112,1026,l),
(112,962,l)
);
},
{
alignment = -1;
pos = (28,0);
ref = t;
}
);
width = 944;
},
{
layerId = "CD0E3B44-F66A-4791-B84C-A1128DC61275";
shapes = (
{
closed = 1;
nodes = (
(866,838,l),
(866,1022,l),
(66,1022,l),
(66,838,l)
);
},
{
alignment = -1;
ref = t;
}
);
width = 984;
}
);
metricLeft = t;
metricRight = t;
unicode = 359;
}
{
glyphname = btopbar;
kernLeft = B;
kernRight = b;
layers = (
{
layerId = "5C20EF92-B63D-42A8-8878-93C2863E0093";
shapes = (
{
closed = 1;
nodes = (
(412,2048,l),
(412,1684,l),
(1496,1684,l),
(1496,2048,l,{
name = hr00;
})
);
},
{
alignment = -1;
ref = b;
}
);
width = 1816;
},
{
layerId = "B1F27B51-9973-4381-9301-4FE46FE1CA59";
shapes = (
{
closed = 1;
nodes = (
(320,2048,l),
(320,1984,l),
(1312,1984,l),
(1312,2048,l,{
name = hr00;
})
);
},
{
alignment = -1;
ref = b;
}
);
width = 1620;
},
{
layerId = "CD0E3B44-F66A-4791-B84C-A1128DC61275";
shapes = (
{
closed = 1;
nodes = (
(430,2048,l),
(430,1824,l),
(1380,1824,l),
(1380,2048,l)
);
},
{
alignment = -1;
ref = b;
}
);
width = 1710;
}
);
metricLeft = b;
metricRight = b;
note = "!post:RemoveOverlap";
unicode = 387;
userData = {
interface.gridadjust.original = "{'width': 1585, 'leftMargin': 256, 'rightMargin': 49}";
"interface.width-adjustments" = (
-16
);
};
}
{
glyphname = Epsilon1;
layers = (
{
background = {
shapes = (
{
closed = 1;
nodes = (
(1244,1224,l),
(976,1224,ls),
(814,1224,o),
(726,1284,o),
(728,1440,cs),
(726,1536,o),
(810,1600,o),
(996,1600,cs),
(1138,1600,o),
(1238,1568,o),
(1240,1452,c),
(1776,1452,l),
(1774,1812,o),
(1414,2032,o),
(996,2032,cs),
(514,2032,o),
(186,1832,o),
(188,1460,cs),
(186,1160,o),
(490,960,o),
(876,960,c),
(1244,960,l,{
name = hr00;
})
);
},
{
closed = 1;
nodes = (
(430,1080,o),
(154,896,o),
(156,560,cs),
(154,164,o),
(494,-28,o),
(996,-28,cs),
(1386,-28,o),
(1806,148,o),
(1808,556,c),
(1268,556,l),
(1266,456,o),
(1166,400,o),
(996,400,cs),
(826,400,o),
(694,444,o),
(696,580,cs),
(694,776,o),
(806,820,o),
(976,820,cs),
(1244,820,l),
(1244,1080,l),
(876,1080,l)
);
}
);
};
layerId = "5C20EF92-B63D-42A8-8878-93C2863E0093";
shapes = (
{
closed = 1;
nodes = (
(1244,1244,l),
(976,1244,ls),
(805,1244,o),
(726,1312,o),
(726,1444,cs),
(726,1583,o),
(809,1644,o),
(994,1644,cs),
(1156,1644,o),
(1238,1598,o),
(1240,1496,c),
(1776,1496,l),
(1774,1832,o),
(1446,2076,o),
(996,2076,cs),
(486,2076,o),
(186,1855,o),
(186,1480,cs),
(186,1190,o),
(476,980,o),
(876,980,c),
(1244,980,l,{
name = hr00;
})
);
},
{
closed = 1;
nodes = (
(420,1100,o),
(154,909,o),
(154,580,cs),
(154,191,o),
(457,-28,o),
(996,-28,cs),
(1474,-28,o),
(1806,211,o),
(1808,556,c),
(1268,556,l),
(1266,457,o),
(1167,400,o),
(976,400,cs),
(793,400,o),
(694,456,o),
(694,614,cs),
(694,760,o),
(776,840,o),
(976,840,cs),
(1244,840,l),
(1244,1100,l),
(876,1100,l)
);
}
);
width = 1964;
},
{
background = {
shapes = (
{
closed = 1;
nodes = (
(1008,1068,l),
(876,1068,ls),
(510,1068,o),
(272,1248,o),
(272,1522,cs),
(272,1772,o),
(472,1968,o),
(820,1968,cs),
(1126,1968,o),
(1312,1772,o),
(1352,1492,c),
(1416,1492,l),
(1376,1808,o),
(1162,2032,o),
(820,2032,cs),
(438,2032,o),
(208,1808,o),
(208,1522,cs),
(208,1292,o),
(356,1103,o),
(668,1034,c),
(1008,1034,l)
);
},
{
closed = 1;
nodes = (
(340,968,o),
(168,772,o),
(168,522,cs),
(168,217,o),
(418,-28,o),
(816,-28,cs),
(1198,-28,o),
(1443,203,o),
(1484,512,c),
(1420,512,l),
(1380,236,o),
(1163,36,o),
(816,36,cs),
(451,36,o),
(232,259,o),
(232,522,cs),
(232,806,o),
(486,1004,o),
(876,1004,cs),
(1008,1004,l),
(1008,1046,l),
(654,1046,l)
);
}
);
};
layerId = "B1F27B51-9973-4381-9301-4FE46FE1CA59";
shapes = (
{
closed = 1;
nodes = (
(976,1088,l),
(844,1088,ls),
(478,1088,o),
(240,1278,o),
(240,1558,cs),
(240,1822,o),
(448,2012,o),
(776,2012,cs),
(1102,2012,o),
(1280,1816,o),
(1320,1536,c),
(1384,1536,l),
(1344,1852,o),
(1138,2076,o),
(776,2076,cs),
(414,2076,o),
(176,1858,o),
(176,1558,cs),
(176,1322,o),
(324,1123,o),
(636,1054,c),
(976,1054,l)
);
},
{
closed = 1;
nodes = (
(308,988,o),
(136,782,o),
(136,522,cs),
(136,207,o),
(386,-28,o),
(778,-28,cs),
(1166,-28,o),
(1411,203,o),
(1452,512,c),
(1388,512,l),
(1348,236,o),
(1131,36,o),
(780,36,cs),
(419,36,o),
(200,249,o),
(200,522,cs),
(200,816,o),
(454,1024,o),
(844,1024,cs),
(976,1024,l),
(976,1066,l),
(622,1066,l)
);
}
);
width = 1568;
},
{
associatedMasterId = "CD0E3B44-F66A-4791-B84C-A1128DC61275";
layerId = "C81E8D04-F19B-459D-8A4A-E5534C5C388F";
shapes = (
{
closed = 1;
nodes = (
(1084,1158,l),
(858,1158,ls),
(566,1158,o),
(454,1326,o),
(454,1502,cs),
(454,1702,o),
(594,1840,o),
(864,1840,cs),
(1118,1840,o),
(1266,1710,o),
(1266,1524,c),
(1556,1524,l),
(1556,1864,o),
(1270,2076,o),
(864,2076,cs),
(470,2076,o),
(164,1866,o),
(164,1514,cs),
(164,1178,o),
(448,980,o),
(848,980,c),
(1084,980,l)
);
},
{
closed = 1;
nodes = (
(400,1100,o),
(132,916,o),
(132,544,cs),
(132,142,o),
(472,-28,o),
(854,-28,cs),
(1242,-28,o),
(1584,150,o),
(1586,556,c),
(1294,556,l),
(1294,362,o),
(1150,204,o),
(852,204,cs),
(614,204,o),
(426,308,o),
(426,566,cs),
(426,806,o),
(572,926,o),
(858,926,cs),
(1084,926,l),
(1084,1100,l),
(848,1100,l)
);
}
);
width = 1717.00377;
},
{
layerId = "CD0E3B44-F66A-4791-B84C-A1128DC61275";
shapes = (
{
closed = 1;
nodes = (
(1094,1158,l),
(868,1158,ls),
(576,1158,o),
(464,1326,o),
(464,1502,cs),
(464,1702,o),
(604,1840,o),
(874,1840,cs),
(1128,1840,o),
(1276,1710,o),
(1276,1524,c),
(1566,1524,l),
(1566,1864,o),
(1280,2076,o),
(874,2076,cs),
(480,2076,o),
(174,1866,o),
(174,1514,cs),
(174,1178,o),
(458,980,o),
(858,980,c),
(1094,980,l)
);
},
{
closed = 1;
nodes = (
(410,1100,o),
(142,916,o),
(142,544,cs),
(142,142,o),
(482,-28,o),
(864,-28,cs),
(1252,-28,o),
(1594,150,o),
(1596,556,c),
(1304,556,l),
(1304,362,o),
(1160,204,o),
(862,204,cs),
(624,204,o),
(436,308,o),
(436,566,cs),
(436,806,o),
(582,926,o),
(868,926,cs),
(1094,926,l),
(1094,1100,l),
(858,1100,l)
);
}
);
width = 1738;
}
);
unicode = 400;
userData = {
interface.gridadjust.original = "{'width': 1671, 'leftMargin': 114, 'rightMargin': 108}";
"interface.width-adjustments" = (
-16
);
};
}
{
glyphname = Khook;
kernLeft = B;
kernRight = K;
layers = (
{
background = {
shapes = (
{
pos = (12,0);
ref = K;
}
);
};
guides = (
{
angle = 227.7472;
pos = (996,1740);
},
{
angle = 227.9329;
pos = (1384,1508);
}
);
layerId = "5C20EF92-B63D-42A8-8878-93C2863E0093";
shapes = (
{
closed = 1;
nodes = (
(688,0,l),
(688,436,l),
(936,692,l),
(1464,0,l),
(2128,0,l),
(1292,1088,l),
(1708,1508,ls),
(1794,1594,o),
(1852,1644,o),
(1980,1584,c),
(2144,1972,l),
(1824,2148,o),
(1540,2092,o),
(1296,1844,cs),
(716,1256,l),
(688,1256,l),
(688,2048,l),
(132,2048,l),
(132,0,l)
);
}
);
width = 2160;
},
{
layerId = "B1F27B51-9973-4381-9301-4FE46FE1CA59";
shapes = (
{
closed = 1;
nodes = (
(352,0,l),
(352,668,l),
(660,1008,l),
(1608,0,l),
(1696,0,l),
(704,1056,l),
(1480,1908,ls),
(1562,2000,o),
(1650,2020,o),
(1744,1952,c),
(1788,1994,l),
(1700,2090,o),
(1530,2070,o),
(1432,1952,c),
(360,772,l),
(352,772,l),
(352,2048,l),
(288,2048,l),
(288,0,l)
);
}
);
width = 1780;
},
{
associatedMasterId = "CD0E3B44-F66A-4791-B84C-A1128DC61275";
layerId = "E996E1BF-1A9F-4E3D-A75C-8EB9D2B4D075";
shapes = (
{
closed = 1;
nodes = (
(468,0,l),
(468,658,l),
(724,946,l),
(1432,0,l),
(1742,0,l),
(882,1124,l),
(1462,1746,ls),
(1564,1856,o),
(1652,1862,o),
(1742,1806,c),
(1842,1996,l),
(1676,2112,o),
(1462,2104,o),
(1300,1926,cs),
(494,1038,l),
(468,1038,l),
(468,2048,l),
(214,2048,l),
(214,0,l)
);
}
);
width = 1834.96604;
},
{
layerId = "CD0E3B44-F66A-4791-B84C-A1128DC61275";
shapes = (
{
closed = 1;
nodes = (
(480,0,l),
(480,658,l),
(736,946,l),
(1444,0,l),
(1754,0,l),
(894,1124,l),
(1474,1746,ls),
(1576,1856,o),
(1664,1862,o),
(1754,1806,c),
(1854,1996,l),
(1688,2112,o),
(1474,2104,o),
(1312,1926,cs),
(506,1038,l),
(480,1038,l),
(480,2048,l),
(226,2048,l),
(226,0,l)
);
}
);
width = 1856;
}
);
unicode = 408;
userData = {
com.typemytype.robofont.guideline.magnetic.39qH0NXtzo = 5;
com.typemytype.robofont.guideline.magnetic.tBAYMBoO6i = 5;
interface.gridadjust.original = "{'width': 1764, 'leftMargin': 228, 'rightMargin': -13}";
"interface.width-adjustments" = (
-16
);
};
}
{
glyphname = Ohorn;
kernLeft = C;
kernRight = D;
layers = (
{
guides = (
{
angle = 90;
pos = (876,1568);
}
);
layerId = "5C20EF92-B63D-42A8-8878-93C2863E0093";
shapes = (
{
closed = 1;
nodes = (
(2032,1856,o),
(1992,1704,o),
(1808,1704,c),
(1808,1468,l),
(2180,1468,o),
(2332,1708,o),
(2332,2116,c),
(2032,2116,l)
);
},
{
ref = O;
}
);
width = 2364;
},
{
layerId = "B1F27B51-9973-4381-9301-4FE46FE1CA59";
shapes = (
{
closed = 1;
nodes = (
(1847,1985,o),
(1781,1897,o),
(1572,1844,c),
(1572,1780,l),
(1816,1832,o),
(1913,1952,o),
(1912,2204,c),
(1848,2204,l)
);
},
{
alignment = -1;
ref = O;
}
);
width = 2006;
},
{
layerId = "CD0E3B44-F66A-4791-B84C-A1128DC61275";
shapes = (
{
closed = 1;
nodes = (
(1886,1962,o),
(1794,1824,o),
(1588,1824,c),
(1588,1628,l),
(1944,1628,o),
(2122,1832,o),
(2122,2194,c),
(1886,2194,l)
);
},
{
alignment = -1;
ref = O;
}
);
width = 2140;
}
);
metricLeft = O;
unicode = 416;
userData = {
interface.gridadjust.original = "{'width': 1928, 'leftMargin': 226, 'rightMargin': -45}";
"interface.width-adjustments" = (
-16
);
};
}
{
glyphname = ohorn;
kernLeft = c;
kernRight = ohorn;
layers = (
{
layerId = "5C20EF92-B63D-42A8-8878-93C2863E0093";
shapes = (
{
closed = 1;
nodes = (
(1568,1360,o),
(1512,1216,o),
(1292,1216,c),
(1292,1044,l),
(1668,1044,o),
(1844,1248,o),
(1844,1608,c),
(1568,1608,l)
);
},
{
ref = o;
}
);
width = 1844;
},
{
layerId = "B1F27B51-9973-4381-9301-4FE46FE1CA59";
shapes = (
{
closed = 1;
nodes = (
(1438,1470,o),
(1380,1374,o),
(1202,1358,c),
(1202,1294,l),
(1418,1310,o),
(1502,1440,o),
(1502,1678,c),
(1438,1678,l)
);
},
{
alignment = -1;
ref = o;
}
);
width = 1524;
},
{
associatedMasterId = "CD0E3B44-F66A-4791-B84C-A1128DC61275";
layerId = "C3C26DDA-70F7-4C3B-A7BD-2CA84BE2A8F9";
shapes = (
{
closed = 1;
nodes = (
(1434,1454,o),
(1406,1322,o),
(1206,1322,c),
(1206,1154,l),
(1538,1154,o),
(1656,1346,o),
(1656,1650,c),
(1434,1650,l)
);
},
{
alignment = -1;
ref = o;
}
);
width = 1624.31698;
},
{
layerId = "CD0E3B44-F66A-4791-B84C-A1128DC61275";
shapes = (
{
closed = 1;
nodes = (
(1444,1454,o),
(1416,1322,o),
(1216,1322,c),
(1216,1154,l),
(1548,1154,o),
(1666,1346,o),
(1666,1650,c),
(1444,1650,l)
);
},
{
alignment = -1;
ref = o;
}
);
width = 1644;
}
);
metricLeft = o;
unicode = 417;
userData = {
interface.gridadjust.original = "{'width': 1617.0, 'leftMargin': 236, 'rightMargin': -55.0}";
"interface.width-adjustments" = (
-16
);
};
}
{
glyphname = Tonetwo;
kernLeft = S;
kernRight = B;
layers = (
{
anchors = (
{
name = bottom;
pos = (928,0);
},
{
name = cedilla;
pos = (932,0);
},
{
name = top;
pos = (936,2304);
}
);
layerId = "5C20EF92-B63D-42A8-8878-93C2863E0093";
shapes = (
{
closed = 1;
nodes = (
(651,1541,o),
(736,1620,o),
(916,1620,cs),
(1088,1620,o),
(1163,1554,o),
(1164,1464,cs),
(1169,1366,o),
(1082,1309,o),
(888,1268,cs),
(720,1232,ls),
(268,1135,o),
(82,916,o),
(80,604,cs),
(82,200,o),
(393,-24,o),
(912,-24,cs),
(1446,-24,o),
(1794,206,o),
(1796,720,c),
(1268,720,l),
(1259,532,o),
(1133,432,o),
(920,432,cs),
(742,432,o),
(650,503,o),
(648,604,cs,{
name = hr00;
}),
(650,697,o),
(728,754,o),
(956,804,cs),
(1160,848,ls),
(1523,926,o),
(1745,1104,o),
(1744,1424,cs),
(1747,1814,o),
(1403,2076,o),
(916,2076,cs),
(420,2076,o),
(110,1810,o),
(108,1408,c),
(640,1408,l)
);
}
);
width = 1876;
},
{
anchors = (
{
name = bottom;
pos = (828,-32);
},
{
name = cedilla;
pos = (828,0);
},
{
name = top;
pos = (828,2304);
}
);
layerId = "B1F27B51-9973-4381-9301-4FE46FE1CA59";
shapes = (
{
closed = 1;
nodes = (
(296,1816,o),
(503,2016,o),
(820,2016,cs),
(1133,2016,o),
(1364,1821,o),
(1364,1552,cs),
(1364,1344,o),
(1226,1202,o),
(932,1112,cs),
(700,1040,ls),
(346,931,o),
(184,772,o),
(184,520,cs),
(184,199,o),
(448,-32,o),
(836,-32,cs),
(1210,-32,o),
(1456,179,o),
(1476,480,c),
(1412,480,l),
(1392,215,o),
(1174,32,o),
(836,32,cs),
(484,32,o),
(248,230,o),
(248,520,cs),
(248,740,o),
(385,873,o),
(716,976,cs),
(948,1048,ls),
(1270,1149,o),
(1428,1315,o),
(1428,1552,cs),
(1428,1854,o),
(1170,2080,o),
(820,2080,cs),
(469,2080,o),
(232,1852,o),
(212,1536,c),
(276,1536,l)
);
}
);
width = 1660;
},
{
anchors = (
{
name = bottom;
pos = (876,-36);
},
{
name = cedilla;
pos = (878,0);
},
{
name = top;
pos = (882,2304);
}
);
layerId = "CD0E3B44-F66A-4791-B84C-A1128DC61275";
shapes = (
{
closed = 1;
nodes = (
(438,1734,o),
(622,1850,o),
(868,1850,cs),
(1138,1850,o),
(1316,1708,o),
(1316,1514,cs),
(1316,1298,o),
(1076,1218,o),
(922,1178,cs),
(716,1122,ls),
(498,1066,o),
(138,940,o),
(138,558,cs),
(138,224,o),
(408,-36,o),
(880,-36,cs),
(1322,-36,o),
(1596,192,o),
(1620,532,c),
(1358,532,l),
(1338,302,o),
(1124,194,o),
(880,194,cs),
(600,194,o),
(386,340,o),
(386,562,cs),
(386,762,o),
(576,838,o),
(792,898,cs),
(1042,968,ls),
(1364,1060,o),
(1564,1224,o),
(1564,1502,cs),
(1564,1848,o),
(1256,2076,o),
(862,2076,cs),
(462,2076,o),
(178,1844,o),
(166,1532,c),
(414,1532,l)
);
}
);
width = 1758;
}
);
metricLeft = S;
metricRight = S;
unicode = 423;
userData = {
interface.gridadjust.original = "{'width': 1672.0, 'leftMargin': 105, 'rightMargin': 109.0}";
"interface.width-adjustments" = (
-16
);
};
}
{
glyphname = Vcursive;
layers = (
{
background = {
shapes = (
{
closed = 1;
nodes = (
(1493,-28,o),
(1817,244,o),
(1816,716,cs),
(1816,1408,ls),
(1817,1808,o),
(1589,2028,o),
(1204,2028,cs),
(1105,2028,o),
(1049,2024,o),
(964,2004,c),
(964,1576,l),
(1021,1584,o),
(1065,1588,o),
(1108,1588,cs),
(1245,1588,o),
(1273,1548,o),
(1272,1408,cs),
(1272,716,ls),
(1273,520,o),
(1201,400,o),
(980,400,cs),
(757,400,o),
(677,520,o),
(676,716,cs),
(676,2004,l),
(140,2004,l),
(140,716,ls),
(141,240,o),
(481,-28,o),
(980,-28,cs)
);
}
);
};
layerId = "5C20EF92-B63D-42A8-8878-93C2863E0093";
shapes = (
{
closed = 1;
nodes = (
(1493,-28,o),
(1816,244,o),
(1816,716,cs),
(1816,1456,ls),
(1816,1856,o),
(1595,2076,o),
(1190,2076,cs),
(1111,2076,o),
(1049,2069,o),
(964,2052,c),
(964,1624,l),
(1021,1632,o),
(1065,1636,o),
(1108,1636,cs),
(1245,1636,o),
(1272,1596,o),
(1272,1456,cs),
(1272,716,ls),
(1272,520,o),
(1201,400,o),
(980,400,cs),
(757,400,o),
(676,520,o),
(676,716,cs),
(676,2048,l),
(140,2048,l),
(140,716,ls),
(140,240,o),
(481,-28,o),
(980,-28,cs)
);
}
);
width = 1952;
},
{
background = {
shapes = (
{
closed = 1;
nodes = (
(1232,-32,o),
(1502,218,o),
(1502,652,cs),
(1502,1694,ls),
(1502,1920,o),
(1408,2034,o),
(1214,2034,cs),
(1172,2034,o),
(1134,2030,o),
(1094,2016,c),
(1094,1952,l),
(1136,1966,o),
(1166,1970,o),
(1206,1970,cs),
(1372,1970,o),
(1438,1888,o),
(1438,1694,cs),
(1438,652,ls),
(1438,254,o),
(1196,32,o),
(826,32,cs),
(464,32,o),
(234,248,o),
(234,652,cs),
(234,2002,l),
(170,2002,l),
(170,652,ls),
(170,212,o),
(428,-32,o),
(826,-32,cs)
);
}
);
};
layerId = "B1F27B51-9973-4381-9301-4FE46FE1CA59";
shapes = (
{
closed = 1;
nodes = (
(1200,-32,o),
(1470,218,o),
(1470,652,cs),
(1470,1736,ls),
(1470,1962,o),
(1376,2076,o),
(1180,2076,cs),
(1140,2076,o),
(1102,2071,o),
(1062,2058,c),
(1062,1994,l),
(1104,2007,o),
(1134,2012,o),
(1174,2012,cs),
(1340,2012,o),
(1406,1930,o),
(1406,1736,cs),
(1406,652,ls),
(1406,254,o),
(1164,32,o),
(794,32,cs),
(432,32,o),
(202,248,o),
(202,652,cs),
(202,2048,l),
(138,2048,l),
(138,652,ls),
(138,212,o),
(396,-32,o),
(794,-32,cs)
);
}
);
width = 1608;
},
{
layerId = "CD0E3B44-F66A-4791-B84C-A1128DC61275";
shapes = (
{
closed = 1;
nodes = (
(1260,-28,o),
(1604,198,o),
(1604,650,cs),
(1604,1592,ls),
(1604,1902,o),
(1412,2076,o),
(1164,2076,cs),
(1100,2076,o),
(1034,2064,o),
(992,2052,c),
(992,1826,l),
(1018,1832,o),
(1062,1834,o),
(1086,1834,cs),
(1228,1834,o),
(1308,1772,o),
(1308,1592,cs),
(1308,650,ls),
(1308,344,o),
(1136,204,o),
(868,204,cs),
(602,204,o),
(428,344,o),
(428,650,cs),
(428,2048,l),
(138,2048,l),
(138,650,ls),
(138,198,o),
(454,-28,o),
(868,-28,cs)
);
}
);
width = 1738;
}
);
unicode = 434;
userData = {
interface.gridadjust.original = "{'width': 1830, 'leftMargin': 186, 'rightMargin': 185}";
"interface.width-adjustments" = (
-16
);
};
}
{
glyphname = tonefive;
layers = (
{
layerId = "5C20EF92-B63D-42A8-8878-93C2863E0093";
shapes = (
{
closed = 1;
nodes = (
(923,636,o),
(987,640,o),
(1084,640,cs),
(1211,640,o),
(1291,592,o),
(1292,520,cs),
(1291,436,o),
(1227,392,o),
(1096,392,cs),
(963,392,o),
(883,408,o),
(868,476,c),
(352,460,l),
(351,116,o),
(695,-24,o),
(1096,-24,cs),
(1599,-24,o),
(1807,184,o),
(1808,472,cs),
(1807,776,o),
(1599,956,o),
(1244,956,cs),
(1095,956,o),
(987,928,o),
(924,900,c),
(960,1096,l),
(1684,1096,l),
(1684,1488,l),
(544,1488,l),
(420,640,l),
(896,624,l,{
name = hr00;
})
);
},
{
closed = 1;
nodes = (
(252,1488,l),
(252,1096,l),
(704,1096,l),
(704,1488,l)
);
}
);
width = 2060;
},
{
layerId = "B1F27B51-9973-4381-9301-4FE46FE1CA59";
shapes = (
{
closed = 1;
nodes = (
(305,845,o),
(452,928,o),
(606,926,cs),
(844,923,o),
(998,749,o),
(998,484,cs),
(998,210,o),
(828,40,o),
(554,40,cs),
(309,40,o),
(151,190,o),
(160,412,c),
(96,396,l),
(97,145,o),
(281,-24,o),
(554,-24,cs),
(867,-24,o),
(1063,178,o),
(1060,496,cs),
(1058,791,o),
(869,994,o),
(600,990,cs),
(464,988,o),
(331,931,o),
(254,842,c),
(316,1424,l),
(1012,1424,l),
(1012,1488,l),
(258,1488,l),
(178,726,l),
(240,720,l,{
name = hr00;
})
);
},
{
closed = 1;
nodes = (
(24,1488,l),
(24,1424,l),
(364,1424,l),
(364,1488,l)
);
}
);
width = 1080;
},
{
associatedMasterId = "CD0E3B44-F66A-4791-B84C-A1128DC61275";
layerId = "03FA3C36-AA0D-427F-A76F-3303F205FF62";
shapes = (
{
closed = 1;
nodes = (
(552,722,o),
(632,788,o),
(786,788,cs),
(988,788,o),
(1092,670,o),
(1092,496,cs),
(1092,326,o),
(998,204,o),
(780,204,cs),
(600,204,o),
(474,298,o),
(474,444,c),
(204,420,l),
(204,120,o),
(520,-24,o),
(780,-24,cs),
(1202,-24,o),
(1370,204,o),
(1370,496,cs),
(1370,826,o),
(1174,1018,o),
(842,1010,c),
(736,1006,o),
(612,968,o),
(552,928,c),
(592,1248,l),
(1294,1248,l),
(1294,1488,l),
(356,1488,l),
(260,668,l),
(502,648,l,{
name = hr00;
})
);
},
{
closed = 1;
nodes = (
(100,1488,l),
(100,1248,l),
(516,1248,l),
(516,1488,l)
);
}
);
width = 1469.63774;
},
{
layerId = "CD0E3B44-F66A-4791-B84C-A1128DC61275";
shapes = (
{
closed = 1;
nodes = (
(558,722,o),
(638,788,o),
(792,788,cs),
(994,788,o),
(1098,670,o),
(1098,496,cs),
(1098,326,o),
(1004,204,o),
(786,204,cs),
(606,204,o),
(480,298,o),
(480,444,c),
(210,420,l),
(210,120,o),
(526,-24,o),
(786,-24,cs),
(1208,-24,o),
(1376,204,o),
(1376,496,cs),
(1376,826,o),
(1180,1018,o),
(848,1010,c),
(742,1006,o),
(618,968,o),
(558,928,c),
(598,1248,l),
(1300,1248,l),
(1300,1488,l),
(362,1488,l),
(266,668,l),
(508,648,l,{
name = hr00;
})
);
},
{
closed = 1;
nodes = (
(106,1488,l),
(106,1248,l),
(522,1248,l),
(522,1488,l)
);
}
);
width = 1482;
}
);
unicode = 445;
userData = {
interface.gridadjust.original = "{'width': 1411, 'leftMargin': 55, 'rightMargin': 90}";
"interface.width-adjustments" = (
-16
);
};
}
{
glyphname = glottalstopbarinv;
layers = (
{
layerId = "5C20EF92-B63D-42A8-8878-93C2863E0093";
shapes = (
{
closed = 1;
nodes = (
(1046,348,o),
(970,316,o),
(860,316,cs),
(750,316,o),
(638,356,o),
(628,480,c),
(148,480,l),
(150,252,o),
(394,-28,o),
(848,-28,cs),
(1274,-28,o),
(1542,172,o),
(1540,436,cs),
(1542,912,o),
(1034,732,o),
(1032,1152,cs),
(1032,1868,l),
(512,1868,l),
(512,1164,ls),
(514,572,o),
(1046,624,o),
(1044,428,cs,{
name = hr00;
})
);
},
{
closed = 1;
nodes = (
(328,1488,l),
(328,1120,l),
(1284,1120,l),
(1284,1488,l)
);
}
);
width = 1688;
},
{
layerId = "B1F27B51-9973-4381-9301-4FE46FE1CA59";
shapes = (
{
closed = 1;
nodes = (
(1156,180,o),
(958,38,o),
(680,38,cs),
(378,38,o),
(208,242,o),
(208,460,c),
(144,460,l),
(144,206,o),
(343,-26,o),
(678,-26,cs),
(996,-26,o),
(1220,143,o),
(1220,394,cs),
(1220,783,o),
(692,680,o),
(692,1122,cs),
(692,1834,l),
(628,1834,l),
(628,1122,ls),
(628,643,o),
(1156,728,o),
(1156,394,cs)
);
},
{
closed = 1;
nodes = (
(288,1470,l),
(288,1406,l),
(1032,1406,l),
(1032,1470,l)
);
}
);
width = 1356;
},
{
layerId = "CD0E3B44-F66A-4791-B84C-A1128DC61275";
shapes = (
{
closed = 1;
nodes = (
(1062,282,o),
(954,196,o),
(760,196,cs),
(606,196,o),
(430,262,o),
(422,468,c),
(142,468,l),
(142,216,o),
(358,-28,o),
(760,-28,cs),
(1110,-28,o),
(1342,156,o),
(1342,420,cs),
(1342,834,o),
(842,744,o),
(842,1086,cs),
(842,1844,l),
(560,1844,l),
(560,1078,ls),
(560,622,o),
(1062,666,o),
(1062,396,cs)
);
},
{
closed = 1;
nodes = (
(294,1488,l),
(294,1280,l),
(1114,1280,l),
(1114,1488,l)
);
}
);
width = 1480;
}
);
unicode = 446;
userData = {
interface.gridadjust.original = "{'width': 1459, 'leftMargin': 129, 'rightMargin': 135}";
"interface.width-adjustments" = (
-16
);
};
}
{
glyphname = uni0221;
kernLeft = c;
layers = (
{
layerId = "5C20EF92-B63D-42A8-8878-93C2863E0093";
shapes = (
{
closed = 1;
nodes = (
(1128,-16,l),
(1129,-352,o),
(1289,-576,o),
(1784,-576,cs),
(2173,-576,o),
(2357,-444,o),
(2356,-224,cs),
(2357,12,o),
(2149,180,o),
(1748,180,cs),
(1521,180,o),
(1357,128,o),
(1184,40,c),
(744,-272,l),
(952,-592,l),
(1388,-292,ls),
(1553,-179,o),
(1677,-112,o),
(1752,-108,cs),
(1865,-102,o),
(1909,-152,o),
(1908,-208,cs),
(1909,-256,o),
(1861,-288,o),
(1800,-288,cs),
(1737,-288,o),
(1685,-256,o),
(1684,-168,c),
(1684,348,l),
(1128,348,l)
);
},
{
pos = (8,0);
ref = d;
}
);
width = 2020;
},
{
layerId = "B1F27B51-9973-4381-9301-4FE46FE1CA59";
shapes = (
{
closed = 1;
nodes = (
(1264,-220,l),
(1264,-415,o),
(1420,-564,o),
(1620,-564,cs),
(1815,-564,o),
(1968,-425,o),
(1968,-252,cs),
(1968,-79,o),
(1815,60,o),
(1616,60,cs),
(1435,60,o),
(1293,-56,o),
(1098,-368,cs),
(1008,-512,l),
(1062,-544,l),
(1150,-404,ls),
(1333,-113,o),
(1460,-4,o),
(1616,-4,cs),
(1778,-4,o),
(1904,-115,o),
(1904,-252,cs),
(1904,-389,o),
(1780,-500,o),
(1620,-500,cs),
(1454,-500,o),
(1328,-380,o),
(1328,-220,cs),
(1328,82,l),
(1264,82,l)
);
},
{
alignment = -1;
pos = (-4,0);
ref = d;
}
);
width = 1962;
},
{
layerId = "CD0E3B44-F66A-4791-B84C-A1128DC61275";
shapes = (
{
closed = 1;
nodes = (
(1238,-140,l),
(1238,-348,o),
(1356,-576,o),
(1668,-576,cs),
(1920,-576,o),
(2076,-428,o),
(2076,-212,cs),
(2076,8,o),
(1912,152,o),
(1688,152,cs),
(1538,152,o),
(1370,86,o),
(1240,-46,cs),
(926,-366,l),
(1078,-526,l),
(1456,-148,ls),
(1518,-86,o),
(1596,-42,o),
(1692,-58,cs),
(1776,-68,o),
(1828,-128,o),
(1828,-212,cs),
(1828,-302,o),
(1764,-370,o),
(1668,-370,cs),
(1570,-370,o),
(1482,-298,o),
(1482,-164,c),
(1482,336,l),
(1238,336,l)
);
},
{
alignment = -1;
ref = d;
}
);
width = 1986;
}
);
unicode = 545;
userData = {
interface.gridadjust.original = "{'width': 2013.0, 'leftMargin': 256, 'rightMargin': 41.0}";
"interface.width-adjustments" = (
-16
);
};
}
{
glyphname = ncurl;
kernLeft = m;
kernRight = t;
layers = (
{
layerId = "5C20EF92-B63D-42A8-8878-93C2863E0093";
shapes = (
{
closed = 1;
nodes = (
(1136,0,ls),
(1136,-376,o),
(1429,-485,o),
(1700,-484,cs),
(2055,-483,o),
(2273,-296,o),
(2272,-36,cs),
(2271,219,o),
(2060,404,o),
(1788,404,cs),
(1490,404,o),
(1254,424,o),
(936,44,cs),
(772,-152,l),
(1024,-364,l),
(1228,-120,ls),
(1392,76,o),
(1687,107,o),
(1760,104,cs),
(1814,102,o),
(1864,65,o),
(1864,0,cs),
(1864,-65,o),
(1832,-104,o),
(1780,-104,cs),
(1723,-104,o),
(1688,-65,o),
(1688,0,cs),
(1688,128,l),
(1136,128,l)
);
},
{
ref = n;
}
);
width = 2336;
},
{
layerId = "B1F27B51-9973-4381-9301-4FE46FE1CA59";
shapes = (
{
closed = 1;
nodes = (
(1232,0,l),
(1232,-195,o),
(1388,-344,o),
(1588,-344,cs),
(1783,-344,o),
(1936,-205,o),
(1936,-32,cs),
(1936,141,o),
(1783,280,o),
(1584,280,cs),
(1403,280,o),
(1261,164,o),
(1066,-148,cs),
(976,-292,l),
(1030,-324,l),
(1118,-184,ls),
(1301,107,o),
(1428,216,o),
(1584,216,cs),
(1746,216,o),
(1872,105,o),
(1872,-32,cs),
(1872,-169,o),
(1748,-280,o),
(1588,-280,cs),
(1422,-280,o),
(1296,-160,o),
(1296,0,cs),
(1296,302,l),
(1232,302,l)
);
},
{
alignment = -1;
ref = n;
}
);
width = 2080;
},
{
layerId = "CD0E3B44-F66A-4791-B84C-A1128DC61275";
shapes = (
{
closed = 1;
nodes = (
(1172,86,l),
(1172,-122,o),
(1294,-348,o),
(1600,-348,cs),
(1850,-348,o),
(2008,-198,o),
(2008,18,cs),
(2008,240,o),
(1844,384,o),
(1622,384,cs),
(1466,384,o),
(1300,318,o),
(1168,180,cs),
(860,-136,l),
(1014,-294,l),
(1292,-2,ls),
(1378,88,o),
(1464,170,o),
(1590,170,cs),
(1692,170,o),
(1760,114,o),
(1760,20,cs),
(1760,-72,o),
(1698,-140,o),
(1602,-140,cs),
(1504,-140,o),
(1416,-64,o),
(1416,28,c),
(1416,148,l),
(1172,148,l)
);
},
{
alignment = -1;
ref = n;
}
);
width = 2104;
}
);
metricLeft = n;
metricRight = t;
unicode = 565;
userData = {
interface.gridadjust.original = "{'width': 1987, 'leftMargin': 188, 'rightMargin': 41}";
"interface.width-adjustments" = (
-16
);
};
}
{
glyphname = tcurl;
kernLeft = t;
kernRight = t;
layers = (
{
background = {
shapes = (
{
pos = (144,0);
ref = t;
}
);
};
layerId = "5C20EF92-B63D-42A8-8878-93C2863E0093";
shapes = (
{
closed = 1;
nodes = (
(384,528,ls),
(384,48,o),
(741,-32,o),
(988,-32,cs),
(1415,-32,o),
(1520,236,o),
(1520,416,cs),
(1520,648,o),
(1341,820,o),
(1080,820,cs),
(822,820,o),
(392,652,o),
(44,292,c),
(256,4,l),
(556,324,o),
(885,472,o),
(1032,472,cs),
(1079,472,o),
(1112,442,o),
(1112,400,cs),
(1112,351,o),
(1081,316,o),
(1036,316,cs),
(977,316,o),
(936,359,o),
(936,420,cs),
(936,1904,l),
(384,1904,l)
);
},
{
closed = 1;
nodes = (
(188,1536,l),
(188,1136,l),
(1200,1136,l),
(1200,1536,l)
);
}
);
width = 1584;
},
{
guides = (
{
angle = 90;
pos = (288,908);
}
);
layerId = "B1F27B51-9973-4381-9301-4FE46FE1CA59";
shapes = (
{
closed = 1;
nodes = (
(360,316,ls),
(360,121,o),
(516,-28,o),
(716,-28,cs),
(911,-28,o),
(1064,111,o),
(1064,284,cs),
(1064,457,o),
(911,596,o),
(712,596,cs),
(507,596,o),
(349,449,o),
(112,36,c),
(168,4,l),
(394,399,o),
(534,532,o),
(712,532,cs),
(874,532,o),
(1000,421,o),
(1000,284,cs),
(1000,147,o),
(876,36,o),
(716,36,cs),
(550,36,o),
(424,156,o),
(424,316,cs),
(424,1904,l),
(360,1904,l)
);
},
{
closed = 1;
nodes = (
(136,1536,l),
(136,1472,l),
(744,1472,l),
(744,1536,l)
);
}
);
width = 1208;
},
{
associatedMasterId = "B1F27B51-9973-4381-9301-4FE46FE1CA59";
background = {
shapes = (
{
closed = 1;
nodes = (
(897,4,o),
(1040,147,o),
(1040,324,cs),
(1040,501,o),
(897,644,o),
(720,644,cs),
(543,644,o),
(400,501,o),
(400,324,cs),
(400,147,o),
(543,4,o),
(720,4,cs)
);
},
{
closed = 1;
nodes = (
(368,324,ls),
(368,108,o),
(532,-28,o),
(720,-28,cs),
(768,-28,o),
(804,-20,o),
(844,-4,c),
(824,56,l),
(788,44,o),
(760,36,o),
(720,36,cs),
(568,36,o),
(432,144,o),
(432,324,cs),
(432,1904,l),
(368,1904,l)
);
}
);
};
guides = (
{
angle = 90;
pos = (400,324);
},
{
pos = (1048,644);
}
);
layerId = "DA8170FF-E5D6-4918-B9CC-C345C9652615";
name = "Nov 26 18, 10:42";
shapes = (
{
closed = 1;
nodes = (
(144,1536,l),
(144,1472,l),
(752,1472,l),
(752,1536,l)
);
},
{
closed = 0;
nodes = (
(148,20,l),
(368,404,o),
(517,564,o),
(720,564,cs),
(902,564,o),
(1040,437,o),
(1040,284,cs),
(1040,131,o),
(901,4,o),
(728,4,cs),
(545,4,o),
(400,147,o),
(400,324,cs),
(400,1904,l)
);
}
);
width = 1186;
},
{
layerId = "CD0E3B44-F66A-4791-B84C-A1128DC61275";
shapes = (
{
closed = 1;
nodes = (
(378,404,ls),
(378,192,o),
(500,-32,o),
(806,-32,cs),
(1064,-32,o),
(1222,126,o),
(1222,346,cs),
(1222,546,o),
(1086,700,o),
(828,700,cs),
(570,700,o),
(410,546,o),
(66,178,c),
(218,20,l),
(542,364,o),
(690,484,o),
(796,484,cs),
(932,484,o),
(974,414,o),
(974,334,cs),
(974,228,o),
(896,176,o),
(808,176,cs),
(702,176,o),
(622,250,o),
(622,342,cs),
(622,1904,l),
(378,1904,l)
);
},
{
closed = 1;
nodes = (
(146,1536,l),
(146,1332,l),
(948,1332,l),
(948,1536,l)
);
}
);
width = 1318;
}
);
metricLeft = t;
metricRight = t;
note = "recipe: offset curve 32, no auto";
unicode = 566;
userData = {
interface.gridadjust.original = "{'width': 1233, 'leftMargin': 28, 'rightMargin': 41}";
"interface.width-adjustments" = (
-16
);
};
}
{
glyphname = uni023C;
kernLeft = c;
kernRight = c;
layers = (
{
layerId = "5C20EF92-B63D-42A8-8878-93C2863E0093";
shapes = (
{
closed = 1;
nodes = (
(1124,2048,l),
(324,-576,l),
(604,-576,l),
(1408,2048,l)
);
},
{
ref = c;
}
);
width = 1708;
},
{
layerId = "B1F27B51-9973-4381-9301-4FE46FE1CA59";
shapes = (
{
closed = 1;
nodes = (
(1352,2048,l),
(148,-576,l),
(224,-576,l),
(1420,2048,l)
);
},
{
alignment = -1;
pos = (46,0);
ref = c;
}
);
width = 1568;
},
{
layerId = "CD0E3B44-F66A-4791-B84C-A1128DC61275";
shapes = (
{
closed = 1;
nodes = (
(1212,2048,l),
(166,-576,l),
(360,-576,l),
(1402,2048,l)
);
},
{
alignment = -1;
ref = c;
}
);
width = 1534;
}
);
metricLeft = c;
metricRight = c;
unicode = 572;
userData = {
interface.gridadjust.original = "{'width': 1480, 'leftMargin': 110, 'rightMargin': -48}";
"interface.width-adjustments" = (
-16
);
};
}
{
glyphname = uni0247;
kernLeft = c;
kernRight = e;
layers = (
{
layerId = "5C20EF92-B63D-42A8-8878-93C2863E0093";
shapes = (
{
closed = 1;
nodes = (
(1124,2048,l),
(324,-576,l),
(604,-576,l),
(1408,2048,l)
);
},
{
ref = e;
}
);
width = 1712;
},
{
layerId = "B1F27B51-9973-4381-9301-4FE46FE1CA59";
shapes = (
{
closed = 1;
nodes = (
(1352,2048,l),
(148,-576,l),
(224,-576,l),
(1420,2048,l)
);
},
{
alignment = -1;
pos = (46,0);
ref = e;
}
);
width = 1606;
},
{
layerId = "CD0E3B44-F66A-4791-B84C-A1128DC61275";
shapes = (
{
closed = 1;
nodes = (
(1212,2048,l),
(166,-576,l),
(360,-576,l),
(1402,2048,l)
);
},
{
alignment = -1;
ref = e;
}
);
width = 1602;
}
);
metricLeft = e;
metricRight = e;
unicode = 583;
userData = {
interface.gridadjust.original = "{'width': 1502, 'leftMargin': 110, 'rightMargin': 102}";
"interface.width-adjustments" = (
-16
);
};
}
{
glyphname = qrthook;
kernLeft = m;
kernRight = rthook;
layers = (
{
background = {
shapes = (
{
ref = q;
}
);
};
layerId = "5C20EF92-B63D-42A8-8878-93C2863E0093";
shapes = (
{
closed = 1;
nodes = (
(1864,-576,o),
(1960,-564,o),
(2016,-560,c),
(2016,-152,l),
(1972,-156,o),
(1932,-160,o),
(1892,-160,cs),
(1796,-160,o),
(1684,-140,o),
(1684,-48,cs),
(1684,64,l),
(1132,64,l),
(1132,-48,ls),
(1132,-500,o),
(1404,-576,o),
(1740,-576,cs)
);
},
{
closed = 1;
nodes = (
(912,-20,o),
(1060,96,o),
(1124,252,c),
(1352,252,l),
(1352,1268,l),
(1124,1268,l),
(1064,1424,o),
(920,1556,o),
(692,1556,cs),
(388,1556,o),
(92,1324,o),
(92,768,cs),
(92,236,o),
(368,-20,o),
(696,-20,cs)
);
},
{
closed = 1;
nodes = (
(1684,1536,l),
(1136,1536,l),
(1136,1184,l),
(1256,768,l),
(1132,344,l),
(1132,64,l),
(1684,64,l)
);
},
{
closed = 1;
nodes = (
(748,404,o),
(660,540,o),
(660,768,cs),
(660,996,o),
(748,1132,o),
(900,1132,cs),
(1052,1132,o),
(1144,996,o),
(1144,768,cs),
(1144,544,o),
(1052,404,o),
(900,404,cs)
);
}
);
width = 2016;
},
{
layerId = "B1F27B51-9973-4381-9301-4FE46FE1CA59";
shapes = (
{
closed = 1;
nodes = (
(1550,-572,o),
(1586,-570,o),
(1620,-566,c),
(1620,-502,l),
(1585,-506,o),
(1548,-508,o),
(1522,-508,cs),
(1381,-508,o),
(1332,-445,o),
(1332,-276,cs),
(1332,20,l,{
name = hr00;
}),
(1268,20,l),
(1268,-276,ls),
(1268,-483,o),
(1346,-572,o),
(1522,-572,cs)
);
},
{
closed = 1;
nodes = (
(984,-32,o),
(1180,128,o),
(1260,384,c),
(1306,384,l),
(1298,1144,l),
(1260,1144,l),
(1178,1400,o),
(988,1560,o),
(740,1560,cs),
(378,1560,o),
(148,1218,o),
(148,764,cs),
(148,312,o),
(380,-32,o),
(740,-32,cs)
);
},
{
closed = 1;
nodes = (
(1332,1536,l),
(1268,1536,l),
(1268,1144,l),
(1288,768,l),
(1268,384,l),
(1268,-176,l),
(1332,-176,l)
);
},
{
closed = 1;
nodes = (
(416,32,o),
(212,348,o),
(212,764,cs),
(212,1180,o),
(414,1496,o),
(740,1496,cs),
(1066,1496,o),
(1268,1180,o),
(1268,764,cs),
(1268,348,o),
(1064,32,o),
(740,32,cs)
);
}
);
width = 1594;
},
{
associatedMasterId = "CD0E3B44-F66A-4791-B84C-A1128DC61275";
layerId = "67508208-2A17-40B4-8531-EF754B2C2EB9";
shapes = (
{
closed = 1;
nodes = (
(1684,-576,o),
(1738,-576,o),
(1774,-564,c),
(1774,-358,l),
(1752,-362,o),
(1724,-366,o),
(1696,-366,cs),
(1570,-366,o),
(1472,-320,o),
(1472,-162,cs),
(1472,-60,l),
(1228,-60,l),
(1228,-162,ls),
(1228,-430,o),
(1408,-576,o),
(1634,-576,cs)
);
},
{
closed = 1;
nodes = (
(1056,-32,o),
(1156,150,o),
(1210,236,c),
(1328,236,l),
(1328,1292,l),
(1210,1292,l),
(1158,1374,o),
(1064,1556,o),
(766,1556,cs),
(380,1556,o),
(110,1250,o),
(110,764,cs),
(110,276,o),
(380,-32,o),
(762,-32,cs)
);
},
{
closed = 1;
nodes = (
(1472,1536,l),
(1236,1536,l),
(1236,1246,l),
(1310,752,l),
(1228,364,l),
(1228,-60,l),
(1472,-60,l)
);
},
{
closed = 1;
nodes = (
(506,186,o),
(356,442,o),
(356,768,cs),
(356,1090,o),
(502,1338,o),
(798,1338,cs),
(1082,1338,o),
(1234,1110,o),
(1234,768,cs),
(1234,424,o),
(1078,186,o),
(798,186,cs)
);
}
);
width = 1741.69057;
},
{
layerId = "CD0E3B44-F66A-4791-B84C-A1128DC61275";
shapes = (
{
closed = 1;
nodes = (
(1696,-576,o),
(1750,-576,o),
(1786,-564,c),
(1786,-358,l),
(1764,-362,o),
(1736,-366,o),
(1708,-366,cs),
(1582,-366,o),
(1484,-320,o),
(1484,-162,cs),
(1484,-60,l),
(1240,-60,l),
(1240,-162,ls),
(1240,-430,o),
(1420,-576,o),
(1646,-576,cs)
);
},
{
closed = 1;
nodes = (
(1068,-32,o),
(1168,150,o),
(1222,236,c),
(1340,236,l),
(1340,1292,l),
(1222,1292,l),
(1170,1374,o),
(1076,1556,o),
(778,1556,cs),
(392,1556,o),
(122,1250,o),
(122,764,cs),
(122,276,o),
(392,-32,o),
(774,-32,cs)
);
},
{
closed = 1;
nodes = (
(1484,1536,l),
(1248,1536,l),
(1248,1246,l),
(1322,752,l),
(1240,364,l),
(1240,-60,l),
(1484,-60,l)
);
},
{
closed = 1;
nodes = (
(518,186,o),
(368,442,o),
(368,768,cs),
(368,1090,o),
(514,1338,o),
(810,1338,cs),
(1094,1338,o),
(1246,1110,o),
(1246,768,cs),
(1246,424,o),
(1090,186,o),
(810,186,cs)
);
}
);
width = 1764;
}
);
metricLeft = q;
unicode = 587;
userData = {
interface.gridadjust.original = "{'width': 1662, 'leftMargin': 127, 'rightMargin': -14}";
"interface.width-adjustments" = (
-16
);
};
}
{
glyphname = uni024F;
kernLeft = v;
kernRight = v;
layers = (
{
layerId = "5C20EF92-B63D-42A8-8878-93C2863E0093";
shapes = (
{
closed = 1;
nodes = (
(16,996,l),
(16,760,l),
(1716,760,l),
(1716,996,l,{
name = hr00;
})
);
},
{
pos = (24,0);
ref = y;
}
);
width = 1732;
},
{
layerId = "B1F27B51-9973-4381-9301-4FE46FE1CA59";
shapes = (
{
closed = 1;
nodes = (
(148,1112,l),
(148,1048,l),
(1280,1048,l),
(1280,1112,l,{
name = hr00;
})
);
},
{
alignment = -1;
ref = y;
}
);
width = 1408;
},
{
layerId = "CD0E3B44-F66A-4791-B84C-A1128DC61275";
shapes = (
{
closed = 1;
nodes = (
(84,1094,l),
(84,908,l),
(1436,908,l),
(1436,1094,l)
);
},
{
alignment = -1;
ref = y;
}
);
width = 1532;
}
);
metricLeft = y;
metricRight = y;
unicode = 591;
userData = {
interface.gridadjust.original = "{'width': 1442, 'leftMargin': 41, 'rightMargin': -167}";
};
}
{
glyphname = ccurl;
kernLeft = c;
kernRight = c;
layers = (
{
background = {
shapes = (
{
ref = c;
}
);
};
layerId = "5C20EF92-B63D-42A8-8878-93C2863E0093";
shapes = (
{
closed = 1;
nodes = (
(896,376,l),
(752,376,o),
(656,516,o),
(656,768,cs),
(656,1020,o),
(752,1144,o),
(896,1144,cs),
(1020,1144,o),
(1100,1056,o),
(1116,896,c),
(1628,896,l),
(1624,1296,o),
(1340,1556,o),
(888,1556,cs),
(388,1556,o),
(92,1236,o),
(92,764,cs),
(92,277,o),
(400,-28,o),
(896,-28,c)
);
},
{
closed = 1;
nodes = (
(981,420,o),
(1049,500,o),
(1124,500,cs),
(1154,500,o),
(1172,480,o),
(1168,452,cs),
(1162,407,o),
(1083,376,o),
(896,376,c),
(896,-28,l),
(1418,-28,o),
(1638,213,o),
(1636,468,cs),
(1634,709,o),
(1436,832,o),
(1172,832,cs),
(804,832,o),
(624,592,o),
(248,20,c),
(592,-192,l)
);
}
);
width = 1724;
},
{
layerId = "B1F27B51-9973-4381-9301-4FE46FE1CA59";
shapes = (
{
closed = 1;
nodes = (
(796,32,l),
(450,32,o),
(204,337,o),
(204,764,cs),
(204,1186,o),
(450,1496,o),
(784,1496,cs),
(1029,1496,o),
(1223,1332,o),
(1264,1088,c),
(1332,1088,l),
(1285,1364,o),
(1061,1560,o),
(784,1560,cs),
(414,1560,o),
(140,1220,o),
(140,764,cs),
(140,302,o),
(414,-32,o),
(796,-32,c)
);
},
{
closed = 1;
nodes = (
(247,232,o),
(515,624,o),
(860,624,cs),
(1053,624,o),
(1188,495,o),
(1188,336,cs),
(1188,162,o),
(1023,32,o),
(796,32,c),
(796,-32,l),
(1057,-32,o),
(1252,124,o),
(1252,336,cs),
(1252,530,o),
(1088,688,o),
(860,688,cs),
(484,688,o),
(207,284,o),
(36,0,c),
(94,-32,l)
);
}
);
width = 1480;
},
{
associatedMasterId = "CD0E3B44-F66A-4791-B84C-A1128DC61275";
layerId = "7D712D05-EAB8-46C3-922A-8CE36BFBE50A";
shapes = (
{
closed = 1;
nodes = (
(810,184,l),
(532,184,o),
(354,414,o),
(354,768,cs),
(354,1114,o),
(536,1340,o),
(810,1340,cs),
(1016,1340,o),
(1138,1212,o),
(1174,1072,c),
(1416,1072,l),
(1378,1362,o),
(1132,1556,o),
(806,1556,cs),
(388,1556,o),
(110,1228,o),
(110,768,cs),
(110,296,o),
(380,-32,o),
(810,-32,c)
);
},
{
closed = 1;
nodes = (
(254,80,o),
(668,550,o),
(980,550,cs),
(1046,550,o),
(1136,508,o),
(1136,410,cs),
(1136,280,o),
(994,184,o),
(810,184,c),
(810,-32,l),
(1130,-32,o),
(1382,142,o),
(1382,418,cs),
(1382,618,o),
(1252,762,o),
(984,762,cs),
(488,762,o),
(116,260,o),
(-46,90,c),
(124,-56,l)
);
}
);
width = 1512.12075;
},
{
layerId = "CD0E3B44-F66A-4791-B84C-A1128DC61275";
shapes = (
{
closed = 1;
nodes = (
(814,184,l),
(536,184,o),
(358,414,o),
(358,768,cs),
(358,1114,o),
(540,1340,o),
(814,1340,cs),
(1020,1340,o),
(1142,1212,o),
(1178,1072,c),
(1420,1072,l),
(1382,1362,o),
(1136,1556,o),
(810,1556,cs),
(392,1556,o),
(114,1228,o),
(114,768,cs),
(114,296,o),
(384,-32,o),
(814,-32,c)
);
},
{
closed = 1;
nodes = (
(258,80,o),
(672,550,o),
(984,550,cs),
(1050,550,o),
(1140,508,o),
(1140,410,cs),
(1140,280,o),
(998,184,o),
(814,184,c),
(814,-32,l),
(1134,-32,o),
(1386,142,o),
(1386,418,cs),
(1386,618,o),
(1256,762,o),
(988,762,cs),
(492,762,o),
(120,260,o),
(-42,90,c),
(128,-56,l)
);
}
);
width = 1526;
}
);
metricRight = c;
unicode = 597;
userData = {
interface.gridadjust.original = "{'width': 1497, 'leftMargin': 52, 'rightMargin': 88}";
"interface.width-adjustments" = (
-16
);
};
}
{
glyphname = schwahook;
layers = (
{
layerId = "5C20EF92-B63D-42A8-8878-93C2863E0093";
shapes = (
{
closed = 1;
nodes = (
(562,1516,o),
(334,1384,o),
(248,1268,c),
(472,968,l),
(558,1072,o),
(694,1104,o),
(832,1104,cs),
(1030,1104,o),
(1166,988,o),
(1168,788,cs),
(1168,740,ls),
(1166,632,o),
(1158,388,o),
(924,388,cs),
(770,388,o),
(702,436,o),
(704,556,cs),
(704,576,l),
(1520,768,l),
(1520,1096,l),
(204,772,l),
(204,696,ls),
(202,244,o),
(478,-28,o),
(920,-28,cs),
(1442,-28,o),
(1678,332,o),
(1680,740,cs),
(1680,788,ls),
(1678,1168,o),
(1386,1516,o),
(868,1516,cs)
);
},
{
closed = 1;
nodes = (
(1724,820,l),
(1778,556,o),
(1838,348,o),
(2132,348,cs),
(2222,348,o),
(2310,372,o),
(2388,416,c),
(2324,736,l),
(2290,736,o),
(2262,732,o),
(2240,732,cs),
(2074,732,o),
(2086,892,o),
(2032,1212,c),
(1504,1088,l),
(1504,764,l)
);
}
);
width = 2588;
},
{
layerId = "B1F27B51-9973-4381-9301-4FE46FE1CA59";
shapes = (
{
closed = 1;
nodes = (
(339,1560,o),
(175,1459,o),
(56,1256,c),
(108,1220,l),
(223,1410,o),
(361,1496,o),
(548,1496,cs),
(864,1496,o),
(1072,1203,o),
(1072,756,cs),
(1072,748,ls),
(1072,343,o),
(858,32,o),
(580,32,cs),
(281,32,o),
(56,300,o),
(56,688,cs),
(56,696,l),
(1084,868,l),
(1084,932,l),
(-8,750,l),
(-8,686,ls),
(-8,267,o),
(241,-32,o),
(580,-32,cs),
(898,-32,o),
(1136,305,o),
(1136,760,cs),
(1136,764,ls),
(1136,1241,o),
(899,1560,o),
(548,1560,cs)
);
},
{
closed = 1;
nodes = (
(1222,890,l),
(1241,693,o),
(1328,580,o),
(1462,576,cs),
(1499,575,o),
(1536,582,o),
(1578,598,c),
(1562,652,l),
(1533,642,o),
(1504,637,o),
(1476,638,cs),
(1356,642,o),
(1289,747,o),
(1268,964,c),
(1094,934,l),
(1094,870,l)
);
}
);
width = 1570;
},
{
associatedMasterId = "CD0E3B44-F66A-4791-B84C-A1128DC61275";
layerId = "57513227-00DC-4D71-A3B8-1A90288E8D81";
shapes = (
{
closed = 1;
nodes = (
(348,1516,o),
(180,1372,o),
(80,1226,c),
(250,1092,l),
(336,1208,o),
(458,1292,o),
(636,1292,cs),
(906,1292,o),
(1058,1070,o),
(1058,800,cs),
(1058,740,ls),
(1058,390,o),
(906,196,o),
(686,196,cs),
(432,196,o),
(344,400,o),
(344,588,cs),
(344,626,l),
(1106,772,l),
(1106,1002,l),
(62,800,l),
(62,712,ls),
(62,290,o),
(246,-28,o),
(686,-28,cs),
(1022,-28,o),
(1340,254,o),
(1340,740,cs),
(1340,800,ls),
(1340,1214,o),
(1076,1516,o),
(648,1516,cs)
);
},
{
closed = 1;
nodes = (
(1400,832,l),
(1440,642,o),
(1512,480,o),
(1742,480,cs),
(1806,480,o),
(1866,500,o),
(1920,526,c),
(1882,696,l),
(1866,694,o),
(1846,692,o),
(1798,692,cs),
(1650,692,o),
(1616,852,o),
(1578,1092,c),
(1210,1022,l),
(1210,792,l)
);
}
);
width = 1982.03019;
},
{
layerId = "CD0E3B44-F66A-4791-B84C-A1128DC61275";
shapes = (
{
closed = 1;
nodes = (
(356,1516,o),
(188,1372,o),
(88,1226,c),
(258,1092,l),
(344,1208,o),
(466,1292,o),
(644,1292,cs),
(914,1292,o),
(1066,1070,o),
(1066,800,cs),
(1066,740,ls),
(1066,390,o),
(914,196,o),
(694,196,cs),
(440,196,o),
(352,400,o),
(352,588,cs),
(352,626,l),
(1114,772,l),
(1114,1002,l),
(70,800,l),
(70,712,ls),
(70,290,o),
(254,-28,o),
(694,-28,cs),
(1030,-28,o),
(1348,254,o),
(1348,740,cs),
(1348,800,ls),
(1348,1214,o),
(1084,1516,o),
(656,1516,cs)
);
},
{
closed = 1;
nodes = (
(1408,832,l),
(1448,642,o),
(1520,480,o),
(1750,480,cs),
(1814,480,o),
(1874,500,o),
(1928,526,c),
(1890,696,l),
(1874,694,o),
(1854,692,o),
(1806,692,cs),
(1658,692,o),
(1624,852,o),
(1586,1092,c),
(1218,1022,l),
(1218,792,l)
);
}
);
width = 1998;
}
);
unicode = 602;
userData = {
interface.gridadjust.original = "{'width': 1976, 'leftMargin': 102, 'rightMargin': 28}";
"interface.width-adjustments" = (
-16
);
};
}
{
glyphname = epsilon1rev;
kernLeft = epsilongreek;
kernRight = epsilongreek;
layers = (
{
anchors = (
{
name = top;
pos = (808,1792);
}
);
layerId = "5C20EF92-B63D-42A8-8878-93C2863E0093";
shapes = (
{
closed = 1;
nodes = (
(552,808,l),
(552,612,l),
(792,612,ls),
(898,612,o),
(1038,592,o),
(1040,480,cs),
(1038,420,o),
(970,348,o),
(816,348,cs),
(650,348,o),
(578,384,o),
(580,440,c),
(68,440,l),
(66,116,o),
(426,-28,o),
(772,-28,cs),
(1206,-28,o),
(1550,140,o),
(1552,420,cs),
(1550,672,o),
(1314,808,o),
(928,808,c)
);
},
{
closed = 1;
nodes = (
(928,752,l),
(1274,752,o),
(1526,916,o),
(1528,1120,c),
(1526,1404,o),
(1206,1556,o),
(772,1556,cs),
(402,1556,o),
(86,1384,o),
(88,1088,c),
(608,1088,l),
(606,1164,o),
(694,1180,o),
(808,1180,cs),
(950,1180,o),
(1006,1116,o),
(1008,1064,c),
(1006,996,o),
(918,952,o),
(792,952,cs),
(552,952,l),
(552,752,l)
);
}
);
width = 1676;
},
{
anchors = (
{
name = top;
pos = (720,1792);
}
);
layerId = "B1F27B51-9973-4381-9301-4FE46FE1CA59";
shapes = (
{
closed = 1;
nodes = (
(628,826,l),
(628,762,l),
(780,762,ls),
(1024,762,o),
(1223,615,o),
(1222,388,cs),
(1221,179,o),
(1034,36,o),
(740,36,cs),
(435,36,o),
(268,200,o),
(216,452,c),
(156,452,l),
(200,167,o),
(400,-28,o),
(740,-28,cs),
(1084,-28,o),
(1286,151,o),
(1286,392,cs),
(1286,664,o),
(1054,825,o),
(736,826,c)
);
},
{
closed = 1;
nodes = (
(736,762,l),
(1069,760,o),
(1255,896,o),
(1254,1140,cs),
(1253,1391,o),
(1051,1556,o),
(744,1556,cs),
(470,1556,o),
(278,1408,o),
(232,1128,c),
(296,1128,l),
(346,1379,o),
(505,1492,o),
(744,1492,cs),
(1014,1492,o),
(1187,1359,o),
(1190,1148,cs),
(1193,945,o),
(1042,826,o),
(780,826,cs),
(628,826,l),
(628,762,l)
);
}
);
width = 1534;
},
{
anchors = (
{
name = top;
pos = (744,1792);
}
);
associatedMasterId = "CD0E3B44-F66A-4791-B84C-A1128DC61275";
layerId = "EE127443-4CEF-4B27-90FC-C1F39AFA34B9";
shapes = (
{
closed = 1;
nodes = (
(586,800,l),
(586,686,l),
(772,686,ls),
(986,686,o),
(1122,574,o),
(1122,430,cs),
(1122,288,o),
(972,192,o),
(742,192,cs),
(518,192,o),
(404,274,o),
(364,448,c),
(110,448,l),
(144,158,o),
(388,-28,o),
(752,-28,cs),
(1110,-28,o),
(1376,150,o),
(1376,416,cs),
(1376,582,o),
(1274,800,o),
(798,800,c)
);
},
{
closed = 1;
nodes = (
(798,736,l),
(1264,736,o),
(1348,940,o),
(1348,1104,cs),
(1348,1388,o),
(1108,1556,o),
(756,1556,cs),
(406,1556,o),
(176,1390,o),
(138,1112,c),
(392,1112,l),
(424,1248,o),
(552,1340,o),
(756,1340,cs),
(966,1340,o),
(1102,1242,o),
(1102,1104,cs),
(1102,976,o),
(992,894,o),
(772,894,cs),
(586,894,l),
(586,736,l)
);
}
);
width = 1557.76604;
},
{
anchors = (
{
name = top;
pos = (756,1792);
}
);
layerId = "CD0E3B44-F66A-4791-B84C-A1128DC61275";
shapes = (
{
closed = 1;
nodes = (
(598,800,l),
(598,686,l),
(784,686,ls),
(998,686,o),
(1134,574,o),
(1134,430,cs),
(1134,288,o),
(984,192,o),
(754,192,cs),
(530,192,o),
(416,274,o),
(376,448,c),
(122,448,l),
(156,158,o),
(400,-28,o),
(764,-28,cs),
(1122,-28,o),
(1388,150,o),
(1388,416,cs),
(1388,582,o),
(1286,800,o),
(810,800,c)
);
},
{
closed = 1;
nodes = (
(810,736,l),
(1276,736,o),
(1360,940,o),
(1360,1104,cs),
(1360,1388,o),
(1120,1556,o),
(768,1556,cs),
(418,1556,o),
(188,1390,o),
(150,1112,c),
(404,1112,l),
(436,1248,o),
(564,1340,o),
(768,1340,cs),
(978,1340,o),
(1114,1242,o),
(1114,1104,cs),
(1114,976,o),
(1004,894,o),
(784,894,cs),
(598,894,l),
(598,736,l)
);
}
);
width = 1582;
}
);
metricLeft = a;
metricRight = a;
note = "epsilon mirrored";
unicode = 604;
userData = {
interface.gridadjust.original = "{'width': 1517, 'leftMargin': 135, 'rightMargin': 135}";
"interface.width-adjustments" = (
-16
);
};
}
{
glyphname = hhook;
kernLeft = B;
kernRight = a;
layers = (
{
layerId = "5C20EF92-B63D-42A8-8878-93C2863E0093";
shapes = (
{
closed = 1;
nodes = (
(664,1552,ls),
(664,1644,o),
(793,1660,o),
(888,1660,cs),
(933,1660,o),
(969,1656,o),
(1012,1652,c),
(1012,2060,l),
(949,2064,o),
(873,2076,o),
(740,2076,cs),
(453,2076,o),
(140,2036,o),
(140,1552,cs),
(140,1536,l),
(664,1536,l)
);
},
{
ref = n;
}
);
width = 1820;
},
{
layerId = "B1F27B51-9973-4381-9301-4FE46FE1CA59";
shapes = (
{
closed = 1;
nodes = (
(304,1780,ls),
(304,1949,o),
(353,2012,o),
(494,2012,cs),
(520,2012,o),
(557,2010,o),
(592,2006,c),
(592,2070,l),
(558,2074,o),
(521,2076,o),
(494,2076,cs),
(318,2076,o),
(240,1987,o),
(240,1780,cs),
(240,1504,l),
(304,1504,l,{
name = hr00;
})
);
},
{
alignment = -1;
ref = n;
}
);
width = 1536;
},
{
layerId = "CD0E3B44-F66A-4791-B84C-A1128DC61275";
shapes = (
{
closed = 1;
nodes = (
(430,1662,ls),
(430,1820,o),
(534,1866,o),
(662,1866,cs),
(690,1866,o),
(718,1862,o),
(738,1858,c),
(738,2064,l),
(702,2076,o),
(650,2076,o),
(600,2076,cs),
(374,2076,o),
(194,1930,o),
(194,1662,cs),
(194,1536,l),
(430,1536,l)
);
},
{
alignment = -1;
pos = (2,0);
ref = n;
}
);
width = 1614;
}
);
metricLeft = n;
metricRight = n;
unicode = 614;
userData = {
interface.gridadjust.original = "{'width': 1552, 'leftMargin': 188, 'rightMargin': 182}";
"interface.width-adjustments" = (
-16
);
};
}
{
glyphname = Ismallcap;
layers = (
{
guides = (
{
angle = 90;
pos = (416,0);
}
);
layerId = "5C20EF92-B63D-42A8-8878-93C2863E0093";
shapes = (
{
closed = 1;
nodes = (
(288,1488,l),
(288,1076,l),
(1240,1076,l),
(1240,1488,l,{
name = hr00;
})
);
},
{
closed = 1;
nodes = (
(504,1488,l),
(504,0,l),
(1020,0,l),
(1020,1488,l)
);
},
{
closed = 1;
nodes = (
(288,416,l),
(288,0,l),
(1240,0,l),
(1240,416,l)
);
}
);
width = 1528;
},
{
layerId = "B1F27B51-9973-4381-9301-4FE46FE1CA59";
shapes = (
{
closed = 1;
nodes = (
(60,1488,l),
(60,1424,l),
(580,1424,l),
(580,1488,l,{
name = hr00;
})
);
},
{
closed = 1;
nodes = (
(282,1488,l),
(282,0,l),
(346,0,l),
(346,1488,l)
);
},
{
closed = 1;
nodes = (
(60,64,l),
(60,0,l),
(580,0,l),
(580,64,l)
);
}
);
width = 632;
},
{
layerId = "CD0E3B44-F66A-4791-B84C-A1128DC61275";
shapes = (
{
closed = 1;
nodes = (
(142,1488,l),
(142,1264,l),
(832,1264,l),
(832,1488,l)
);
},
{
closed = 1;
nodes = (
(342,1488,l),
(342,0,l),
(624,0,l),
(624,1488,l)
);
},
{
closed = 1;
nodes = (
(142,224,l),
(142,0,l),
(832,0,l),
(832,224,l)
);
}
);
width = 970;
}
);
unicode = 618;
userData = {
interface.gridadjust.original = "{'width': 958, 'leftMargin': 138, 'rightMargin': 137}";
"interface.width-adjustments" = (
-16
);
};
}
{
glyphname = nrthook;
kernLeft = m;
kernRight = rthook;
layers = (
{
layerId = "5C20EF92-B63D-42A8-8878-93C2863E0093";
shapes = (
{
closed = 1;
nodes = (
(1136,0,l),
(1136,-48,ls),
(1136,-500,o),
(1409,-576,o),
(1744,-576,cs),
(1881,-576,o),
(1953,-564,o),
(2020,-560,c),
(2020,-152,l),
(1929,-160,o),
(1937,-160,o),
(1896,-160,cs),
(1797,-160,o),
(1688,-140,o),
(1688,-48,cs),
(1688,0,l)
);
},
{
ref = n;
}
);
width = 1940;
},
{
layerId = "B1F27B51-9973-4381-9301-4FE46FE1CA59";
shapes = (
{
closed = 1;
nodes = (
(1232,20,l),
(1232,-276,ls),
(1232,-483,o),
(1310,-572,o),
(1486,-572,cs),
(1513,-572,o),
(1550,-570,o),
(1584,-566,c),
(1584,-502,l),
(1549,-506,o),
(1512,-508,o),
(1486,-508,cs),
(1345,-508,o),
(1296,-445,o),
(1296,-276,cs),
(1296,20,l,{
name = hr00;
})
);
},
{
alignment = -1;
ref = n;
}
);
width = 1390;
},
{
layerId = "CD0E3B44-F66A-4791-B84C-A1128DC61275";
shapes = (
{
closed = 1;
nodes = (
(1172,0,l),
(1172,-162,ls),
(1172,-430,o),
(1352,-576,o),
(1578,-576,cs),
(1628,-576,o),
(1680,-576,o),
(1718,-564,c),
(1718,-358,l),
(1696,-362,o),
(1668,-366,o),
(1640,-366,cs),
(1512,-366,o),
(1416,-320,o),
(1416,-162,cs),
(1416,0,l)
);
},
{
alignment = -1;
ref = n;
}
);
width = 1600;
}
);
metricLeft = n;
unicode = 627;
userData = {
interface.gridadjust.original = "{'width': 1638, 'leftMargin': 256, 'rightMargin': -13}";
"interface.width-adjustments" = (
-16
);
};
}
{
glyphname = philatin;
layers = (
{
background = {
shapes = (
{
closed = 1;
nodes = (
(212,730,ls),
(212,142,o),
(604,-26,o),
(1160,-26,cs),
(1720,-26,o),
(2108,142,o),
(2108,730,cs),
(2108,762,ls),
(2108,1350,o),
(1720,1518,o),
(1160,1518,cs),
(664,1518,o),
(212,1390,o),
(212,762,c)
);
},
{
closed = 1;
nodes = (
(732,762,ls),
(732,1110,o),
(964,1102,o),
(1160,1102,cs),
(1356,1102,o),
(1588,1110,o),
(1588,762,cs),
(1588,730,ls),
(1588,406,o),
(1384,386,o),
(1160,386,cs),
(968,386,o),
(732,390,o),
(732,730,c)
);
},
{
closed = 1;
nodes = (
(904,-622,l),
(1416,-622,l),
(1416,2062,l),
(904,2062,l)
);
}
);
};
guides = (
{
angle = 90;
pos = (804,0);
}
);
layerId = "5C20EF92-B63D-42A8-8878-93C2863E0093";
shapes = (
{
closed = 1;
nodes = (
(211,100,o),
(663,-28,o),
(1160,-28,cs),
(1719,-28,o),
(2108,140,o),
(2108,748,cs),
(2108,780,ls),
(2108,1388,o),
(1719,1556,o),
(1160,1556,cs),
(603,1556,o),
(212,1388,o),
(212,780,cs),
(212,748,l)
);
},
{
closed = 1;
nodes = (
(731,1140,o),
(967,1144,o),
(1160,1144,cs),
(1383,1144,o),
(1588,1124,o),
(1588,780,cs),
(1588,748,ls),
(1588,380,o),
(1355,388,o),
(1160,388,cs),
(963,388,o),
(732,380,o),
(732,748,cs),
(732,780,l)
);
},
{
closed = 1;
nodes = (
(1416,-544,l),
(1416,2048,l),
(904,2048,l),
(904,-544,l)
);
}
);
width = 2320;
},
{
background = {
shapes = (
{
closed = 1;
nodes = (
(205,319,o),
(442,-28,o),
(724,-28,cs),
(1010,-28,o),
(1244,312,o),
(1244,728,cs),
(1244,760,ls),
(1245,1175,o),
(1011,1516,o),
(724,1516,cs),
(441,1516,o),
(206,1171,o),
(208,760,cs),
(208,728,ls)
);
},
{
closed = 1;
nodes = (
(272,1140,o),
(476,1451,o),
(724,1452,cs),
(974,1453,o),
(1180,1138,o),
(1180,760,cs),
(1180,728,ls),
(1180,349,o),
(972,34,o),
(724,36,cs),
(477,37,o),
(272,349,o),
(272,728,cs),
(272,760,ls)
);
},
{
closed = 1;
nodes = (
(756,-572,l),
(756,2112,l),
(692,2112,l),
(692,-572,l)
);
}
);
};
layerId = "B1F27B51-9973-4381-9301-4FE46FE1CA59";
shapes = (
{
closed = 1;
nodes = (
(176,319,o),
(410,-28,o),
(692,-28,cs),
(978,-28,o),
(1212,312,o),
(1212,748,cs),
(1212,780,ls),
(1212,1215,o),
(979,1556,o),
(692,1556,cs),
(409,1556,o),
(176,1211,o),
(176,780,cs),
(176,748,ls)
);
},
{
closed = 1;
nodes = (
(240,1180,o),
(444,1491,o),
(692,1492,cs),
(942,1493,o),
(1148,1178,o),
(1148,780,cs),
(1148,748,ls),
(1148,349,o),
(940,34,o),
(692,36,cs),
(445,38,o),
(240,349,o),
(240,748,cs),
(240,780,ls)
);
},
{
closed = 1;
nodes = (
(724,-544,l),
(724,2048,l),
(660,2048,l),
(660,-544,l)
);
}
);
width = 1386;
},
{
layerId = "CD0E3B44-F66A-4791-B84C-A1128DC61275";
shapes = (
{
closed = 1;
nodes = (
(186,296,o),
(450,-28,o),
(872,-28,cs),
(1300,-28,o),
(1560,296,o),
(1560,748,cs),
(1560,780,ls),
(1560,1232,o),
(1300,1556,o),
(872,1556,cs),
(450,1556,o),
(186,1232,o),
(186,780,cs),
(186,748,l)
);
},
{
closed = 1;
nodes = (
(468,1086,o),
(602,1332,o),
(872,1332,cs),
(1144,1332,o),
(1278,1084,o),
(1278,780,cs),
(1278,748,ls),
(1278,438,o),
(1142,196,o),
(872,196,cs),
(602,196,o),
(468,438,o),
(468,748,cs),
(468,780,l)
);
},
{
closed = 1;
nodes = (
(1012,-544,l),
(1012,2048,l),
(734,2048,l),
(734,-544,l)
);
}
);
width = 1746;
}
);
unicode = 632;
userData = {
interface.gridadjust.original = "{'width': 1613, 'leftMargin': 127, 'rightMargin': 127}";
"interface.width-adjustments" = (
-16
);
};
}
{
color = 9;
glyphname = rrthook.1;
kernLeft = m;
kernRight = r;
layers = (
{
layerId = "5C20EF92-B63D-42A8-8878-93C2863E0093";
shapes = (
{
closed = 1;
nodes = (
(885,-576,o),
(961,-564,o),
(1024,-560,c),
(1024,-152,l),
(981,-156,o),
(941,-160,o),
(900,-160,cs),
(805,-160,o),
(692,-140,o),
(692,-48,cs),
(692,0,l),
(140,0,l),
(140,-48,ls),
(140,-500,o),
(413,-576,o),
(752,-576,cs)
);
},
{
ref = r.1;
}
);
width = 1260;
},
{
layerId = "B1F27B51-9973-4381-9301-4FE46FE1CA59";
shapes = (
{
closed = 1;
nodes = (
(521,-572,o),
(558,-570,o),
(592,-566,c),
(592,-502,l),
(557,-506,o),
(520,-508,o),
(494,-508,cs),
(353,-508,o),
(304,-445,o),
(304,-276,cs),
(304,20,l,{
name = hr00;
}),
(240,20,l),
(240,-276,ls),
(240,-483,o),
(318,-572,o),
(494,-572,cs)
);
},
{
alignment = -1;
ref = r.1;
}
);
width = 956;
},
{
layerId = "CD0E3B44-F66A-4791-B84C-A1128DC61275";
shapes = (
{
closed = 1;
nodes = (
(650,-576,o),
(702,-576,o),
(738,-564,c),
(738,-358,l),
(718,-362,o),
(690,-366,o),
(662,-366,cs),
(534,-366,o),
(438,-320,o),
(438,-162,cs),
(438,0,l),
(194,0,l),
(194,-162,ls),
(194,-430,o),
(372,-576,o),
(600,-576,cs)
);
},
{
alignment = -1;
pos = (2,0);
ref = r.1;
}
);
width = 1046;
}
);
metricLeft = r;
metricRight = r.1;
unicode = 637;
userData = {
interface.gridadjust.original = "{'width': 956, 'leftMargin': 188, 'rightMargin': -68}";
"interface.width-adjustments" = (
-16
);
};
}
{
glyphname = rfishhookrev;
kernRight = a;
layers = (
{
layerId = "5C20EF92-B63D-42A8-8878-93C2863E0093";
shapes = (
{
closed = 1;
nodes = (
(1080,1032,ls),
(1080,1520,o),
(744,1556,o),
(452,1556,cs),
(332,1556,o),
(256,1548,o),
(180,1536,c),
(180,1204,l),
(212,1208,o),
(264,1212,o),
(304,1212,cs),
(408,1212,o),
(548,1180,o),
(548,1036,cs),
(548,-572,l),
(1080,-572,l,{
name = hr00;
})
);
}
);
width = 1204;
},
{
layerId = "B1F27B51-9973-4381-9301-4FE46FE1CA59";
shapes = (
{
closed = 1;
nodes = (
(334,1294,l),
(334,1501,o),
(256,1590,o),
(80,1590,cs),
(53,1590,o),
(16,1588,o),
(-18,1584,c),
(-18,1520,l),
(17,1524,o),
(54,1526,o),
(80,1526,cs),
(221,1526,o),
(270,1463,o),
(270,1294,c),
(270,-572,l),
(334,-572,l)
);
}
);
width = 564;
},
{
associatedMasterId = "CD0E3B44-F66A-4791-B84C-A1128DC61275";
layerId = "F213F4FB-8185-49EC-BE04-6C622ADD6480";
shapes = (
{
closed = 1;
nodes = (
(608,1146,ls),
(608,1414,o),
(408,1556,o),
(182,1556,cs),
(140,1556,o),
(80,1548,o),
(42,1536,c),
(42,1324,l),
(68,1328,o),
(96,1332,o),
(120,1332,cs),
(248,1332,o),
(364,1286,o),
(364,1130,cs),
(364,-576,l),
(608,-576,l)
);
}
);
width = 789.22264;
},
{
layerId = "CD0E3B44-F66A-4791-B84C-A1128DC61275";
shapes = (
{
closed = 1;
nodes = (
(616,1146,ls),
(616,1414,o),
(416,1556,o),
(190,1556,cs),
(148,1556,o),
(88,1548,o),
(50,1536,c),
(50,1324,l),
(76,1328,o),
(104,1332,o),
(128,1332,cs),
(256,1332,o),
(372,1286,o),
(372,1130,cs),
(372,-576,l),
(616,-576,l)
);
}
);
width = 810;
}
);
unicode = 639;
userData = {
interface.gridadjust.original = "{'width': 787, 'leftMargin': 41, 'rightMargin': 189}";
"interface.width-adjustments" = (
-16
);
};
}
{
glyphname = srthook;
kernLeft = s;
kernRight = s;
layers = (
{
layerId = "5C20EF92-B63D-42A8-8878-93C2863E0093";
shapes = (
{
closed = 1;
nodes = (
(72,-108,ls),
(72,-429,o),
(270,-624,o),
(596,-624,cs),
(676,-624,o),
(728,-620,o),
(804,-604,c),
(804,-272,l),
(756,-278,o),
(720,-280,o),
(672,-280,cs),
(541,-280,o),
(472,-209,o),
(472,-72,cs),
(472,496,l),
(72,496,l)
);
},
{
ref = s;
}
);
width = 1656;
},
{
layerId = "B1F27B51-9973-4381-9301-4FE46FE1CA59";
shapes = (
{
closed = 1;
nodes = (
(156,-54,ls),
(156,-261,o),
(234,-350,o),
(410,-350,cs),
(437,-350,o),
(474,-348,o),
(508,-344,c),
(508,-280,l),
(473,-284,o),
(436,-286,o),
(410,-286,cs),
(269,-286,o),
(220,-223,o),
(220,-54,cs),
(220,352,l,{
name = hr00;
}),
(156,352,l)
);
},
{
alignment = -1;
ref = s;
}
);
width = 1324;
},
{
associatedMasterId = "CD0E3B44-F66A-4791-B84C-A1128DC61275";
layerId = "F45A0E13-1BE3-437F-945F-24A568EB4DE1";
shapes = (
{
closed = 1;
nodes = (
(122,-46,ls),
(122,-310,o),
(298,-456,o),
(530,-456,cs),
(574,-456,o),
(630,-452,o),
(666,-440,c),
(666,-232,l),
(646,-240,o),
(610,-240,o),
(590,-240,cs),
(462,-240,o),
(330,-204,o),
(330,-44,cs),
(330,372,l),
(122,372,l)
);
},
{
alignment = -1;
pos = (8,0);
ref = s;
}
);
width = 1420.70943;
},
{
layerId = "CD0E3B44-F66A-4791-B84C-A1128DC61275";
shapes = (
{
closed = 1;
nodes = (
(124,-46,ls),
(124,-310,o),
(300,-456,o),
(532,-456,cs),
(576,-456,o),
(632,-452,o),
(668,-440,c),
(668,-232,l),
(648,-240,o),
(612,-240,o),
(592,-240,cs),
(464,-240,o),
(332,-204,o),
(332,-44,cs),
(332,372,l),
(124,372,l)
);
},
{
alignment = -1;
ref = s;
}
);
width = 1436;
}
);
metricLeft = s;
metricRight = s;
unicode = 642;
userData = {
interface.gridadjust.original = "{'width': 1459, 'leftMargin': 129, 'rightMargin': 167}";
"interface.width-adjustments" = (
-16
);
};
}
{
glyphname = esh;
layers = (
{
anchors = (
{
name = cross;
pos = (708,168);
}
);
guides = (
{
pos = (-136,2140);
},
{
pos = (-136,-600);
}
);
layerId = "5C20EF92-B63D-42A8-8878-93C2863E0093";
shapes = (
{
closed = 1;
nodes = (
(972,-8,l,{
name = hr00;
}),
(972,1596,ls),
(972,1688,o),
(1047,1732,o),
(1180,1732,cs),
(1243,1732,o),
(1263,1728,o),
(1296,1720,c),
(1292,2108,l),
(1231,2124,o),
(1155,2140,o),
(1056,2140,cs),
(687,2140,o),
(444,1952,o),
(444,1596,cs),
(444,-8,l)
);
},
{
closed = 1;
nodes = (
(727,-608,o),
(972,-416,o),
(972,-64,cs),
(972,1540,l),
(444,1540,l),
(444,-64,ls),
(444,-148,o),
(371,-200,o),
(236,-200,cs),
(179,-200,o),
(147,-196,o),
(120,-188,c),
(124,-576,l),
(183,-592,o),
(267,-608,o),
(360,-608,cs)
);
}
);
width = 1416;
},
{
anchors = (
{
name = cross;
pos = (520,100);
}
);
background = {
shapes = (
{
closed = 1;
nodes = (
(584,-246,l),
(584,1760,ls),
(584,1930,o),
(706,2048,o),
(872,2048,cs),
(912,2048,o),
(966,2042,o),
(1014,2030,c),
(1014,2090,l),
(978,2104,o),
(922,2112,o),
(872,2112,cs),
(670,2112,o),
(520,1962,o),
(520,1760,cs),
(520,-246,l)
);
},
{
closed = 1;
nodes = (
(434,-598,o),
(584,-448,o),
(584,-246,cs),
(584,1760,l),
(520,1760,l),
(520,-246,ls),
(520,-412,o),
(398,-534,o),
(226,-534,cs),
(190,-534,o),
(128,-528,o),
(80,-518,c),
(80,-582,l),
(128,-594,o),
(190,-598,o),
(228,-598,cs)
);
}
);
};
layerId = "B1F27B51-9973-4381-9301-4FE46FE1CA59";
shapes = (
{
closed = 1;
nodes = (
(552,-256,l),
(552,1788,ls),
(552,1958,o),
(674,2076,o),
(840,2076,cs),
(880,2076,o),
(934,2070,o),
(982,2058,c),
(982,2118,l),
(946,2132,o),
(890,2140,o),
(840,2140,cs),
(638,2140,o),
(488,1990,o),
(488,1788,cs),
(488,-256,l)
);
},
{
closed = 1;
nodes = (
(402,-608,o),
(552,-458,o),
(552,-256,cs),
(552,1788,l),
(488,1788,l),
(488,-256,ls),
(488,-422,o),
(366,-544,o),
(194,-544,cs),
(158,-544,o),
(96,-538,o),
(48,-528,c),
(48,-592,l),
(96,-604,o),
(158,-608,o),
(196,-608,cs)
);
}
);
width = 1024;
},
{
anchors = (
{
name = cross;
pos = (612,126);
}
);
layerId = "CD0E3B44-F66A-4791-B84C-A1128DC61275";
shapes = (
{
closed = 1;
nodes = (
(752,-8,l),
(752,1638,ls),
(752,1812,o),
(846,1908,o),
(1002,1908,cs),
(1050,1908,o),
(1102,1904,o),
(1138,1896,c),
(1154,2120,l),
(1094,2132,o),
(1032,2140,o),
(976,2140,cs),
(662,2140,o),
(472,1964,o),
(472,1638,cs),
(472,-8,l)
);
},
{
closed = 1;
nodes = (
(562,-608,o),
(752,-432,o),
(752,-106,cs),
(752,1540,l),
(472,1540,l),
(472,-106,ls),
(472,-280,o),
(382,-376,o),
(222,-376,cs),
(174,-376,o),
(122,-372,o),
(86,-364,c),
(74,-588,l),
(130,-600,o),
(192,-608,o),
(248,-608,cs)
);
}
);
width = 1224;
}
);
unicode = 643;
userData = {
interface.gridadjust.original = "{'width': 1158, 'leftMargin': 41, 'rightMargin': 41}";
"interface.width-adjustments" = (
-16
);
};
}
{
glyphname = eshcurl;
layers = (
{
layerId = "5C20EF92-B63D-42A8-8878-93C2863E0093";
shapes = (
{
closed = 1;
nodes = (
(712,356,l),
(712,356,o),
(712,-128,o),
(712,-152,cs),
(712,-248,o),
(696,-308,o),
(604,-308,cs),
(544,-308,o),
(480,-292,o),
(480,-220,cs),
(480,-164,o),
(540,-148,o),
(624,-148,cs),
(780,-148,o),
(912,-212,o),
(1108,-344,c),
(1440,-592,l),
(1652,-276,l),
(1200,48,l),
(1020,148,o),
(836,180,o),
(568,180,cs),
(216,180,o),
(48,24,o),
(48,-204,cs),
(48,-444,o),
(220,-608,o),
(616,-608,cs),
(1104,-608,o),
(1244,-340,o),
(1244,-12,c),
(1244,356,l)
);
},
{
closed = 1;
nodes = (
(1244,1596,ls),
(1244,1688,o),
(1320,1732,o),
(1452,1732,cs),
(1504,1732,o),
(1540,1728,o),
(1568,1720,c),
(1564,2108,l),
(1488,2128,o),
(1412,2140,o),
(1332,2140,cs),
(960,2140,o),
(712,1952,o),
(712,1596,cs),
(712,-8,l),
(1244,-8,l)
);
}
);
width = 1664;
},
{
layerId = "B1F27B51-9973-4381-9301-4FE46FE1CA59";
shapes = (
{
closed = 1;
nodes = (
(796,82,l),
(796,-32,o),
(796,-134,o),
(796,-234,cs),
(796,-394,o),
(670,-514,o),
(504,-514,cs),
(344,-514,o),
(220,-403,o),
(220,-266,cs),
(220,-129,o),
(346,-18,o),
(508,-18,cs),
(664,-18,o),
(791,-127,o),
(974,-418,cs),
(1062,-558,l),
(1116,-526,l),
(1026,-382,ls),
(831,-70,o),
(689,46,o),
(508,46,cs),
(309,46,o),
(156,-93,o),
(156,-266,cs),
(156,-439,o),
(309,-578,o),
(504,-578,cs),
(704,-578,o),
(860,-423,o),
(860,-234,c),
(860,82,l)
);
},
{
closed = 1;
nodes = (
(860,1788,ls),
(860,1958,o),
(982,2076,o),
(1148,2076,cs),
(1188,2076,o),
(1242,2070,o),
(1290,2058,c),
(1290,2118,l),
(1254,2132,o),
(1198,2140,o),
(1148,2140,cs),
(946,2140,o),
(796,1990,o),
(796,1788,cs),
(796,-20,l),
(860,-20,l)
);
}
);
width = 1408;
},
{
layerId = "CD0E3B44-F66A-4791-B84C-A1128DC61275";
shapes = (
{
closed = 1;
nodes = (
(712,314,l),
(712,314,o),
(712,-120,o),
(712,-202,cs),
(712,-290,o),
(642,-354,o),
(530,-354,cs),
(446,-354,o),
(390,-296,o),
(390,-212,cs),
(390,-132,o),
(450,-66,o),
(546,-66,cs),
(658,-66,o),
(772,-158,o),
(916,-302,c),
(1128,-522,l),
(1288,-354,l),
(954,-30,l),
(812,86,o),
(676,156,o),
(510,156,cs),
(286,156,o),
(114,24,o),
(114,-212,cs),
(114,-424,o),
(282,-576,o),
(534,-576,cs),
(862,-576,o),
(954,-364,o),
(954,-140,c),
(954,314,l)
);
},
{
closed = 1;
nodes = (
(954,1638,ls),
(954,1812,o),
(1066,1908,o),
(1222,1908,cs),
(1270,1908,o),
(1322,1904,o),
(1358,1896,c),
(1372,2120,l),
(1312,2132,o),
(1252,2140,o),
(1196,2140,cs),
(882,2140,o),
(712,1964,o),
(712,1638,cs),
(712,24,l),
(954,24,l)
);
}
);
width = 1482;
}
);
unicode = 646;
userData = {
interface.gridadjust.original = "{'width': 1320.0, 'leftMargin': 41, 'rightMargin': 27.0}";
"interface.width-adjustments" = (
-16
);
};
}
{
glyphname = trthook;
kernLeft = t;
kernRight = rthook;
layers = (
{
layerId = "5C20EF92-B63D-42A8-8878-93C2863E0093";
shapes = (
{
closed = 1;
nodes = (
(44,1536,l),
(44,1136,l),
(1056,1136,l),
(1056,1536,l)
);
},
{
closed = 1;
nodes = (
(240,-108,l),
(236,-432,o),
(436,-592,o),
(816,-572,cs),
(940,-564,o),
(1036,-540,o),
(1084,-524,c),
(1004,-136,l),
(984,-140,o),
(928,-152,o),
(896,-152,cs),
(824,-152,o),
(792,-120,o),
(792,-56,cs),
(792,1904,l),
(240,1904,l)
);
}
);
width = 1148;
},
{
layerId = "B1F27B51-9973-4381-9301-4FE46FE1CA59";
shapes = (
{
closed = 1;
nodes = (
(112,1536,l),
(112,1472,l),
(720,1472,l),
(720,1536,l)
);
},
{
closed = 1;
nodes = (
(336,-258,ls),
(336,-474,o),
(500,-610,o),
(688,-610,cs),
(736,-610,o),
(772,-602,o),
(812,-586,c),
(792,-526,l),
(758,-538,o),
(728,-546,o),
(688,-546,cs),
(536,-546,o),
(400,-436,o),
(400,-258,cs),
(400,1904,l),
(336,1904,l)
);
}
);
width = 956;
},
{
associatedMasterId = "CD0E3B44-F66A-4791-B84C-A1128DC61275";
layerId = "20F6BB1F-2347-4CCD-B223-99095FFDB358";
shapes = (
{
closed = 1;
nodes = (
(56,1536,l),
(56,1332,l),
(856,1332,l),
(856,1536,l)
);
},
{
closed = 1;
nodes = (
(286,-210,ls),
(286,-478,o),
(502,-608,o),
(706,-608,cs),
(796,-606,o),
(852,-590,o),
(884,-578,c),
(836,-362,l),
(816,-366,o),
(784,-374,o),
(732,-374,cs),
(628,-374,o),
(530,-342,o),
(530,-146,cs),
(530,1904,l),
(286,1904,l)
);
}
);
width = 971.23774;
},
{
layerId = "CD0E3B44-F66A-4791-B84C-A1128DC61275";
shapes = (
{
closed = 1;
nodes = (
(66,1536,l),
(66,1332,l),
(866,1332,l),
(866,1536,l)
);
},
{
closed = 1;
nodes = (
(296,-210,ls),
(296,-478,o),
(512,-608,o),
(716,-608,cs),
(806,-606,o),
(862,-590,o),
(894,-578,c),
(846,-362,l),
(826,-366,o),
(794,-374,o),
(742,-374,cs),
(638,-374,o),
(540,-342,o),
(540,-146,cs),
(540,1904,l),
(296,1904,l)
);
}
);
width = 990;
}
);
metricLeft = t;
metricRight = t;
unicode = 648;
userData = {
interface.gridadjust.original = "{'width': 932, 'leftMargin': 8, 'rightMargin': 96}";
"interface.width-adjustments" = (
-16
);
};
}
{
glyphname = vscript;
layers = (
{
layerId = "5C20EF92-B63D-42A8-8878-93C2863E0093";
shapes = (
{
closed = 1;
nodes = (
(690,384,o),
(634,460,o),
(636,568,c),
(636,1536,l),
(116,1536,l),
(116,568,l),
(114,144,o),
(410,-28,o),
(840,-28,c),
(840,384,l)
);
},
{
closed = 1;
nodes = (
(1270,-28,o),
(1568,144,o),
(1568,568,cs),
(1568,1064,ls),
(1568,1392,o),
(1410,1556,o),
(1116,1556,cs),
(1022,1556,o),
(918,1540,o),
(776,1496,c),
(828,1144,l),
(838,1144,o),
(854,1144,o),
(868,1144,cs),
(986,1144,o),
(1052,1068,o),
(1052,940,cs),
(1052,568,ls),
(1052,460,o),
(986,384,o),
(840,384,c),
(840,-28,l)
);
}
);
width = 1688;
},
{
layerId = "B1F27B51-9973-4381-9301-4FE46FE1CA59";
shapes = (
{
closed = 1;
nodes = (
(402,34,o),
(264,186,o),
(264,572,cs),
(264,1536,l),
(200,1536,l),
(200,572,ls),
(200,152,o),
(362,-28,o),
(650,-28,c),
(650,36,l)
);
},
{
closed = 1;
nodes = (
(938,-28,o),
(1100,150,o),
(1100,572,cs),
(1100,1380,ls),
(1100,1500,o),
(1036,1560,o),
(908,1560,cs),
(842,1560,o),
(772,1542,o),
(678,1496,c),
(688,1436,l),
(758,1474,o),
(846,1498,o),
(910,1498,cs),
(998,1498,o),
(1036,1462,o),
(1036,1380,cs),
(1036,572,ls),
(1036,186,o),
(900,34,o),
(650,36,c),
(650,-28,l)
);
}
);
width = 1292;
},
{
layerId = "CD0E3B44-F66A-4791-B84C-A1128DC61275";
shapes = (
{
closed = 1;
nodes = (
(574,204,o),
(444,284,o),
(444,608,cs),
(444,1536,l),
(166,1536,l),
(166,608,ls),
(166,156,o),
(404,-28,o),
(742,-28,c),
(742,204,l)
);
},
{
closed = 1;
nodes = (
(1084,-28,o),
(1322,156,o),
(1322,608,cs),
(1322,1130,ls),
(1322,1338,o),
(1302,1556,o),
(1034,1556,cs),
(926,1556,o),
(810,1524,o),
(722,1496,c),
(754,1280,l),
(820,1296,o),
(864,1304,o),
(918,1304,cs),
(1000,1304,o),
(1040,1256,o),
(1040,1132,cs),
(1040,608,ls),
(1040,284,o),
(914,204,o),
(742,204,c),
(742,-28,l)
);
}
);
width = 1484;
}
);
unicode = 651;
userData = {
interface.gridadjust.original = "{'width': 1515, 'leftMargin': 183, 'rightMargin': 183}";
"interface.width-adjustments" = (
-16
);
};
}
{
glyphname = ezhcurl;
layers = (
{
background = {
shapes = (
{
closed = 1;
nodes = (
(216,1104,l),
(1056,1104,l),
(1056,1088,l),
(624,704,l),
(624,336,l),
(908,336,ls),
(1092,336,o),
(1200,248,o),
(1200,124,cs),
(1200,-43,o),
(1111,-188,o),
(880,-188,cs),
(695,-188,o),
(583,-159,o),
(584,-112,cs),
(583,-70,o),
(628,-44,o),
(704,-44,cs),
(831,-44,o),
(978,-94,o),
(1092,-176,cs),
(1680,-600,l),
(1884,-340,l),
(1272,96,ls),
(1117,206,o),
(918,272,o),
(684,272,cs),
(335,272,o),
(103,120,o),
(104,-136,cs),
(103,-476,o),
(523,-600,o),
(820,-600,cs),
(1397,-600,o),
(1672,-336,o),
(1672,28,cs),
(1672,353,o),
(1493,593,o),
(1148,636,c),
(1148,652,l),
(1720,1172,l),
(1716,1536,l),
(216,1536,l)
);
}
);
};
layerId = "5C20EF92-B63D-42A8-8878-93C2863E0093";
shapes = (
{
closed = 1;
nodes = (
(216,1104,l),
(1056,1104,l),
(1056,1088,l),
(624,704,l),
(624,336,l),
(908,336,ls),
(1092,336,o),
(1200,240,o),
(1200,116,cs),
(1200,-51,o),
(1111,-196,o),
(880,-196,cs),
(695,-196,o),
(583,-167,o),
(584,-120,cs),
(585,-78,o),
(628,-52,o),
(704,-52,cs),
(831,-52,o),
(978,-102,o),
(1092,-184,cs),
(1680,-608,l),
(1884,-348,l),
(1272,88,ls),
(1117,198,o),
(918,264,o),
(684,264,cs),
(335,264,o),
(103,112,o),
(104,-144,cs),
(105,-484,o),
(523,-608,o),
(820,-608,cs),
(1397,-608,o),
(1672,-344,o),
(1672,20,cs),
(1672,345,o),
(1493,593,o),
(1148,636,c),
(1148,652,l),
(1720,1172,l),
(1716,1536,l),
(216,1536,l)
);
}
);
width = 1996;
},
{
layerId = "B1F27B51-9973-4381-9301-4FE46FE1CA59";
shapes = (
{
closed = 1;
nodes = (
(296,1472,l),
(1278,1472,l),
(1278,1464,l),
(636,676,l),
(636,612,l),
(640,612,ls),
(1109,612,o),
(1364,436,o),
(1364,128,cs),
(1364,-219,o),
(1059,-514,o),
(700,-514,cs),
(456,-514,o),
(296,-392,o),
(296,-208,cs),
(296,-28,o),
(425,100,o),
(604,100,cs),
(745,100,o),
(887,20,o),
(1070,-160,cs),
(1370,-456,l),
(1412,-410,l),
(1122,-124,ls),
(918,77,o),
(762,164,o),
(608,164,cs),
(392,164,o),
(232,8,o),
(232,-202,cs),
(232,-429,o),
(418,-578,o),
(700,-578,cs),
(1096,-578,o),
(1428,-256,o),
(1428,128,cs),
(1428,453,o),
(1177,651,o),
(720,672,c),
(720,680,l),
(1376,1484,l),
(1376,1536,l),
(296,1536,l)
);
}
);
width = 1644;
},
{
layerId = "CD0E3B44-F66A-4791-B84C-A1128DC61275";
shapes = (
{
closed = 1;
nodes = (
(270,1310,l),
(1146,1310,l),
(1146,1294,l),
(636,684,l),
(636,480,l),
(830,480,ls),
(1088,480,o),
(1270,314,o),
(1270,94,cs),
(1270,-98,o),
(1128,-352,o),
(766,-352,cs),
(578,-352,o),
(400,-282,o),
(400,-152,cs),
(400,-64,o),
(484,-6,o),
(626,-6,cs),
(816,-6,o),
(966,-112,o),
(1068,-196,cs),
(1462,-518,l),
(1598,-356,l),
(1206,-32,ls),
(1080,70,o),
(880,218,o),
(618,218,cs),
(348,218,o),
(186,70,o),
(186,-148,cs),
(186,-422,o),
(446,-576,o),
(754,-576,cs),
(1236,-576,o),
(1520,-224,o),
(1520,106,cs),
(1520,410,o),
(1282,638,o),
(930,676,c),
(930,692,l),
(1482,1352,l),
(1482,1536,l),
(270,1536,l)
);
}
);
width = 1772;
}
);
metricLeft = Dzeabkhasiancyrillic;
metricRight = Dzeabkhasiancyrillic;
unicode = 659;
userData = {
interface.gridadjust.original = "{'width': 1555, 'leftMargin': 116, 'rightMargin': 27}";
"interface.width-adjustments" = (
-16
);
};
}
{
glyphname = cstretch;
layers = (
{
background = {
shapes = (
{
closed = 1;
nodes = (
(661,-188,o),
(661,12,o),
(660,160,cs),
(660,756,ls),
(661,904,o),
(661,1104,o),
(864,1104,c),
(1005,1104,o),
(1061,1012,o),
(1060,896,c),
(1544,896,l),
(1549,1304,o),
(1269,1516,o),
(876,1516,cs),
(393,1516,o),
(141,1196,o),
(140,756,cs),
(140,160,ls),
(141,-284,o),
(393,-600,o),
(880,-600,c),
(1257,-600,o),
(1549,-380,o),
(1544,-16,c),
(1060,-16,l),
(1061,-132,o),
(993,-188,o),
(868,-188,cs)
);
}
);
};
layerId = "5C20EF92-B63D-42A8-8878-93C2863E0093";
shapes = (
{
closed = 1;
nodes = (
(661,-196,o),
(660,4,o),
(660,152,cs),
(660,796,ls),
(660,944,o),
(661,1144,o),
(864,1144,c),
(1005,1144,o),
(1061,1052,o),
(1060,936,c),
(1544,936,l),
(1549,1344,o),
(1269,1556,o),
(876,1556,cs),
(393,1556,o),
(140,1236,o),
(140,796,cs),
(140,152,ls),
(140,-292,o),
(393,-608,o),
(880,-608,c),
(1257,-608,o),
(1549,-388,o),
(1544,-24,c),
(1060,-24,l),
(1061,-140,o),
(993,-196,o),
(868,-196,cs)
);
}
);
width = 1684;
},
{
layerId = "B1F27B51-9973-4381-9301-4FE46FE1CA59";
shapes = (
{
closed = 1;
nodes = (
(374,-544,o),
(152,-258,o),
(152,174,cs),
(152,764,ls),
(152,1214,o),
(381,1496,o),
(708,1496,cs),
(954,1496,o),
(1131,1309,o),
(1172,1068,c),
(1240,1068,l),
(1193,1348,o),
(987,1560,o),
(706,1560,cs),
(339,1560,o),
(88,1241,o),
(88,764,cs),
(88,174,ls),
(88,-300,o),
(344,-608,o),
(712,-608,cs),
(992,-608,o),
(1199,-458,o),
(1244,-168,c),
(1176,-168,l),
(1139,-419,o),
(957,-544,o),
(712,-544,cs)
);
}
);
width = 1332;
},
{
layerId = "CD0E3B44-F66A-4791-B84C-A1128DC61275";
shapes = (
{
closed = 1;
nodes = (
(466,-384,o),
(388,-116,o),
(388,136,cs),
(388,812,ls),
(388,1062,o),
(470,1332,o),
(776,1332,c),
(974,1332,o),
(1096,1184,o),
(1108,1014,c),
(1374,1014,l),
(1362,1316,o),
(1134,1556,o),
(776,1556,cs),
(324,1556,o),
(106,1208,o),
(106,812,cs),
(106,136,ls),
(106,-264,o),
(320,-608,o),
(776,-608,c),
(1094,-608,o),
(1362,-372,o),
(1374,-110,c),
(1108,-110,l),
(1096,-264,o),
(950,-384,o),
(776,-384,cs)
);
}
);
width = 1480;
}
);
unicode = 663;
userData = {
interface.gridadjust.original = "{'width': 1480, 'leftMargin': 127, 'rightMargin': 88}";
"interface.width-adjustments" = (
-16
);
};
}
{
glyphname = ts;
layers = (
{
background = {
shapes = (
{
closed = 1;
nodes = (
(340,540,ls),
(338,124,o),
(550,0,o),
(852,0,cs),
(1132,0,l),
(1132,416,l),
(1016,416,ls),
(874,416,o),
(854,460,o),
(856,540,cs),
(856,1868,l),
(340,1868,l)
);
},
{
closed = 1;
nodes = (
(1930,436,o),
(1866,416,o),
(1748,416,cs),
(1068,416,l),
(1068,0,l),
(1732,0,ls),
(2154,0,o),
(2426,172,o),
(2428,444,cs),
(2426,716,o),
(2226,852,o),
(1868,912,cs),
(1702,940,o),
(1570,964,o),
(1572,1060,cs),
(1570,1144,o),
(1650,1180,o),
(1736,1180,cs),
(1866,1180,o),
(1914,1136,o),
(1916,1024,c),
(2432,1024,l),
(2430,1320,o),
(2158,1516,o),
(1736,1516,cs),
(1314,1516,o),
(1082,1288,o),
(1084,1032,cs),
(1082,796,o),
(1290,628,o),
(1636,564,cs),
(1866,520,o),
(1930,532,o),
(1932,476,cs)
);
},
{
closed = 1;
nodes = (
(156,1488,l),
(156,1120,l),
(1548,1120,l),
(1548,1488,l)
);
}
);
};
layerId = "5C20EF92-B63D-42A8-8878-93C2863E0093";
shapes = (
{
closed = 1;
nodes = (
(340,540,ls),
(338,124,o),
(550,0,o),
(852,0,cs),
(1132,0,l),
(1132,416,l),
(1016,416,ls),
(874,416,o),
(854,460,o),
(856,540,cs),
(856,1868,l),
(340,1868,l)
);
},
{
closed = 1;
nodes = (
(1930,436,o),
(1866,416,o),
(1748,416,cs),
(1068,416,l),
(1068,0,l),
(1732,0,ls),
(2154,0,o),
(2426,172,o),
(2428,444,cs),
(2426,716,o),
(2226,852,o),
(1868,912,cs),
(1702,940,o),
(1570,964,o),
(1570,1088,cs),
(1570,1184,o),
(1650,1220,o),
(1736,1220,cs),
(1849,1220,o),
(1914,1158,o),
(1916,1024,c),
(2432,1024,l),
(2430,1360,o),
(2158,1556,o),
(1736,1556,cs),
(1314,1556,o),
(1082,1328,o),
(1082,1062,cs),
(1082,796,o),
(1278,629,o),
(1636,564,cs),
(1806,533,o),
(1930,532,o),
(1930,476,cs)
);
},
{
closed = 1;
nodes = (
(156,1536,l),
(156,1168,l),
(1548,1168,l),
(1548,1536,l)
);
}
);
width = 2572;
},
{
background = {
shapes = (
{
closed = 1;
nodes = (
(280,352,ls),
(280,126,o),
(380,0,o),
(560,0,c),
(664,0,l),
(664,64,l),
(560,64,l),
(417,64,o),
(344,162,o),
(344,352,cs),
(344,1832,l),
(280,1832,l)
);
},
{
closed = 1;
nodes = (
(1436,190,o),
(1261,64,o),
(988,64,cs),
(578,64,l),
(578,0,l),
(988,0,l),
(1296,0,o),
(1500,154,o),
(1500,388,cs),
(1500,612,o),
(1375,719,o),
(1008,808,cs),
(707,881,o),
(604,970,o),
(604,1156,cs),
(604,1336,o),
(765,1452,o),
(1004,1452,cs),
(1250,1452,o),
(1410,1295,o),
(1412,1064,c),
(1476,1064,l),
(1463,1341,o),
(1285,1516,o),
(1008,1516,cs),
(730,1516,o),
(540,1372,o),
(540,1156,cs),
(540,938,o),
(665,825,o),
(992,746,cs),
(1330,664,o),
(1436,581,o),
(1436,388,cs)
);
},
{
closed = 1;
nodes = (
(56,1470,l),
(56,1406,l),
(744,1406,l),
(764,1470,l)
);
}
);
};
guides = (
{
pos = (58,2510);
}
);
layerId = "B1F27B51-9973-4381-9301-4FE46FE1CA59";
shapes = (
{
closed = 1;
nodes = (
(248,352,ls),
(248,126,o),
(348,0,o),
(528,0,c),
(632,0,l),
(632,64,l),
(528,64,l),
(385,64,o),
(312,162,o),
(312,352,cs),
(312,1926,l),
(248,1926,l)
);
},
{
closed = 1;
nodes = (
(1404,176,o),
(1229,64,o),
(956,64,cs),
(546,64,l),
(546,0,l),
(956,0,l),
(1264,0,o),
(1468,140,o),
(1468,402,cs),
(1468,608,o),
(1343,729,o),
(1000,812,cs),
(675,891,o),
(572,990,o),
(572,1160,cs),
(572,1390,o),
(741,1496,o),
(964,1496,cs),
(1226,1496,o),
(1378,1339,o),
(1380,1064,c),
(1444,1064,l),
(1431,1385,o),
(1261,1560,o),
(968,1560,cs),
(706,1560,o),
(508,1426,o),
(508,1160,cs),
(508,958,o),
(633,835,o),
(998,746,cs),
(1298,674,o),
(1404,577,o),
(1404,402,cs)
);
},
{
closed = 1;
nodes = (
(24,1536,l),
(24,1472,l),
(712,1472,l),
(792,1536,l)
);
}
);
width = 1496;
},
{
associatedMasterId = "CD0E3B44-F66A-4791-B84C-A1128DC61275";
layerId = "F1163F76-0987-484B-9F6D-1902BFB27DAB";
shapes = (
{
closed = 1;
nodes = (
(332,442,ls),
(332,124,o),
(492,0,o),
(684,0,cs),
(886,0,l),
(886,236,l),
(770,236,ls),
(688,236,o),
(614,280,o),
(614,442,cs),
(614,1844,l),
(332,1844,l)
);
},
{
closed = 1;
nodes = (
(1638,278,o),
(1536,236,o),
(1338,236,cs),
(786,236,l),
(786,0,l),
(1338,0,ls),
(1688,0,o),
(1920,156,o),
(1920,426,cs),
(1920,662,o),
(1744,786,o),
(1364,870,cs),
(1154,916,o),
(1052,960,o),
(1052,1098,cs),
(1052,1226,o),
(1142,1334,o),
(1326,1334,cs),
(1530,1334,o),
(1622,1202,o),
(1622,1048,c),
(1904,1048,l),
(1904,1344,o),
(1686,1556,o),
(1332,1556,cs),
(986,1556,o),
(772,1352,o),
(772,1092,cs),
(772,832,o),
(978,710,o),
(1320,642,cs),
(1592,586,o),
(1638,494,o),
(1638,408,cs)
);
},
{
closed = 1;
nodes = (
(62,1536,l),
(62,1328,l),
(1162,1328,l),
(1162,1536,l)
);
}
);
width = 1981.63774;
},
{
layerId = "CD0E3B44-F66A-4791-B84C-A1128DC61275";
shapes = (
{
closed = 1;
nodes = (
(340,442,ls),
(340,124,o),
(500,0,o),
(692,0,cs),
(894,0,l),
(894,236,l),
(778,236,ls),
(696,236,o),
(622,280,o),
(622,442,cs),
(622,1844,l),
(340,1844,l)
);
},
{
closed = 1;
nodes = (
(1646,278,o),
(1544,236,o),
(1346,236,cs),
(794,236,l),
(794,0,l),
(1346,0,ls),
(1696,0,o),
(1928,156,o),
(1928,426,cs),
(1928,662,o),
(1752,786,o),
(1372,870,cs),
(1162,916,o),
(1060,960,o),
(1060,1098,cs),
(1060,1226,o),
(1150,1334,o),
(1334,1334,cs),
(1538,1334,o),
(1630,1202,o),
(1630,1048,c),
(1912,1048,l),
(1912,1344,o),
(1694,1556,o),
(1340,1556,cs),
(994,1556,o),
(780,1352,o),
(780,1092,cs),
(780,832,o),
(986,710,o),
(1328,642,cs),
(1600,586,o),
(1646,494,o),
(1646,408,cs)
);
},
{
closed = 1;
nodes = (
(70,1536,l),
(70,1328,l),
(1170,1328,l),
(1170,1536,l)
);
}
);
width = 1998;
}
);
unicode = 678;
userData = {
interface.gridadjust.original = "{'width': 1990, 'leftMargin': 8, 'rightMargin': 135}";
"interface.width-adjustments" = (
-16
);
};
}
{
glyphname = uni02AC;
layers = (
{
layerId = "5C20EF92-B63D-42A8-8878-93C2863E0093";
shapes = (
{
closed = 1;
nodes = (
(536,1200,l),
(736,1200,l),
(960,1740,l),
(1032,2004,l),
(772,2004,l),
(568,1440,l)
);
},
{
closed = 1;
nodes = (
(248,2004,l),
(464,1200,l),
(716,1200,l),
(700,1448,l),
(584,2004,l)
);
},
{
closed = 1;
nodes = (
(1080,1200,l),
(1328,1200,l),
(1544,2004,l),
(1204,2004,l),
(1088,1452,l)
);
},
{
closed = 1;
nodes = (
(764,2004,l),
(836,1736,l),
(1056,1200,l),
(1260,1200,l),
(1224,1448,l),
(1016,2004,l)
);
},
{
closed = 1;
nodes = (
(536,0,l),
(736,0,l),
(960,540,l),
(1032,804,l),
(772,804,l),
(568,244,l)
);
},
{
closed = 1;
nodes = (
(248,804,l),
(464,0,l),
(716,0,l),
(700,252,l),
(584,804,l)
);
},
{
closed = 1;
nodes = (
(1080,0,l),
(1328,0,l),
(1544,804,l),
(1204,804,l),
(1088,256,l)
);
},
{
closed = 1;
nodes = (
(764,804,l),
(836,540,l),
(1056,0,l),
(1260,0,l),
(1224,244,l),
(1016,804,l)
);
}
);
width = 1792;
},
{
layerId = "B1F27B51-9973-4381-9301-4FE46FE1CA59";
shapes = (
{
closed = 1;
nodes = (
(152,1200,l),
(200,1200,l),
(400,1896,l),
(400,2004,l),
(364,2004,l),
(152,1260,l)
);
},
{
closed = 1;
nodes = (
(-100,2004,l),
(124,1200,l),
(174,1200,l),
(174,1260,l),
(-34,2004,l)
);
},
{
closed = 1;
nodes = (
(614,1200,l),
(664,1200,l),
(888,2004,l),
(822,2004,l),
(614,1260,l)
);
},
{
closed = 1;
nodes = (
(390,2004,l),
(390,1896,l),
(588,1200,l),
(638,1200,l),
(638,1260,l),
(424,2004,l)
);
},
{
closed = 1;
nodes = (
(152,0,l),
(200,0,l),
(400,696,l),
(400,804,l),
(364,804,l),
(152,60,l)
);
},
{
closed = 1;
nodes = (
(-100,804,l),
(124,0,l),
(174,0,l),
(174,60,l),
(-34,804,l)
);
},
{
closed = 1;
nodes = (
(614,0,l),
(664,0,l),
(888,804,l),
(822,804,l),
(614,60,l)
);
},
{
closed = 1;
nodes = (
(390,804,l),
(390,696,l),
(588,0,l),
(638,0,l),
(638,60,l),
(424,804,l)
);
}
);
width = 792;
},
{
layerId = "CD0E3B44-F66A-4791-B84C-A1128DC61275";
shapes = (
{
closed = 1;
nodes = (
(332,1200,l),
(442,1200,l),
(636,1818,l),
(650,2004,l),
(522,2004,l),
(334,1382,l)
);
},
{
closed = 1;
nodes = (
(30,2004,l),
(264,1200,l),
(388,1200,l),
(380,1382,l),
(248,2004,l)
);
},
{
closed = 1;
nodes = (
(834,1200,l),
(956,1200,l),
(1192,2004,l),
(978,2004,l),
(850,1382,l)
);
},
{
closed = 1;
nodes = (
(580,2004,l),
(590,1822,l),
(778,1200,l),
(892,1200,l),
(896,1382,l),
(700,2004,l)
);
},
{
closed = 1;
nodes = (
(332,0,l),
(442,0,l),
(636,622,l),
(650,804,l),
(522,804,l),
(334,186,l)
);
},
{
closed = 1;
nodes = (
(30,804,l),
(264,0,l),
(388,0,l),
(380,186,l),
(248,804,l)
);
},
{
closed = 1;
nodes = (
(834,0,l),
(956,0,l),
(1192,804,l),
(978,804,l),
(850,186,l)
);
},
{
closed = 1;
nodes = (
(580,804,l),
(590,622,l),
(778,0,l),
(892,0,l),
(896,186,l),
(700,804,l)
);
}
);
width = 1222;
}
);
unicode = 684;
userData = {
interface.gridadjust.original = "{'width': 1269, 'leftMargin': 55, 'rightMargin': 55}";
"interface.width-adjustments" = (
-16
);
};
}
{
glyphname = primemod;
layers = (
{
layerId = "5C20EF92-B63D-42A8-8878-93C2863E0093";
shapes = (
{
closed = 1;
nodes = (
(516,1152,l),
(616,2048,l),
(112,2048,l),
(216,1152,l)
);
}
);
width = 728;
},
{
layerId = "B1F27B51-9973-4381-9301-4FE46FE1CA59";
shapes = (
{
closed = 1;
nodes = (
(272,1376,l),
(288,2048,l),
(208,2048,l),
(224,1376,l)
);
}
);
width = 496;
},
{
layerId = "CD0E3B44-F66A-4791-B84C-A1128DC61275";
shapes = (
{
closed = 1;
nodes = (
(380,1262,l),
(460,2048,l),
(174,2048,l),
(254,1262,l)
);
}
);
width = 634;
}
);
unicode = 697;
userData = {
interface.gridadjust.original = "{'width': 454, 'leftMargin': 14, 'rightMargin': 14}";
"interface.width-adjustments" = (
-16
);
};
}
{
glyphname = commaturnedmod;
layers = (
{
layerId = "5C20EF92-B63D-42A8-8878-93C2863E0093";
shapes = (
{
ref = quoteleft;
}
);
width = 888;
},
{
guides = (
{
pos = (370,1950);
},
{
pos = (242,2726);
}
);
layerId = "B1F27B51-9973-4381-9301-4FE46FE1CA59";
shapes = (
{
pos = (96,0);
ref = quoteleft;
}
);
width = 606;
},
{
layerId = "CD0E3B44-F66A-4791-B84C-A1128DC61275";
shapes = (
{
alignment = -1;
pos = (32,0);
ref = quoteleft;
}
);
width = 712;
},
{
associatedMasterId = "5C20EF92-B63D-42A8-8878-93C2863E0093";
layerId = "10662D48-3D8B-4C53-B576-1D2D8FC05D06";
name = "Jun 17, 21 0:58";
shapes = (
{
closed = 1;
nodes = (
(596,1396,l),
(596,1680,ls),
(598,1884,o),
(646,2008,o),
(696,2112,c),
(456,2224,l),
(334,2108,o),
(194,1888,o),
(192,1680,cs),
(192,1396,l)
);
}
);
width = 888;
},
{
associatedMasterId = "B1F27B51-9973-4381-9301-4FE46FE1CA59";
guides = (
{
pos = (370,1950);
},
{
pos = (242,2726);
}
);
layerId = "42A3FE03-F032-4E03-AC0F-219FD8D54929";
name = "Jun 17, 21 0:59";
shapes = (
{
closed = 1;
nodes = (
(252,1366,l),
(252,1580,ls),
(252,1801,o),
(342,1956,o),
(476,2096,c),
(440,2142,l),
(280,1986,o),
(188,1808,o),
(188,1572,cs),
(188,1366,l)
);
}
);
width = 606;
}
);
unicode = 699;
userData = {
interface.gridadjust.original = "{'width': 626, 'leftMargin': 110, 'rightMargin': 110}";
"interface.width-adjustments" = (
-16
);
};
}
{
glyphname = glottalstopmod;
layers = (
{
layerId = "5C20EF92-B63D-42A8-8878-93C2863E0093";
shapes = (
{
closed = 1;
nodes = (
(596,2100,l),
(591,2148,o),
(619,2212,o),
(716,2212,cs),
(827,2212,o),
(831,2112,o),
(832,1948,cs),
(832,1592,ls),
(831,1464,o),
(747,1424,o),
(644,1424,cs),
(548,1424,l),
(548,1144,l),
(704,1144,ls),
(1027,1144,o),
(1195,1324,o),
(1196,1612,cs),
(1196,1964,ls),
(1195,2320,o),
(1027,2488,o),
(708,2488,cs),
(435,2488,o),
(247,2360,o),
(252,2100,c)
);
},
{
closed = 1;
nodes = (
(524,900,l),
(888,900,l),
(888,1424,l),
(524,1424,l)
);
}
);
width = 1444;
},
{
layerId = "B1F27B51-9973-4381-9301-4FE46FE1CA59";
shapes = (
{
closed = 1;
nodes = (
(172,2116,l),
(200,2303,o),
(326,2420,o),
(500,2420,cs),
(680,2420,o),
(784,2299,o),
(784,2088,cs),
(784,1752,ls),
(779,1520,o),
(694,1418,o),
(508,1420,c),
(500,1420,l),
(500,1356,l),
(506,1356,l),
(733,1357,o),
(848,1493,o),
(848,1760,cs),
(848,2078,ls),
(848,2332,o),
(721,2482,o),
(504,2484,cs),
(292,2486,o),
(136,2340,o),
(108,2116,c)
);
},
{
closed = 1;
nodes = (
(480,896,l),
(544,896,l),
(544,1420,l),
(480,1420,l)
);
}
);
width = 956;
},
{
associatedMasterId = "CD0E3B44-F66A-4791-B84C-A1128DC61275";
layerId = "38977D8E-6B34-4332-9707-F928BD1390C9";
shapes = (
{
closed = 1;
nodes = (
(354,2084,l),
(372,2190,o),
(424,2270,o),
(572,2270,cs),
(768,2270,o),
(820,2120,o),
(820,1932,cs),
(820,1798,ls),
(820,1616,o),
(798,1420,o),
(570,1420,cs),
(524,1420,l),
(524,1210,l),
(570,1210,ls),
(906,1210,o),
(1074,1442,o),
(1074,1800,cs),
(1074,1932,ls),
(1074,2230,o),
(906,2484,o),
(570,2484,cs),
(306,2484,o),
(138,2310,o),
(130,2084,c)
);
},
{
closed = 1;
nodes = (
(476,896,l),
(732,896,l),
(732,1420,l),
(476,1420,l)
);
}
);
width = 1204.80755;
},
{
layerId = "CD0E3B44-F66A-4791-B84C-A1128DC61275";
shapes = (
{
closed = 1;
nodes = (
(362,2084,l),
(380,2190,o),
(432,2270,o),
(580,2270,cs),
(776,2270,o),
(828,2120,o),
(828,1932,cs),
(828,1798,ls),
(828,1616,o),
(806,1420,o),
(578,1420,cs),
(532,1420,l),
(532,1210,l),
(578,1210,ls),
(914,1210,o),
(1082,1442,o),
(1082,1800,cs),
(1082,1932,ls),
(1082,2230,o),
(914,2484,o),
(578,2484,cs),
(314,2484,o),
(146,2310,o),
(138,2084,c)
);
},
{
closed = 1;
nodes = (
(484,896,l),
(740,896,l),
(740,1420,l),
(484,1420,l)
);
}
);
width = 1220;
}
);
unicode = 704;
userData = {
interface.gridadjust.original = "{'width': 1056.0, 'leftMargin': 28, 'rightMargin': 82.0}";
"interface.width-adjustments" = (
-16
);
};
}
{
glyphname = glottalstopreversedmod;
layers = (
{
layerId = "5C20EF92-B63D-42A8-8878-93C2863E0093";
shapes = (
{
closed = 1;
nodes = (
(1195,2360,o),
(1003,2488,o),
(736,2488,cs),
(371,2488,o),
(251,2276,o),
(252,1964,cs),
(252,1612,ls),
(251,1324,o),
(411,1144,o),
(736,1144,cs),
(892,1144,l),
(892,1424,l),
(804,1424,ls),
(695,1424,o),
(607,1464,o),
(608,1592,cs),
(608,1948,ls),
(607,2108,o),
(611,2212,o),
(728,2212,cs),
(811,2212,o),
(847,2160,o),
(844,2100,c),
(1196,2100,l)
);
},
{
closed = 1;
nodes = (
(552,900,l),
(916,900,l),
(916,1424,l),
(552,1424,l)
);
}
);
width = 1444;
},
{
layerId = "B1F27B51-9973-4381-9301-4FE46FE1CA59";
shapes = (
{
closed = 1;
nodes = (
(820,2340,o),
(664,2486,o),
(452,2484,cs),
(235,2482,o),
(108,2332,o),
(108,2078,cs),
(108,1760,ls),
(108,1493,o),
(223,1357,o),
(450,1356,c),
(456,1356,l),
(456,1420,l),
(448,1420,l),
(262,1418,o),
(177,1520,o),
(172,1752,cs),
(172,2088,ls),
(172,2299,o),
(276,2420,o),
(456,2420,cs),
(630,2420,o),
(756,2303,o),
(784,2116,c),
(848,2116,l)
);
},
{
closed = 1;
nodes = (
(412,896,l),
(476,896,l),
(476,1420,l),
(412,1420,l)
);
}
);
width = 956;
},
{
layerId = "CD0E3B44-F66A-4791-B84C-A1128DC61275";
shapes = (
{
closed = 1;
nodes = (
(1074,2310,o),
(906,2484,o),
(642,2484,cs),
(306,2484,o),
(138,2230,o),
(138,1932,cs),
(138,1800,ls),
(138,1442,o),
(306,1210,o),
(642,1210,cs),
(688,1210,l),
(688,1420,l),
(644,1420,ls),
(418,1420,o),
(392,1616,o),
(394,1798,cs),
(394,1932,ls),
(392,2120,o),
(444,2270,o),
(642,2270,cs),
(788,2270,o),
(840,2192,o),
(860,2084,c),
(1082,2084,l)
);
},
{
closed = 1;
nodes = (
(482,896,l),
(736,896,l),
(736,1420,l),
(482,1420,l)
);
}
);
width = 1220;
}
);
unicode = 705;
userData = {
interface.gridadjust.original = "{'width': 1056.0, 'leftMargin': 83, 'rightMargin': 27.0}";
"interface.width-adjustments" = (
-16
);
};
}
{
color = (204,240,242,1);
glyphname = arrowheadupmod;
layers = (
{
layerId = "5C20EF92-B63D-42A8-8878-93C2863E0093";
shapes = (
{
closed = 1;
nodes = (
(1260,780,l),
(884,1872,l),
(628,1872,l),
(716,1380,l),
(924,780,l)
);
},
{
closed = 1;
nodes = (
(504,780,l),
(704,1380,l),
(792,1872,l),
(540,1872,l),
(160,780,l)
);
}
);
width = 1420;
},
{
layerId = "B1F27B51-9973-4381-9301-4FE46FE1CA59";
shapes = (
{
closed = 1;
nodes = (
(1036,820,l),
(588,1792,l),
(522,1792,l),
(568,1684,l),
(966,820,l)
);
},
{
closed = 1;
nodes = (
(140,820,l),
(538,1684,l),
(584,1792,l),
(518,1792,l),
(70,820,l)
);
}
);
width = 1106;
},
{
layerId = "CD0E3B44-F66A-4791-B84C-A1128DC61275";
shapes = (
{
closed = 1;
nodes = (
(1118,804,l),
(710,1802,l),
(540,1802,l),
(636,1422,l),
(874,804,l)
);
},
{
closed = 1;
nodes = (
(350,804,l),
(584,1422,l),
(684,1802,l),
(518,1802,l),
(106,804,l)
);
}
);
width = 1224;
}
);
unicode = 708;
userData = {
interface.gridadjust.original = "{'width': 1090, 'leftMargin': 41, 'rightMargin': 41}";
"interface.width-adjustments" = (
-16
);
};
}
{
glyphname = linevert;
layers = (
{
layerId = "5C20EF92-B63D-42A8-8878-93C2863E0093";
shapes = (
{
closed = 1;
nodes = (
(156,2188,l),
(156,1556,l),
(460,1556,l),
(460,2188,l)
);
}
);
width = 616;
},
{
layerId = "B1F27B51-9973-4381-9301-4FE46FE1CA59";
shapes = (
{
closed = 1;
nodes = (
(104,2120,l),
(104,1600,l),
(168,1600,l),
(168,2120,l)
);
}
);
width = 272;
},
{
layerId = "CD0E3B44-F66A-4791-B84C-A1128DC61275";
shapes = (
{
closed = 1;
nodes = (
(122,2146,l),
(122,1584,l),
(332,1584,l),
(332,2146,l)
);
}
);
width = 454;
}
);
unicode = 712;
userData = {
interface.gridadjust.original = "{'width': 344, 'leftMargin': 69, 'rightMargin': 69}";
"interface.width-adjustments" = (
-16
);
};
}
{
color = (204,240,242,1);
glyphname = dotaccent;
layers = (
{
anchors = (
{
name = _top;
pos = (460,1792);
}
);
guides = (
{
angle = 90;
orientation = center;
pos = (396,1500);
},
{
pos = (508,1948);
}
);
layerId = "5C20EF92-B63D-42A8-8878-93C2863E0093";
shapes = (
{
closed = 1;
nodes = (
(610,1696,o),
(732,1809,o),
(732,1948,cs),
(732,2087,o),
(610,2200,o),
(460,2200,cs),
(310,2200,o),
(188,2087,o),
(188,1948,cs),
(188,1809,o),
(310,1696,o),
(460,1696,cs)
);
}
);
width = 920;
},
{
anchors = (
{
name = _top;
pos = (224,1792);
}
);
guides = (
{
pos = (616,2464);
}
);
layerId = "B1F27B51-9973-4381-9301-4FE46FE1CA59";
shapes = (
{
closed = 1;
nodes = (
(259,1816,o),
(288,1845,o),
(288,1880,cs),
(288,1915,o),
(259,1944,o),
(224,1944,cs),
(189,1944,o),
(160,1915,o),
(160,1880,cs),
(160,1845,o),
(189,1816,o),
(224,1816,cs)
);
}
);
width = 448;
},
{
anchors = (
{
name = _top;
pos = (318,1792);
}
);
layerId = "CD0E3B44-F66A-4791-B84C-A1128DC61275";
shapes = (
{
closed = 1;
nodes = (
(410,1790,o),
(488,1862,o),
(488,1952,cs),
(488,2042,o),
(410,2114,o),
(318,2114,cs),
(224,2114,o),
(146,2042,o),
(146,1952,cs),
(146,1862,o),
(224,1790,o),
(318,1790,cs)
);
}
);
width = 634;
}
);
unicode = 729;
userData = {
interface.gridadjust.original = "{'width': 696, 'leftMargin': 193, 'rightMargin': 186}";
"interface.width-adjustments" = (
-16
);
};
}
{
color = (204,240,242,1);
glyphname = tonebarextrahighmod.cn;
layers = (
{
layerId = "5C20EF92-B63D-42A8-8878-93C2863E0093";
shapes = (
{
closed = 1;
nodes = (
(528,2004,l),
(528,0,l),
(1044,0,l),
(1044,2004,l)
);
},
{
closed = 1;
nodes = (
(104,2004,l),
(104,1588,l),
(1000,1588,l),
(1000,2004,l)
);
}
);
width = 1140;
},
{
layerId = "B1F27B51-9973-4381-9301-4FE46FE1CA59";
shapes = (
{
closed = 1;
nodes = (
(592,2004,l),
(592,0,l),
(656,0,l),
(656,2004,l)
);
},
{
closed = 1;
nodes = (
(208,2004,l),
(208,1940,l),
(632,1940,l),
(632,2004,l)
);
}
);
width = 866;
},
{
layerId = "CD0E3B44-F66A-4791-B84C-A1128DC61275";
shapes = (
{
closed = 1;
nodes = (
(524,2004,l),
(524,0,l),
(806,0,l),
(806,2004,l)
);
},
{
closed = 1;
nodes = (
(166,2004,l),
(166,1780,l),
(738,1780,l),
(738,2004,l)
);
}
);
width = 972;
}
);
unicode = 741;
userData = {
interface.gridadjust.original = "{'width': 919, 'leftMargin': 55, 'rightMargin': 234}";
"interface.width-adjustments" = (
-16
);
};
}
{
color = (204,240,242,1);
glyphname = uni02F3;
layers = (
{
anchors = (
{
name = _bottom;
pos = (634,0);
}
);
layerId = "5C20EF92-B63D-42A8-8878-93C2863E0093";
shapes = (
{
closed = 1;
nodes = (
(350,-432,o),
(470,-536,o),
(634,-536,cs),
(790,-536,o),
(910,-436,o),
(910,-296,cs),
(910,-168,o),
(790,-60,o),
(634,-60,cs),
(470,-60,o),
(350,-168,o),
(350,-296,cs)
);
},
{
closed = 1;
nodes = (
(534,-248,o),
(574,-212,o),
(634,-212,cs),
(686,-212,o),
(722,-248,o),
(722,-296,cs),
(722,-352,o),
(686,-388,o),
(634,-388,cs),
(574,-388,o),
(534,-352,o),
(534,-296,cs)
);
}
);
width = 1268;
},
{
anchors = (
{
name = _bottom;
pos = (196,0);
}
);
layerId = "B1F27B51-9973-4381-9301-4FE46FE1CA59";
shapes = (
{
closed = 1;
nodes = (
(-32,-485,o),
(69,-586,o),
(196,-586,cs),
(323,-586,o),
(424,-485,o),
(424,-358,cs),
(424,-231,o),
(323,-130,o),
(196,-130,cs),
(69,-130,o),
(-32,-231,o),
(-32,-358,cs)
);
},
{
closed = 1;
nodes = (
(32,-267,o),
(104,-194,o),
(196,-194,cs),
(287,-194,o),
(360,-266,o),
(360,-358,cs),
(360,-449,o),
(288,-522,o),
(196,-522,cs),
(105,-522,o),
(32,-450,o),
(32,-358,cs)
);
}
);
width = 392;
},
{
anchors = (
{
name = _bottom;
pos = (350,0);
}
);
associatedMasterId = "CD0E3B44-F66A-4791-B84C-A1128DC61275";
layerId = "0E6CFE75-25CF-46AB-A39F-104A295E6828";
shapes = (
{
closed = 1;
nodes = (
(106,-474,o),
(214,-568,o),
(350,-568,cs),
(480,-568,o),
(596,-476,o),
(596,-336,cs),
(596,-200,o),
(480,-102,o),
(350,-102,cs),
(214,-102,o),
(106,-200,o),
(106,-336,cs)
);
},
{
closed = 1;
nodes = (
(232,-268,o),
(282,-216,o),
(350,-216,cs),
(410,-216,o),
(470,-268,o),
(470,-336,cs),
(470,-402,o),
(410,-454,o),
(350,-454,cs),
(282,-454,o),
(232,-402,o),
(232,-336,cs)
);
}
);
width = 701.04906;
},
{
anchors = (
{
name = _bottom;
pos = (354,0);
}
);
layerId = "CD0E3B44-F66A-4791-B84C-A1128DC61275";
shapes = (
{
closed = 1;
nodes = (
(110,-474,o),
(218,-568,o),
(354,-568,cs),
(484,-568,o),
(600,-476,o),
(600,-336,cs),
(600,-200,o),
(484,-102,o),
(354,-102,cs),
(218,-102,o),
(110,-200,o),
(110,-336,cs)
);
},
{
closed = 1;
nodes = (
(236,-268,o),
(286,-216,o),
(354,-216,cs),
(414,-216,o),
(474,-268,o),
(474,-336,cs),
(474,-402,o),
(414,-454,o),
(354,-454,cs),
(286,-454,o),
(236,-402,o),
(236,-336,cs)
);
}
);
width = 710;
}
);
unicode = 755;
userData = {
"interface.width-adjustments" = (
-16
);
};
}
{
color = (204,240,242,1);
glyphname = uni02FA;
layers = (
{
layerId = "5C20EF92-B63D-42A8-8878-93C2863E0093";
shapes = (
{
closed = 1;
nodes = (
(936,1548,l),
(936,2112,l),
(628,2112,l),
(628,1548,l)
);
},
{
closed = 1;
nodes = (
(936,1824,l),
(936,2112,l),
(324,2112,l),
(324,1824,l)
);
}
);
width = 1260;
},
{
layerId = "B1F27B51-9973-4381-9301-4FE46FE1CA59";
shapes = (
{
closed = 1;
nodes = (
(480,1664,l),
(480,2112,l),
(416,2112,l),
(416,1664,l)
);
},
{
closed = 1;
nodes = (
(480,2048,l),
(480,2112,l),
(64,2112,l),
(64,2048,l)
);
}
);
width = 544;
},
{
layerId = "CD0E3B44-F66A-4791-B84C-A1128DC61275";
shapes = (
{
closed = 1;
nodes = (
(624,1586,l),
(624,2112,l),
(406,2112,l),
(406,1586,l)
);
},
{
closed = 1;
nodes = (
(624,1910,l),
(624,2112,l),
(82,2112,l),
(82,1910,l)
);
}
);
width = 702;
}
);
unicode = 762;
userData = {
interface.gridadjust.original = "{'width': 767, 'leftMargin': 110, 'rightMargin': 110}";
"interface.width-adjustments" = (
-16
);
};
}
{
color = (204,240,242,1);
glyphname = uni02FB;
layers = (
{
layerId = "5C20EF92-B63D-42A8-8878-93C2863E0093";
shapes = (
{
closed = 1;
nodes = (
(636,-616,l),
(636,-44,l),
(324,-44,l),
(324,-616,l)
);
},
{
closed = 1;
nodes = (
(936,-616,l),
(936,-328,l),
(324,-328,l),
(324,-616,l)
);
}
);
width = 1260;
},
{
layerId = "B1F27B51-9973-4381-9301-4FE46FE1CA59";
shapes = (
{
closed = 1;
nodes = (
(128,-536,l),
(128,-88,l),
(64,-88,l),
(64,-536,l)
);
},
{
closed = 1;
nodes = (
(480,-536,l),
(480,-472,l),
(64,-472,l),
(64,-536,l)
);
}
);
width = 544;
},
{
layerId = "CD0E3B44-F66A-4791-B84C-A1128DC61275";
shapes = (
{
closed = 1;
nodes = (
(288,-656,l),
(288,-122,l),
(82,-122,l),
(82,-656,l)
);
},
{
closed = 1;
nodes = (
(632,-656,l),
(632,-460,l),
(82,-460,l),
(82,-656,l)
);
}
);
width = 702;
}
);
metricWidth = uni02FA;
unicode = 763;
userData = {
interface.gridadjust.original = "{'width': 767, 'leftMargin': 110, 'rightMargin': 110}";
"interface.width-adjustments" = (
-16
);
};
}
{
color = (250,227,227,1);
glyphname = hook;
layers = (
{
anchors = (
{
name = _top;
pos = (-1016,1800);
}
);
layerId = "5C20EF92-B63D-42A8-8878-93C2863E0093";
shapes = (
{
closed = 1;
nodes = (
(-824,1852,l),
(-714,1868,o),
(-606,1928,o),
(-608,2040,cs),
(-606,2216,o),
(-826,2316,o),
(-1236,2316,c),
(-1248,2096,l),
(-1138,2096,o),
(-1058,2084,o),
(-1060,2012,cs),
(-1058,1968,o),
(-1114,1932,o),
(-1256,1928,c),
(-1220,1772,l),
(-824,1772,l)
);
}
);
width = 0;
},
{
anchors = (
{
name = _top;
pos = (-716,1732);
}
);
layerId = "B1F27B51-9973-4381-9301-4FE46FE1CA59";
shapes = (
{
closed = 1;
nodes = (
(-686,1810,l),
(-560,1820,o),
(-475,1901,o),
(-476,2028,cs),
(-477,2166,o),
(-571,2258,o),
(-776,2260,c),
(-786,2196,l),
(-621,2195,o),
(-545,2142,o),
(-544,2020,cs),
(-543,1916,o),
(-597,1875,o),
(-750,1866,c),
(-750,1672,l),
(-686,1672,l)
);
}
);
width = 0;
},
{
anchors = (
{
name = _top;
pos = (-844,1758);
}
);
layerId = "CD0E3B44-F66A-4791-B84C-A1128DC61275";
shapes = (
{
closed = 1;
nodes = (
(-738,1810,l),
(-634,1826,o),
(-530,1882,o),
(-530,2016,cs),
(-530,2176,o),
(-676,2280,o),
(-956,2280,c),
(-964,2128,l),
(-844,2128,o),
(-748,2096,o),
(-748,2024,cs),
(-748,1960,o),
(-800,1932,o),
(-940,1924,c),
(-940,1710,l),
(-738,1710,l)
);
}
);
width = 6;
}
);
unicode = 777;
}
{
color = (250,227,227,1);
glyphname = acutedblnosp;
layers = (
{
anchors = (
{
name = _top;
pos = (-1276,1792);
},
{
name = top;
pos = (-1276,2304);
}
);
layerId = "5C20EF92-B63D-42A8-8878-93C2863E0093";
shapes = (
{
closed = 1;
nodes = (
(-846,1728,l),
(-546,2176,l),
(-1018,2176,l),
(-1210,1728,l)
);
},
{
closed = 1;
nodes = (
(-1388,1728,l),
(-1194,2176,l),
(-1640,2176,l),
(-1742,1728,l)
);
}
);
width = 0;
},
{
anchors = (
{
name = _top;
pos = (-460,1792);
},
{
name = top;
pos = (-456,2304);
}
);
layerId = "B1F27B51-9973-4381-9301-4FE46FE1CA59";
shapes = (
{
closed = 1;
nodes = (
(-214,1760,l),
(82,2192,l),
(2,2192,l),
(-278,1760,l)
);
},
{
closed = 1;
nodes = (
(-430,1760,l),
(-134,2192,l),
(-214,2192,l),
(-494,1760,l)
);
}
);
width = 0;
},
{
anchors = (
{
name = _top;
pos = (-1142,1792);
},
{
name = top;
pos = (-1112,2304);
}
);
layerId = "CD0E3B44-F66A-4791-B84C-A1128DC61275";
shapes = (
{
closed = 1;
nodes = (
(-1218,1744,l),
(-1448,2208,l),
(-1746,2208,l),
(-1430,1744,l)
);
},
{
closed = 1;
nodes = (
(-820,1744,l),
(-960,2208,l),
(-1264,2208,l),
(-1028,1744,l)
);
}
);
width = 0;
}
);
note = "match dblgravecmb";
unicode = 779;
}
{
color = (250,227,227,1);
glyphname = tackleftsubnosp;
layers = (
{
layerId = "5C20EF92-B63D-42A8-8878-93C2863E0093";
shapes = (
{
closed = 1;
nodes = (
(-548,-780,l),
(-548,-96,l),
(-856,-96,l),
(-856,-780,l)
);
},
{
closed = 1;
nodes = (
(-576,-580,l),
(-576,-292,l),
(-1352,-292,l),
(-1352,-580,l)
);
}
);
width = 0;
},
{
layerId = "B1F27B51-9973-4381-9301-4FE46FE1CA59";
shapes = (
{
closed = 1;
nodes = (
(-580,-486,l),
(-580,-90,l),
(-644,-90,l),
(-644,-486,l)
);
},
{
closed = 1;
nodes = (
(-580,-320,l),
(-580,-256,l),
(-976,-256,l),
(-976,-320,l)
);
}
);
width = 0;
},
{
layerId = "CD0E3B44-F66A-4791-B84C-A1128DC61275";
shapes = (
{
closed = 1;
nodes = (
(-574,-616,l),
(-574,-84,l),
(-784,-84,l),
(-784,-616,l)
);
},
{
closed = 1;
nodes = (
(-590,-448,l),
(-590,-252,l),
(-1128,-252,l),
(-1128,-448,l)
);
}
);
width = 6;
}
);
unicode = 792;
}
{
color = (250,227,227,1);
glyphname = tackrightsubnosp;
layers = (
{
anchors = (
{
name = _bottom;
pos = (-860,0);
}
);
layerId = "5C20EF92-B63D-42A8-8878-93C2863E0093";
shapes = (
{
closed = 1;
nodes = (
(-944,-780,l),
(-944,-96,l),
(-1256,-96,l),
(-1256,-780,l)
);
},
{
closed = 1;
nodes = (
(-452,-580,l),
(-452,-292,l),
(-1224,-292,l),
(-1224,-580,l)
);
}
);
width = 0;
},
{
anchors = (
{
name = _bottom;
pos = (-830,0);
}
);
layerId = "B1F27B51-9973-4381-9301-4FE46FE1CA59";
shapes = (
{
closed = 1;
nodes = (
(-964,-486,l),
(-964,-90,l),
(-1028,-90,l),
(-1028,-486,l)
);
},
{
closed = 1;
nodes = (
(-632,-320,l),
(-632,-256,l),
(-1028,-256,l),
(-1028,-320,l)
);
}
);
width = 0;
},
{
anchors = (
{
name = _bottom;
pos = (-830,0);
}
);
layerId = "CD0E3B44-F66A-4791-B84C-A1128DC61275";
shapes = (
{
closed = 1;
nodes = (
(-906,-616,l),
(-906,-84,l),
(-1112,-84,l),
(-1112,-616,l)
);
},
{
closed = 1;
nodes = (
(-558,-448,l),
(-558,-252,l),
(-1100,-252,l),
(-1100,-448,l)
);
}
);
width = 6;
}
);
unicode = 793;
}
